G75*
%MOIN*%
%OFA0B0*%
%FSLAX24Y24*%
%IPPOS*%
%LPD*%
%AMOC8*
5,1,8,0,0,1.08239X$1,22.5*
%
%ADD10R,0.0425X0.0413*%
%ADD11R,0.0413X0.0425*%
%ADD12C,0.0600*%
%ADD13R,0.0787X0.0591*%
%ADD14R,0.0591X0.0315*%
%ADD15OC8,0.0600*%
%ADD16R,0.0433X0.0394*%
%ADD17C,0.0100*%
%ADD18C,0.0278*%
%ADD19C,0.0080*%
%ADD20C,0.0120*%
%ADD21C,0.0200*%
%ADD22C,0.0160*%
%ADD23C,0.0396*%
D10*
X006541Y009190D03*
X006541Y009879D03*
X007729Y011940D03*
X007729Y012629D03*
X013453Y012879D03*
X013453Y012190D03*
X017141Y007567D03*
X017141Y006878D03*
D11*
X015673Y007035D03*
X015673Y007597D03*
X014984Y007597D03*
X014984Y007035D03*
X011173Y008722D03*
X010985Y009285D03*
X010296Y009285D03*
X010484Y008722D03*
X010609Y010160D03*
X011298Y010160D03*
X009235Y011660D03*
X009235Y012222D03*
X008546Y012222D03*
X008546Y011660D03*
X006798Y011660D03*
X006798Y012222D03*
X006109Y012222D03*
X006109Y011660D03*
X006359Y013310D03*
X007048Y013310D03*
X010484Y013035D03*
X011173Y013035D03*
X011173Y012472D03*
X011173Y011910D03*
X010484Y011910D03*
X010484Y012472D03*
X007173Y008097D03*
X006484Y008097D03*
D12*
X008078Y007210D02*
X008078Y006610D01*
X009078Y006610D02*
X009078Y007210D01*
X010078Y007210D02*
X010078Y006610D01*
X011078Y006610D02*
X011078Y007210D01*
X014766Y015110D02*
X014766Y015710D01*
X015766Y015710D02*
X015766Y015110D01*
X016766Y015110D02*
X016766Y015710D01*
X017766Y015710D02*
X017766Y015110D01*
D13*
X019060Y013427D03*
X015792Y013427D03*
X015792Y008407D03*
X019060Y008407D03*
D14*
X018135Y009706D03*
X018135Y010139D03*
X018135Y010572D03*
X018135Y011006D03*
X018135Y011439D03*
X018135Y011872D03*
X018135Y012305D03*
X018135Y012738D03*
D15*
X013453Y014472D03*
X012453Y014472D03*
X011453Y014472D03*
X010453Y014472D03*
X009453Y014472D03*
X008453Y014472D03*
X008453Y015472D03*
X009453Y015472D03*
X010453Y015472D03*
X011453Y015472D03*
X012453Y015472D03*
X013453Y015472D03*
D16*
X008060Y009600D03*
X008060Y008931D03*
X012078Y008700D03*
X012078Y009369D03*
X012766Y009369D03*
X012766Y008700D03*
X013453Y008700D03*
X013453Y009369D03*
D17*
X005435Y006078D02*
X005435Y016237D01*
X014024Y016237D01*
X013831Y016044D01*
X013790Y015945D01*
X013790Y015800D01*
X013648Y015942D01*
X013259Y015942D01*
X012983Y015667D01*
X012983Y015277D01*
X013259Y015002D01*
X013648Y015002D01*
X013790Y015144D01*
X013790Y014800D01*
X013648Y014942D01*
X013259Y014942D01*
X013163Y014847D01*
X013163Y014872D01*
X012976Y015059D01*
X012853Y015182D01*
X012828Y015182D01*
X012923Y015277D01*
X012923Y015667D01*
X012648Y015942D01*
X012259Y015942D01*
X011983Y015667D01*
X011983Y015614D01*
X011915Y015682D01*
X011908Y015682D01*
X011648Y015942D01*
X011259Y015942D01*
X010983Y015667D01*
X010983Y015614D01*
X010915Y015682D01*
X010908Y015682D01*
X010648Y015942D01*
X010259Y015942D01*
X009983Y015667D01*
X009983Y015277D01*
X010079Y015182D01*
X010040Y015182D01*
X009923Y015299D01*
X009923Y015667D01*
X009648Y015942D01*
X009259Y015942D01*
X008983Y015667D01*
X008983Y015277D01*
X009259Y015002D01*
X009626Y015002D01*
X009866Y014762D01*
X010079Y014762D01*
X009983Y014667D01*
X009983Y014277D01*
X010259Y014002D01*
X010648Y014002D01*
X010762Y014116D01*
X010866Y014012D01*
X010884Y013995D01*
X009478Y013995D01*
X009470Y014002D01*
X009648Y014002D01*
X009923Y014277D01*
X009923Y014667D01*
X009648Y014942D01*
X009259Y014942D01*
X009163Y014847D01*
X009163Y015059D01*
X009040Y015182D01*
X008923Y015299D01*
X008923Y015667D01*
X008648Y015942D01*
X008259Y015942D01*
X007983Y015667D01*
X007983Y015277D01*
X008259Y015002D01*
X008626Y015002D01*
X008743Y014885D01*
X008743Y014818D01*
X008640Y014922D01*
X008503Y014922D01*
X008503Y014522D01*
X008403Y014522D01*
X008403Y014422D01*
X008003Y014422D01*
X008003Y014286D01*
X008267Y014022D01*
X008403Y014022D01*
X008403Y014422D01*
X008503Y014422D01*
X008503Y014022D01*
X008640Y014022D01*
X008748Y014130D01*
X008866Y014012D01*
X009304Y013575D01*
X011491Y013575D01*
X011556Y013510D01*
X011556Y012574D01*
X011530Y012548D01*
X011530Y012704D01*
X011519Y012743D01*
X011513Y012753D01*
X011519Y012764D01*
X011530Y012802D01*
X011530Y012985D01*
X011223Y012985D01*
X011223Y013085D01*
X011123Y013085D01*
X011123Y013397D01*
X010946Y013397D01*
X010908Y013387D01*
X010874Y013367D01*
X010846Y013339D01*
X010844Y013335D01*
X010761Y013417D01*
X010207Y013417D01*
X010139Y013349D01*
X010128Y013359D01*
X010015Y013406D01*
X009892Y013406D01*
X009778Y013359D01*
X009691Y013272D01*
X009644Y013159D01*
X009644Y013036D01*
X009691Y012922D01*
X009704Y012910D01*
X009691Y012897D01*
X009683Y012877D01*
X009584Y012976D01*
X009084Y012976D01*
X009016Y013044D01*
X009056Y013142D01*
X009056Y013265D01*
X009009Y013378D01*
X008922Y013465D01*
X008809Y013512D01*
X008686Y013512D01*
X008572Y013465D01*
X008485Y013378D01*
X008438Y013265D01*
X008438Y013142D01*
X008485Y013028D01*
X008537Y012976D01*
X008537Y012929D01*
X008787Y012679D01*
X008910Y012556D01*
X008876Y012522D01*
X008873Y012527D01*
X008845Y012555D01*
X008811Y012574D01*
X008773Y012585D01*
X008596Y012585D01*
X008596Y012272D01*
X008496Y012272D01*
X008496Y012172D01*
X008190Y012172D01*
X008190Y011990D01*
X008200Y011952D01*
X008206Y011941D01*
X008200Y011930D01*
X008190Y011892D01*
X008190Y011710D01*
X008496Y011710D01*
X008496Y012022D01*
X008496Y012172D01*
X008596Y012172D01*
X008596Y011710D01*
X008496Y011710D01*
X008496Y011610D01*
X008190Y011610D01*
X008190Y011432D01*
X007155Y011432D01*
X007155Y011610D01*
X006848Y011610D01*
X006848Y011710D01*
X006748Y011710D01*
X006748Y012022D01*
X006748Y012172D01*
X006848Y012172D01*
X006848Y012272D01*
X007155Y012272D01*
X007155Y012454D01*
X007144Y012493D01*
X007125Y012527D01*
X007097Y012555D01*
X007062Y012574D01*
X007024Y012585D01*
X006848Y012585D01*
X006848Y012272D01*
X006748Y012272D01*
X006748Y012585D01*
X006571Y012585D01*
X006533Y012574D01*
X006499Y012555D01*
X006471Y012527D01*
X006469Y012522D01*
X006386Y012605D01*
X006339Y012605D01*
X006339Y012724D01*
X006325Y012738D01*
X006325Y012784D01*
X006278Y012897D01*
X006248Y012927D01*
X006636Y012927D01*
X006703Y012994D01*
X006771Y012927D01*
X007325Y012927D01*
X007425Y013027D01*
X007425Y013118D01*
X007459Y013118D01*
X007519Y013178D01*
X007519Y013006D01*
X007445Y013006D01*
X007346Y012906D01*
X007346Y012352D01*
X007428Y012269D01*
X007424Y012267D01*
X007396Y012239D01*
X007376Y012205D01*
X007366Y012166D01*
X007366Y011990D01*
X007679Y011990D01*
X007679Y011890D01*
X007779Y011890D01*
X007779Y011990D01*
X008091Y011990D01*
X008091Y012166D01*
X008081Y012205D01*
X008061Y012239D01*
X008033Y012267D01*
X008029Y012269D01*
X008111Y012352D01*
X008111Y012906D01*
X008030Y012987D01*
X008090Y013047D01*
X008137Y013161D01*
X008137Y013284D01*
X008090Y013397D01*
X008003Y013484D01*
X007890Y013531D01*
X007869Y013531D01*
X007869Y013577D01*
X007822Y013691D01*
X007735Y013778D01*
X007621Y013825D01*
X007498Y013825D01*
X007385Y013778D01*
X007299Y013692D01*
X007239Y013692D01*
X007244Y013704D01*
X007244Y013827D01*
X007197Y013941D01*
X007110Y014028D01*
X006996Y014075D01*
X006873Y014075D01*
X006760Y014028D01*
X006708Y013976D01*
X006410Y013976D01*
X006272Y013838D01*
X006149Y013715D01*
X006149Y013692D01*
X006082Y013692D01*
X005982Y013593D01*
X005982Y013031D01*
X005954Y013031D01*
X005841Y012984D01*
X005754Y012897D01*
X005707Y012784D01*
X005707Y012661D01*
X005754Y012547D01*
X005764Y012537D01*
X005732Y012505D01*
X005732Y011377D01*
X005830Y011279D01*
X005830Y008426D01*
X005850Y008406D01*
X005850Y008352D01*
X005822Y008340D01*
X005735Y008253D01*
X005688Y008140D01*
X005688Y008017D01*
X005735Y007903D01*
X005822Y007816D01*
X005936Y007769D01*
X006059Y007769D01*
X006125Y007797D01*
X006207Y007714D01*
X006541Y007714D01*
X006607Y007649D01*
X006502Y007693D01*
X006230Y007693D01*
X005979Y007589D01*
X005787Y007396D01*
X005683Y007145D01*
X005683Y006874D01*
X005787Y006623D01*
X005979Y006430D01*
X006230Y006326D01*
X006502Y006326D01*
X006753Y006430D01*
X006945Y006623D01*
X007049Y006874D01*
X007049Y007145D01*
X006957Y007367D01*
X007635Y007367D01*
X007608Y007303D01*
X007608Y006516D01*
X007680Y006343D01*
X007812Y006211D01*
X007985Y006140D01*
X008172Y006140D01*
X008345Y006211D01*
X008477Y006343D01*
X008548Y006516D01*
X008548Y007303D01*
X008477Y007476D01*
X008348Y007604D01*
X008348Y007735D01*
X008669Y008056D01*
X008745Y008132D01*
X008786Y008231D01*
X008786Y008871D01*
X008816Y008797D01*
X008903Y008710D01*
X009017Y008663D01*
X009140Y008663D01*
X009253Y008710D01*
X009305Y008762D01*
X009491Y008762D01*
X009493Y008760D01*
X009493Y008510D01*
X010181Y007823D01*
X010304Y007700D01*
X008348Y007700D01*
X008351Y007601D02*
X008806Y007601D01*
X008812Y007608D02*
X008680Y007476D01*
X008608Y007303D01*
X008608Y006516D01*
X008680Y006343D01*
X008812Y006211D01*
X008985Y006140D01*
X009172Y006140D01*
X009345Y006211D01*
X009477Y006343D01*
X009548Y006516D01*
X009548Y007303D01*
X009477Y007476D01*
X009345Y007608D01*
X009172Y007680D01*
X008985Y007680D01*
X008812Y007608D01*
X008707Y007503D02*
X008450Y007503D01*
X008506Y007404D02*
X008650Y007404D01*
X008610Y007306D02*
X008547Y007306D01*
X008548Y007207D02*
X008608Y007207D01*
X008608Y007109D02*
X008548Y007109D01*
X008548Y007010D02*
X008608Y007010D01*
X008608Y006912D02*
X008548Y006912D01*
X008548Y006813D02*
X008608Y006813D01*
X008608Y006715D02*
X008548Y006715D01*
X008548Y006616D02*
X008608Y006616D01*
X008608Y006518D02*
X008548Y006518D01*
X008508Y006419D02*
X008648Y006419D01*
X008702Y006321D02*
X008454Y006321D01*
X008356Y006222D02*
X008801Y006222D01*
X009356Y006222D02*
X009801Y006222D01*
X009812Y006211D02*
X009985Y006140D01*
X010172Y006140D01*
X010345Y006211D01*
X010477Y006343D01*
X010548Y006516D01*
X010548Y007303D01*
X010477Y007476D01*
X010345Y007608D01*
X010172Y007680D01*
X009985Y007680D01*
X009812Y007608D01*
X009680Y007476D01*
X009608Y007303D01*
X009608Y006516D01*
X009680Y006343D01*
X009812Y006211D01*
X009702Y006321D02*
X009454Y006321D01*
X009508Y006419D02*
X009648Y006419D01*
X009608Y006518D02*
X009548Y006518D01*
X009548Y006616D02*
X009608Y006616D01*
X009608Y006715D02*
X009548Y006715D01*
X009548Y006813D02*
X009608Y006813D01*
X009608Y006912D02*
X009548Y006912D01*
X009548Y007010D02*
X009608Y007010D01*
X009608Y007109D02*
X009548Y007109D01*
X009548Y007207D02*
X009608Y007207D01*
X009610Y007306D02*
X009547Y007306D01*
X009506Y007404D02*
X009650Y007404D01*
X009707Y007503D02*
X009450Y007503D01*
X009351Y007601D02*
X009806Y007601D01*
X010205Y007798D02*
X008412Y007798D01*
X008510Y007897D02*
X010107Y007897D01*
X010008Y007995D02*
X008609Y007995D01*
X008707Y008094D02*
X009910Y008094D01*
X009811Y008192D02*
X008770Y008192D01*
X008786Y008291D02*
X009713Y008291D01*
X009614Y008389D02*
X008786Y008389D01*
X008786Y008488D02*
X009516Y008488D01*
X009493Y008586D02*
X008786Y008586D01*
X008786Y008685D02*
X008964Y008685D01*
X008830Y008783D02*
X008786Y008783D01*
X009193Y008685D02*
X009493Y008685D01*
X010296Y009285D02*
X010484Y009097D01*
X010484Y008722D01*
X010516Y008753D01*
X010516Y008410D01*
X010578Y008347D01*
X010828Y008347D01*
X011123Y008444D02*
X011123Y008672D01*
X011223Y008672D01*
X011223Y008772D01*
X011530Y008772D01*
X011530Y008954D01*
X011519Y008993D01*
X011500Y009027D01*
X011472Y009055D01*
X011437Y009074D01*
X011399Y009085D01*
X011342Y009085D01*
X011342Y009235D01*
X011035Y009235D01*
X011035Y009335D01*
X011342Y009335D01*
X011342Y009452D01*
X011614Y009452D01*
X011692Y009374D01*
X011692Y009102D01*
X011759Y009035D01*
X011692Y008967D01*
X011692Y008433D01*
X011791Y008333D01*
X012134Y008333D01*
X012160Y008307D01*
X011991Y008307D01*
X011137Y008307D01*
X011137Y008409D01*
X011123Y008444D01*
X011123Y008488D02*
X011223Y008488D01*
X011223Y008586D02*
X011123Y008586D01*
X011223Y008672D02*
X011223Y008359D01*
X011399Y008359D01*
X011437Y008370D01*
X011472Y008389D01*
X011500Y008417D01*
X011519Y008452D01*
X011530Y008490D01*
X011530Y008672D01*
X011223Y008672D01*
X011223Y008685D02*
X011692Y008685D01*
X011692Y008783D02*
X011530Y008783D01*
X011530Y008882D02*
X011692Y008882D01*
X011705Y008980D02*
X011523Y008980D01*
X011421Y009079D02*
X011715Y009079D01*
X011692Y009177D02*
X011342Y009177D01*
X011342Y009374D02*
X011691Y009374D01*
X011692Y009276D02*
X011035Y009276D01*
X011530Y008586D02*
X011692Y008586D01*
X011692Y008488D02*
X011529Y008488D01*
X011472Y008389D02*
X011735Y008389D01*
X012078Y008700D02*
X012766Y008012D01*
X012766Y007035D01*
X012391Y006660D01*
X012700Y006657D02*
X012700Y006598D01*
X012653Y006484D01*
X012566Y006398D01*
X012452Y006350D01*
X012329Y006350D01*
X012216Y006398D01*
X012129Y006484D01*
X012082Y006598D01*
X012082Y006721D01*
X012129Y006835D01*
X012216Y006922D01*
X012329Y006969D01*
X012389Y006969D01*
X012546Y007126D01*
X012546Y007315D01*
X012503Y007273D01*
X012390Y007225D01*
X012267Y007225D01*
X012153Y007273D01*
X012066Y007359D01*
X012040Y007423D01*
X012015Y007413D01*
X011892Y007413D01*
X011778Y007460D01*
X011691Y007547D01*
X011644Y007661D01*
X011644Y007700D01*
X010304Y007700D01*
X010351Y007601D02*
X010856Y007601D01*
X010843Y007594D02*
X010785Y007553D01*
X010735Y007503D01*
X010694Y007445D01*
X010661Y007382D01*
X010639Y007315D01*
X010628Y007245D01*
X010628Y006960D01*
X011028Y006960D01*
X011028Y007657D01*
X010973Y007648D01*
X010906Y007627D01*
X010843Y007594D01*
X010735Y007503D02*
X010450Y007503D01*
X010506Y007404D02*
X010673Y007404D01*
X010638Y007306D02*
X010547Y007306D01*
X010548Y007207D02*
X010628Y007207D01*
X010628Y007109D02*
X010548Y007109D01*
X010548Y007010D02*
X010628Y007010D01*
X010548Y006912D02*
X011028Y006912D01*
X011028Y006960D02*
X011028Y006860D01*
X010628Y006860D01*
X010628Y006574D01*
X010639Y006504D01*
X010661Y006437D01*
X010694Y006374D01*
X010735Y006316D01*
X010785Y006266D01*
X010843Y006225D01*
X010906Y006193D01*
X010973Y006171D01*
X011028Y006162D01*
X011028Y006860D01*
X011128Y006860D01*
X011128Y006960D01*
X011028Y006960D01*
X011028Y007010D02*
X011128Y007010D01*
X011128Y006960D02*
X011128Y007657D01*
X011184Y007648D01*
X011251Y007627D01*
X011314Y007594D01*
X011372Y007553D01*
X011422Y007503D01*
X011463Y007445D01*
X011495Y007382D01*
X011517Y007315D01*
X011528Y007245D01*
X011528Y006960D01*
X011128Y006960D01*
X011128Y006912D02*
X012206Y006912D01*
X012120Y006813D02*
X011528Y006813D01*
X011528Y006860D02*
X011128Y006860D01*
X011128Y006162D01*
X011184Y006171D01*
X011251Y006193D01*
X011314Y006225D01*
X011372Y006266D01*
X011422Y006316D01*
X011463Y006374D01*
X011495Y006437D01*
X011517Y006504D01*
X011528Y006574D01*
X011528Y006860D01*
X011528Y006715D02*
X012082Y006715D01*
X012082Y006616D02*
X011528Y006616D01*
X011519Y006518D02*
X012115Y006518D01*
X012194Y006419D02*
X011487Y006419D01*
X011425Y006321D02*
X020689Y006321D01*
X020689Y006419D02*
X020112Y006419D01*
X020139Y006430D02*
X020331Y006623D01*
X020435Y006874D01*
X020435Y007145D01*
X020331Y007396D01*
X020139Y007589D01*
X019888Y007693D01*
X019616Y007693D01*
X019365Y007589D01*
X019173Y007396D01*
X019069Y007145D01*
X019069Y006874D01*
X019173Y006623D01*
X019365Y006430D01*
X019616Y006326D01*
X019888Y006326D01*
X020139Y006430D01*
X020226Y006518D02*
X020689Y006518D01*
X020689Y006616D02*
X020325Y006616D01*
X020369Y006715D02*
X020689Y006715D01*
X020689Y006813D02*
X020410Y006813D01*
X020435Y006912D02*
X020689Y006912D01*
X020689Y007010D02*
X020435Y007010D01*
X020435Y007109D02*
X020689Y007109D01*
X020689Y007207D02*
X020409Y007207D01*
X020368Y007306D02*
X020689Y007306D01*
X020689Y007404D02*
X020323Y007404D01*
X020224Y007503D02*
X020689Y007503D01*
X020689Y007601D02*
X020108Y007601D01*
X020689Y007700D02*
X017524Y007700D01*
X017524Y007798D02*
X020689Y007798D01*
X020689Y007897D02*
X017470Y007897D01*
X017424Y007943D02*
X017392Y007943D01*
X017392Y007985D01*
X017431Y008079D01*
X017431Y008202D01*
X017384Y008316D01*
X017297Y008403D01*
X017184Y008450D01*
X017061Y008450D01*
X016947Y008403D01*
X016892Y008348D01*
X016892Y008820D01*
X016851Y008919D01*
X016775Y008995D01*
X016645Y009125D01*
X016569Y009201D01*
X016470Y009242D01*
X015582Y009242D01*
X015582Y009813D01*
X015642Y009788D01*
X015765Y009788D01*
X015878Y009835D01*
X015965Y009922D01*
X016012Y010036D01*
X016012Y010075D01*
X016384Y010075D01*
X016340Y010031D01*
X016267Y010031D01*
X016153Y009984D01*
X016066Y009897D01*
X016019Y009784D01*
X016019Y009661D01*
X016066Y009547D01*
X016153Y009460D01*
X016267Y009413D01*
X016390Y009413D01*
X016503Y009460D01*
X016590Y009547D01*
X016637Y009661D01*
X016637Y009734D01*
X016772Y009868D01*
X017147Y009868D01*
X017165Y009886D01*
X017165Y009859D01*
X017126Y009765D01*
X017126Y009642D01*
X017165Y009548D01*
X017165Y009275D01*
X017206Y009175D01*
X017282Y009099D01*
X017594Y008787D01*
X017694Y008746D01*
X018496Y008746D01*
X018496Y008041D01*
X018596Y007942D01*
X019524Y007942D01*
X019623Y008041D01*
X019623Y008773D01*
X019524Y008872D01*
X019298Y008872D01*
X020101Y009675D01*
X020142Y009775D01*
X020142Y013757D01*
X020101Y013856D01*
X020025Y013932D01*
X019678Y014280D01*
X019678Y014339D01*
X019622Y014474D01*
X019518Y014578D01*
X019383Y014634D01*
X019236Y014634D01*
X019101Y014578D01*
X018998Y014474D01*
X018942Y014339D01*
X018942Y014193D01*
X018998Y014057D01*
X019101Y013954D01*
X019236Y013898D01*
X019296Y013898D01*
X019302Y013892D01*
X018596Y013892D01*
X018496Y013792D01*
X018496Y013065D01*
X017769Y013065D01*
X017669Y012966D01*
X017669Y012515D01*
X017449Y012515D01*
X017337Y012403D01*
X017322Y012441D01*
X017235Y012528D01*
X017121Y012575D01*
X016998Y012575D01*
X016885Y012528D01*
X016798Y012441D01*
X016751Y012327D01*
X016751Y012254D01*
X015849Y011352D01*
X015797Y011403D01*
X015684Y011450D01*
X015561Y011450D01*
X015447Y011403D01*
X015360Y011316D01*
X015313Y011202D01*
X015313Y011079D01*
X015360Y010966D01*
X015447Y010879D01*
X015467Y010871D01*
X015457Y010846D01*
X015457Y010723D01*
X015504Y010609D01*
X015524Y010590D01*
X015285Y010351D01*
X015162Y010228D01*
X015162Y009242D01*
X014569Y009242D01*
X014330Y009481D01*
X014330Y011007D01*
X014289Y011106D01*
X013914Y011481D01*
X013838Y011557D01*
X013738Y011598D01*
X013223Y011598D01*
X013223Y011813D01*
X013736Y011813D01*
X013836Y011913D01*
X013836Y011961D01*
X014361Y011962D01*
X014456Y011962D01*
X014523Y012029D01*
X014845Y012350D01*
X014890Y012350D01*
X015003Y012398D01*
X015090Y012484D01*
X015137Y012598D01*
X015137Y012721D01*
X015090Y012835D01*
X015003Y012922D01*
X014890Y012969D01*
X014767Y012969D01*
X014653Y012922D01*
X014566Y012835D01*
X014519Y012721D01*
X014519Y012676D01*
X014265Y012421D01*
X013836Y012421D01*
X013836Y012467D01*
X013754Y012550D01*
X013758Y012552D01*
X013786Y012580D01*
X013806Y012614D01*
X013816Y012653D01*
X013816Y012829D01*
X013503Y012829D01*
X013503Y012929D01*
X013403Y012929D01*
X013403Y013236D01*
X013223Y013236D01*
X013223Y013610D01*
X013876Y013610D01*
X013876Y013640D02*
X013876Y013517D01*
X013923Y013403D01*
X014010Y013316D01*
X014123Y013269D01*
X014246Y013269D01*
X014360Y013316D01*
X014447Y013403D01*
X014494Y013517D01*
X014494Y013640D01*
X014447Y013753D01*
X014395Y013805D01*
X014395Y013915D01*
X014243Y014067D01*
X014289Y014113D01*
X014330Y014212D01*
X014330Y014996D01*
X014349Y014937D01*
X014381Y014874D01*
X014423Y014816D01*
X014473Y014766D01*
X014530Y014725D01*
X014593Y014693D01*
X014661Y014671D01*
X014716Y014662D01*
X014716Y015360D01*
X014816Y015360D01*
X014816Y015460D01*
X015216Y015460D01*
X015216Y015745D01*
X015205Y015815D01*
X015183Y015882D01*
X015157Y015933D01*
X015350Y015933D01*
X015296Y015803D01*
X015296Y015016D01*
X015367Y014843D01*
X015500Y014711D01*
X015672Y014640D01*
X015859Y014640D01*
X016032Y014711D01*
X016164Y014843D01*
X016236Y015016D01*
X016236Y015803D01*
X016182Y015933D01*
X016350Y015933D01*
X016296Y015803D01*
X016296Y015016D01*
X016367Y014843D01*
X016500Y014711D01*
X016672Y014640D01*
X016859Y014640D01*
X017032Y014711D01*
X017164Y014843D01*
X017236Y015016D01*
X017236Y015803D01*
X017182Y015933D01*
X017350Y015933D01*
X017296Y015803D01*
X017296Y015016D01*
X017367Y014843D01*
X017500Y014711D01*
X017672Y014640D01*
X017859Y014640D01*
X018032Y014711D01*
X018164Y014843D01*
X018236Y015016D01*
X018236Y015803D01*
X018164Y015976D01*
X018032Y016108D01*
X018017Y016114D01*
X018017Y016132D01*
X017976Y016231D01*
X017971Y016237D01*
X020689Y016237D01*
X020689Y006078D01*
X005435Y006078D01*
X005435Y006124D02*
X020689Y006124D01*
X020689Y006222D02*
X011310Y006222D01*
X011128Y006222D02*
X011028Y006222D01*
X011028Y006321D02*
X011128Y006321D01*
X011128Y006419D02*
X011028Y006419D01*
X011028Y006518D02*
X011128Y006518D01*
X011128Y006616D02*
X011028Y006616D01*
X011028Y006715D02*
X011128Y006715D01*
X011128Y006813D02*
X011028Y006813D01*
X011028Y007109D02*
X011128Y007109D01*
X011128Y007207D02*
X011028Y007207D01*
X011028Y007306D02*
X011128Y007306D01*
X011128Y007404D02*
X011028Y007404D01*
X011028Y007503D02*
X011128Y007503D01*
X011128Y007601D02*
X011028Y007601D01*
X011301Y007601D02*
X011669Y007601D01*
X011736Y007503D02*
X011422Y007503D01*
X011484Y007404D02*
X012048Y007404D01*
X012120Y007306D02*
X011519Y007306D01*
X011528Y007207D02*
X012546Y007207D01*
X012537Y007306D02*
X012546Y007306D01*
X012529Y007109D02*
X011528Y007109D01*
X011528Y007010D02*
X012431Y007010D01*
X012757Y006715D02*
X013149Y006715D01*
X013153Y006710D02*
X013267Y006663D01*
X013390Y006663D01*
X013503Y006710D01*
X013590Y006797D01*
X013637Y006911D01*
X013637Y007034D01*
X013590Y007147D01*
X013548Y007189D01*
X013548Y007253D01*
X013769Y007032D01*
X013769Y006911D01*
X013816Y006797D01*
X013903Y006710D01*
X014017Y006663D01*
X014140Y006663D01*
X014253Y006710D01*
X014340Y006797D01*
X014366Y006859D01*
X014421Y006805D01*
X014607Y006805D01*
X014607Y006752D01*
X014707Y006652D01*
X015261Y006652D01*
X015344Y006734D01*
X015346Y006730D01*
X015374Y006702D01*
X015408Y006682D01*
X015446Y006672D01*
X015623Y006672D01*
X015623Y006985D01*
X015723Y006985D01*
X015723Y007085D01*
X015623Y007085D01*
X015623Y007547D01*
X015723Y007547D01*
X015723Y007647D01*
X016030Y007647D01*
X016030Y007829D01*
X016019Y007868D01*
X016000Y007902D01*
X015972Y007930D01*
X015951Y007942D01*
X016256Y007942D01*
X016352Y008038D01*
X016352Y007650D01*
X016393Y007550D01*
X016518Y007425D01*
X016594Y007349D01*
X016694Y007308D01*
X016758Y007308D01*
X016758Y007289D01*
X016841Y007207D01*
X016836Y007204D01*
X016808Y007176D01*
X016789Y007142D01*
X016778Y007104D01*
X016778Y006928D01*
X017091Y006928D01*
X017091Y006828D01*
X016778Y006828D01*
X016778Y006651D01*
X016789Y006613D01*
X016808Y006579D01*
X016836Y006551D01*
X016870Y006531D01*
X016909Y006521D01*
X017091Y006521D01*
X017091Y006828D01*
X017191Y006828D01*
X017191Y006928D01*
X017504Y006928D01*
X017504Y007104D01*
X017493Y007142D01*
X017474Y007176D01*
X017446Y007204D01*
X017441Y007207D01*
X017524Y007289D01*
X017524Y007844D01*
X017424Y007943D01*
X017396Y007995D02*
X018542Y007995D01*
X018496Y008094D02*
X017431Y008094D01*
X017431Y008192D02*
X018496Y008192D01*
X018496Y008291D02*
X017395Y008291D01*
X017311Y008389D02*
X018496Y008389D01*
X018496Y008488D02*
X016892Y008488D01*
X016892Y008586D02*
X018496Y008586D01*
X018496Y008685D02*
X016892Y008685D01*
X016892Y008783D02*
X017603Y008783D01*
X017499Y008882D02*
X016866Y008882D01*
X016790Y008980D02*
X017401Y008980D01*
X017302Y009079D02*
X016691Y009079D01*
X016645Y009125D02*
X016645Y009125D01*
X016593Y009177D02*
X017205Y009177D01*
X017165Y009276D02*
X015582Y009276D01*
X015582Y009374D02*
X017165Y009374D01*
X017165Y009473D02*
X016516Y009473D01*
X016601Y009571D02*
X017155Y009571D01*
X017126Y009670D02*
X016637Y009670D01*
X016672Y009768D02*
X017127Y009768D01*
X017165Y009867D02*
X016770Y009867D01*
X016373Y010064D02*
X016012Y010064D01*
X015983Y009965D02*
X016135Y009965D01*
X016054Y009867D02*
X015910Y009867D01*
X016019Y009768D02*
X015582Y009768D01*
X015582Y009670D02*
X016019Y009670D01*
X016056Y009571D02*
X015582Y009571D01*
X015582Y009473D02*
X016141Y009473D01*
X015162Y009473D02*
X014338Y009473D01*
X014330Y009571D02*
X015162Y009571D01*
X015162Y009670D02*
X014330Y009670D01*
X014330Y009768D02*
X015162Y009768D01*
X015162Y009867D02*
X014330Y009867D01*
X014330Y009965D02*
X015162Y009965D01*
X015162Y010064D02*
X014330Y010064D01*
X014330Y010162D02*
X015162Y010162D01*
X015195Y010261D02*
X014330Y010261D01*
X014330Y010359D02*
X015294Y010359D01*
X015392Y010458D02*
X014330Y010458D01*
X014330Y010556D02*
X015491Y010556D01*
X015485Y010655D02*
X014330Y010655D01*
X014330Y010753D02*
X015457Y010753D01*
X015459Y010852D02*
X014330Y010852D01*
X014330Y010950D02*
X015376Y010950D01*
X015326Y011049D02*
X014312Y011049D01*
X014248Y011147D02*
X015313Y011147D01*
X015331Y011246D02*
X014149Y011246D01*
X014051Y011344D02*
X015389Y011344D01*
X015544Y011443D02*
X013952Y011443D01*
X013854Y011541D02*
X016038Y011541D01*
X015940Y011443D02*
X015701Y011443D01*
X016137Y011640D02*
X013223Y011640D01*
X013223Y011738D02*
X016235Y011738D01*
X016334Y011837D02*
X013760Y011837D01*
X013836Y011935D02*
X016432Y011935D01*
X016531Y012034D02*
X014528Y012034D01*
X014456Y011962D02*
X014456Y011962D01*
X014456Y011962D01*
X014626Y012132D02*
X016629Y012132D01*
X016728Y012231D02*
X014725Y012231D01*
X014823Y012329D02*
X016752Y012329D01*
X016792Y012428D02*
X015034Y012428D01*
X015108Y012526D02*
X016883Y012526D01*
X017236Y012526D02*
X017669Y012526D01*
X017669Y012625D02*
X015137Y012625D01*
X015136Y012723D02*
X017669Y012723D01*
X017669Y012822D02*
X015096Y012822D01*
X015005Y012920D02*
X017669Y012920D01*
X017722Y013019D02*
X016313Y013019D01*
X016356Y013061D02*
X016256Y012961D01*
X015328Y012961D01*
X015228Y013061D01*
X015228Y013792D01*
X015328Y013892D01*
X016256Y013892D01*
X016356Y013792D01*
X016356Y013061D01*
X016356Y013117D02*
X018496Y013117D01*
X018496Y013216D02*
X016356Y013216D01*
X016356Y013314D02*
X018496Y013314D01*
X018496Y013413D02*
X016356Y013413D01*
X016356Y013511D02*
X018496Y013511D01*
X018496Y013610D02*
X016356Y013610D01*
X016356Y013708D02*
X018496Y013708D01*
X018510Y013807D02*
X016341Y013807D01*
X015243Y013807D02*
X014395Y013807D01*
X014395Y013905D02*
X019218Y013905D01*
X019051Y014004D02*
X014306Y014004D01*
X014278Y014102D02*
X018979Y014102D01*
X018942Y014201D02*
X014325Y014201D01*
X014330Y014299D02*
X018942Y014299D01*
X018966Y014398D02*
X014330Y014398D01*
X014330Y014496D02*
X019020Y014496D01*
X019142Y014595D02*
X014330Y014595D01*
X014330Y014693D02*
X014591Y014693D01*
X014716Y014693D02*
X014816Y014693D01*
X014816Y014662D02*
X014871Y014671D01*
X014939Y014693D01*
X015002Y014725D01*
X015059Y014766D01*
X015109Y014816D01*
X015151Y014874D01*
X015183Y014937D01*
X015205Y015004D01*
X015216Y015074D01*
X015216Y015360D01*
X014816Y015360D01*
X014816Y014662D01*
X014940Y014693D02*
X015542Y014693D01*
X015419Y014792D02*
X015085Y014792D01*
X015159Y014890D02*
X015348Y014890D01*
X015307Y014989D02*
X015200Y014989D01*
X015216Y015087D02*
X015296Y015087D01*
X015296Y015186D02*
X015216Y015186D01*
X015216Y015284D02*
X015296Y015284D01*
X015296Y015383D02*
X014816Y015383D01*
X014816Y015284D02*
X014716Y015284D01*
X014716Y015186D02*
X014816Y015186D01*
X014816Y015087D02*
X014716Y015087D01*
X014716Y014989D02*
X014816Y014989D01*
X014816Y014890D02*
X014716Y014890D01*
X014716Y014792D02*
X014816Y014792D01*
X014447Y014792D02*
X014330Y014792D01*
X014330Y014890D02*
X014373Y014890D01*
X014330Y014989D02*
X014332Y014989D01*
X013790Y014989D02*
X013046Y014989D01*
X012948Y015087D02*
X013173Y015087D01*
X013075Y015186D02*
X012832Y015186D01*
X012923Y015284D02*
X012983Y015284D01*
X012983Y015383D02*
X012923Y015383D01*
X012923Y015481D02*
X012983Y015481D01*
X012983Y015580D02*
X012923Y015580D01*
X012912Y015678D02*
X012995Y015678D01*
X013094Y015777D02*
X012813Y015777D01*
X012715Y015875D02*
X013192Y015875D01*
X013715Y015875D02*
X013790Y015875D01*
X013802Y015974D02*
X005435Y015974D01*
X005435Y016072D02*
X013859Y016072D01*
X013958Y016171D02*
X005435Y016171D01*
X005435Y015875D02*
X006025Y015875D01*
X005979Y015856D02*
X005787Y015664D01*
X005683Y015413D01*
X005683Y015141D01*
X005787Y014890D01*
X005979Y014698D01*
X006230Y014594D01*
X006502Y014594D01*
X006753Y014698D01*
X006945Y014890D01*
X007049Y015141D01*
X007049Y015413D01*
X006945Y015664D01*
X006753Y015856D01*
X006502Y015960D01*
X006230Y015960D01*
X005979Y015856D01*
X005900Y015777D02*
X005435Y015777D01*
X005435Y015678D02*
X005801Y015678D01*
X005752Y015580D02*
X005435Y015580D01*
X005435Y015481D02*
X005711Y015481D01*
X005683Y015383D02*
X005435Y015383D01*
X005435Y015284D02*
X005683Y015284D01*
X005683Y015186D02*
X005435Y015186D01*
X005435Y015087D02*
X005705Y015087D01*
X005746Y014989D02*
X005435Y014989D01*
X005435Y014890D02*
X005787Y014890D01*
X005885Y014792D02*
X005435Y014792D01*
X005435Y014693D02*
X005990Y014693D01*
X006228Y014595D02*
X005435Y014595D01*
X005435Y014496D02*
X008403Y014496D01*
X008403Y014522D02*
X008003Y014522D01*
X008003Y014658D01*
X008267Y014922D01*
X008403Y014922D01*
X008403Y014522D01*
X008403Y014595D02*
X008503Y014595D01*
X008503Y014693D02*
X008403Y014693D01*
X008403Y014792D02*
X008503Y014792D01*
X008503Y014890D02*
X008403Y014890D01*
X008235Y014890D02*
X006945Y014890D01*
X006986Y014989D02*
X008640Y014989D01*
X008671Y014890D02*
X008738Y014890D01*
X009037Y015186D02*
X009075Y015186D01*
X009040Y015182D02*
X009040Y015182D01*
X008983Y015284D02*
X008938Y015284D01*
X008923Y015383D02*
X008983Y015383D01*
X008983Y015481D02*
X008923Y015481D01*
X008923Y015580D02*
X008983Y015580D01*
X008995Y015678D02*
X008912Y015678D01*
X008813Y015777D02*
X009094Y015777D01*
X009192Y015875D02*
X008715Y015875D01*
X008192Y015875D02*
X006707Y015875D01*
X006832Y015777D02*
X008094Y015777D01*
X007995Y015678D02*
X006931Y015678D01*
X006980Y015580D02*
X007983Y015580D01*
X007983Y015481D02*
X007021Y015481D01*
X007049Y015383D02*
X007983Y015383D01*
X007983Y015284D02*
X007049Y015284D01*
X007049Y015186D02*
X008075Y015186D01*
X008173Y015087D02*
X007027Y015087D01*
X006847Y014792D02*
X008137Y014792D01*
X008038Y014693D02*
X006741Y014693D01*
X006504Y014595D02*
X008003Y014595D01*
X008003Y014398D02*
X005435Y014398D01*
X005435Y014299D02*
X008003Y014299D01*
X008088Y014201D02*
X005435Y014201D01*
X005435Y014102D02*
X008187Y014102D01*
X008403Y014102D02*
X008503Y014102D01*
X008503Y014201D02*
X008403Y014201D01*
X008403Y014299D02*
X008503Y014299D01*
X008503Y014398D02*
X008403Y014398D01*
X008720Y014102D02*
X008776Y014102D01*
X008875Y014004D02*
X007134Y014004D01*
X007211Y013905D02*
X008973Y013905D01*
X009072Y013807D02*
X007665Y013807D01*
X007804Y013708D02*
X009170Y013708D01*
X009269Y013610D02*
X007855Y013610D01*
X007938Y013511D02*
X008683Y013511D01*
X008811Y013511D02*
X011555Y013511D01*
X011556Y013413D02*
X010765Y013413D01*
X011123Y013314D02*
X011223Y013314D01*
X011223Y013397D02*
X011223Y013085D01*
X011530Y013085D01*
X011530Y013267D01*
X011519Y013305D01*
X011500Y013339D01*
X011472Y013367D01*
X011437Y013387D01*
X011399Y013397D01*
X011223Y013397D01*
X011223Y013216D02*
X011123Y013216D01*
X011123Y013117D02*
X011223Y013117D01*
X011223Y013019D02*
X011556Y013019D01*
X011556Y013117D02*
X011530Y013117D01*
X011530Y013216D02*
X011556Y013216D01*
X011556Y013314D02*
X011514Y013314D01*
X011530Y012920D02*
X011556Y012920D01*
X011556Y012822D02*
X011530Y012822D01*
X011525Y012723D02*
X011556Y012723D01*
X011556Y012625D02*
X011530Y012625D01*
X011223Y012625D02*
X011123Y012625D01*
X011123Y012723D02*
X011223Y012723D01*
X011223Y012822D02*
X011123Y012822D01*
X011123Y012835D02*
X011123Y012522D01*
X011223Y012522D01*
X011223Y012985D01*
X011123Y012985D01*
X011123Y012835D01*
X011123Y012920D02*
X011223Y012920D01*
X011223Y012526D02*
X011123Y012526D01*
X011123Y012422D02*
X011223Y012422D01*
X011223Y011960D01*
X011123Y011960D01*
X011123Y012272D01*
X011123Y012422D01*
X011123Y012329D02*
X011223Y012329D01*
X011223Y012231D02*
X011123Y012231D01*
X011123Y012132D02*
X011223Y012132D01*
X011223Y012034D02*
X011123Y012034D01*
X011223Y011960D02*
X011530Y011960D01*
X011530Y012142D01*
X011528Y012148D01*
X011591Y012085D01*
X011704Y012038D01*
X011707Y012038D01*
X011707Y012036D01*
X011754Y011922D01*
X011841Y011835D01*
X011954Y011788D01*
X012019Y011788D01*
X012019Y011786D01*
X012037Y011742D01*
X011530Y011742D01*
X011530Y011860D01*
X011223Y011860D01*
X011223Y011960D01*
X011223Y011935D02*
X011748Y011935D01*
X011708Y012034D02*
X011530Y012034D01*
X011530Y012132D02*
X011544Y012132D01*
X011530Y011837D02*
X011839Y011837D01*
X012494Y010952D02*
X012775Y010952D01*
X012882Y010952D01*
X012981Y010993D01*
X013047Y011058D01*
X013573Y011058D01*
X013790Y010842D01*
X013790Y009687D01*
X013740Y009736D01*
X013166Y009736D01*
X013110Y009679D01*
X013053Y009736D01*
X012479Y009736D01*
X012422Y009679D01*
X012365Y009736D01*
X012093Y009736D01*
X011878Y009951D01*
X011779Y009992D01*
X011655Y009992D01*
X011655Y010110D01*
X011348Y010110D01*
X011348Y010210D01*
X011655Y010210D01*
X011655Y010262D01*
X011804Y010262D01*
X011993Y010073D01*
X012116Y009950D01*
X012414Y009950D01*
X012466Y009898D01*
X012579Y009850D01*
X012702Y009850D01*
X012816Y009898D01*
X012903Y009984D01*
X012950Y010098D01*
X012950Y010221D01*
X012903Y010335D01*
X012816Y010422D01*
X012702Y010469D01*
X012579Y010469D01*
X012575Y010467D01*
X012575Y010534D01*
X012528Y010647D01*
X012476Y010699D01*
X012512Y010786D01*
X012512Y010909D01*
X012494Y010952D01*
X012495Y010950D02*
X013681Y010950D01*
X013779Y010852D02*
X012512Y010852D01*
X012499Y010753D02*
X013790Y010753D01*
X013790Y010655D02*
X012520Y010655D01*
X012566Y010556D02*
X013790Y010556D01*
X013790Y010458D02*
X012728Y010458D01*
X012878Y010359D02*
X013790Y010359D01*
X013790Y010261D02*
X012933Y010261D01*
X012950Y010162D02*
X013790Y010162D01*
X013790Y010064D02*
X012936Y010064D01*
X012884Y009965D02*
X013790Y009965D01*
X013790Y009867D02*
X012742Y009867D01*
X012540Y009867D02*
X011963Y009867D01*
X012061Y009768D02*
X013790Y009768D01*
X014436Y009374D02*
X015162Y009374D01*
X015162Y009276D02*
X014535Y009276D01*
X014516Y008972D02*
X014889Y008972D01*
X014984Y008878D01*
X014641Y008410D02*
X014641Y007940D01*
X014984Y007597D01*
X015623Y007503D02*
X015723Y007503D01*
X015723Y007547D02*
X015723Y007234D01*
X015723Y007085D01*
X016030Y007085D01*
X016030Y007267D01*
X016019Y007305D01*
X016013Y007316D01*
X016019Y007327D01*
X016030Y007365D01*
X016030Y007547D01*
X015723Y007547D01*
X015723Y007601D02*
X016372Y007601D01*
X016352Y007700D02*
X016030Y007700D01*
X016030Y007798D02*
X016352Y007798D01*
X016352Y007897D02*
X016002Y007897D01*
X016310Y007995D02*
X016352Y007995D01*
X016441Y007503D02*
X016030Y007503D01*
X016030Y007404D02*
X016539Y007404D01*
X016758Y007306D02*
X016019Y007306D01*
X016030Y007207D02*
X016840Y007207D01*
X016780Y007109D02*
X016030Y007109D01*
X016030Y006985D02*
X015723Y006985D01*
X015723Y006672D01*
X015899Y006672D01*
X015937Y006682D01*
X015972Y006702D01*
X016000Y006730D01*
X016019Y006764D01*
X016030Y006802D01*
X016030Y006985D01*
X016030Y006912D02*
X017091Y006912D01*
X017091Y006813D02*
X017191Y006813D01*
X017191Y006828D02*
X017191Y006521D01*
X017373Y006521D01*
X017411Y006531D01*
X017446Y006551D01*
X017474Y006579D01*
X017493Y006613D01*
X017504Y006651D01*
X017504Y006828D01*
X017191Y006828D01*
X017191Y006912D02*
X019069Y006912D01*
X019069Y007010D02*
X017504Y007010D01*
X017502Y007109D02*
X019069Y007109D01*
X019094Y007207D02*
X017441Y007207D01*
X017524Y007306D02*
X019135Y007306D01*
X019181Y007404D02*
X017524Y007404D01*
X017524Y007503D02*
X019279Y007503D01*
X019396Y007601D02*
X017524Y007601D01*
X017504Y006813D02*
X019094Y006813D01*
X019134Y006715D02*
X017504Y006715D01*
X017494Y006616D02*
X019179Y006616D01*
X019277Y006518D02*
X012667Y006518D01*
X012700Y006616D02*
X016788Y006616D01*
X016778Y006715D02*
X015985Y006715D01*
X016030Y006813D02*
X016778Y006813D01*
X016778Y007010D02*
X015723Y007010D01*
X015723Y006912D02*
X015623Y006912D01*
X015623Y006813D02*
X015723Y006813D01*
X015723Y006715D02*
X015623Y006715D01*
X015361Y006715D02*
X015324Y006715D01*
X015623Y007109D02*
X015723Y007109D01*
X015723Y007207D02*
X015623Y007207D01*
X015623Y007306D02*
X015723Y007306D01*
X015723Y007404D02*
X015623Y007404D01*
X014644Y006715D02*
X014258Y006715D01*
X014347Y006813D02*
X014412Y006813D01*
X014078Y006972D02*
X014078Y007035D01*
X013578Y007535D01*
X013578Y008160D01*
X013453Y008285D01*
X013453Y008700D01*
X012766Y008700D02*
X012766Y008410D01*
X013328Y007847D01*
X013328Y006972D01*
X013108Y007189D02*
X013066Y007147D01*
X013019Y007034D01*
X013019Y006911D01*
X013066Y006797D01*
X013153Y006710D01*
X013060Y006813D02*
X012856Y006813D01*
X012954Y006912D02*
X013019Y006912D01*
X012986Y006943D02*
X012986Y007878D01*
X013108Y007756D01*
X013108Y007189D01*
X013108Y007207D02*
X012986Y007207D01*
X012986Y007109D02*
X013051Y007109D01*
X013019Y007010D02*
X012986Y007010D01*
X012986Y006943D02*
X012700Y006657D01*
X012588Y006419D02*
X019391Y006419D01*
X019577Y007995D02*
X020689Y007995D01*
X020689Y008094D02*
X019623Y008094D01*
X019623Y008192D02*
X020689Y008192D01*
X020689Y008291D02*
X019623Y008291D01*
X019623Y008389D02*
X020689Y008389D01*
X020689Y008488D02*
X019623Y008488D01*
X019623Y008586D02*
X020689Y008586D01*
X020689Y008685D02*
X019623Y008685D01*
X019613Y008783D02*
X020689Y008783D01*
X020689Y008882D02*
X019308Y008882D01*
X019406Y008980D02*
X020689Y008980D01*
X020689Y009079D02*
X019505Y009079D01*
X019603Y009177D02*
X020689Y009177D01*
X020689Y009276D02*
X019702Y009276D01*
X019800Y009374D02*
X020689Y009374D01*
X020689Y009473D02*
X019899Y009473D01*
X019997Y009571D02*
X020689Y009571D01*
X020689Y009670D02*
X020096Y009670D01*
X020140Y009768D02*
X020689Y009768D01*
X020689Y009867D02*
X020142Y009867D01*
X020142Y009965D02*
X020689Y009965D01*
X020689Y010064D02*
X020142Y010064D01*
X020142Y010162D02*
X020689Y010162D01*
X020689Y010261D02*
X020142Y010261D01*
X020142Y010359D02*
X020689Y010359D01*
X020689Y010458D02*
X020142Y010458D01*
X020142Y010556D02*
X020689Y010556D01*
X020689Y010655D02*
X020142Y010655D01*
X020142Y010753D02*
X020689Y010753D01*
X020689Y010852D02*
X020142Y010852D01*
X020142Y010950D02*
X020689Y010950D01*
X020689Y011049D02*
X020142Y011049D01*
X020142Y011147D02*
X020689Y011147D01*
X020689Y011246D02*
X020142Y011246D01*
X020142Y011344D02*
X020689Y011344D01*
X020689Y011443D02*
X020142Y011443D01*
X020142Y011541D02*
X020689Y011541D01*
X020689Y011640D02*
X020142Y011640D01*
X020142Y011738D02*
X020689Y011738D01*
X020689Y011837D02*
X020142Y011837D01*
X020142Y011935D02*
X020689Y011935D01*
X020689Y012034D02*
X020142Y012034D01*
X020142Y012132D02*
X020689Y012132D01*
X020689Y012231D02*
X020142Y012231D01*
X020142Y012329D02*
X020689Y012329D01*
X020689Y012428D02*
X020142Y012428D01*
X020142Y012526D02*
X020689Y012526D01*
X020689Y012625D02*
X020142Y012625D01*
X020142Y012723D02*
X020689Y012723D01*
X020689Y012822D02*
X020142Y012822D01*
X020142Y012920D02*
X020689Y012920D01*
X020689Y013019D02*
X020142Y013019D01*
X020142Y013117D02*
X020689Y013117D01*
X020689Y013216D02*
X020142Y013216D01*
X020142Y013314D02*
X020689Y013314D01*
X020689Y013413D02*
X020142Y013413D01*
X020142Y013511D02*
X020689Y013511D01*
X020689Y013610D02*
X020142Y013610D01*
X020142Y013708D02*
X020689Y013708D01*
X020689Y013807D02*
X020122Y013807D01*
X020052Y013905D02*
X020689Y013905D01*
X020689Y014004D02*
X019954Y014004D01*
X019855Y014102D02*
X020689Y014102D01*
X020689Y014201D02*
X019757Y014201D01*
X019678Y014299D02*
X020689Y014299D01*
X020689Y014398D02*
X019653Y014398D01*
X019600Y014496D02*
X020689Y014496D01*
X020689Y014595D02*
X019889Y014595D01*
X019888Y014594D02*
X020139Y014698D01*
X020331Y014890D01*
X020435Y015141D01*
X020435Y015413D01*
X020331Y015664D01*
X020139Y015856D01*
X019888Y015960D01*
X019616Y015960D01*
X019365Y015856D01*
X019173Y015664D01*
X019069Y015413D01*
X019069Y015141D01*
X019173Y014890D01*
X019365Y014698D01*
X019616Y014594D01*
X019888Y014594D01*
X020127Y014693D02*
X020689Y014693D01*
X020689Y014792D02*
X020232Y014792D01*
X020331Y014890D02*
X020689Y014890D01*
X020689Y014989D02*
X020372Y014989D01*
X020412Y015087D02*
X020689Y015087D01*
X020689Y015186D02*
X020435Y015186D01*
X020435Y015284D02*
X020689Y015284D01*
X020689Y015383D02*
X020435Y015383D01*
X020406Y015481D02*
X020689Y015481D01*
X020689Y015580D02*
X020366Y015580D01*
X020316Y015678D02*
X020689Y015678D01*
X020689Y015777D02*
X020218Y015777D01*
X020092Y015875D02*
X020689Y015875D01*
X020689Y015974D02*
X018165Y015974D01*
X018206Y015875D02*
X019411Y015875D01*
X019285Y015777D02*
X018236Y015777D01*
X018236Y015678D02*
X019187Y015678D01*
X019138Y015580D02*
X018236Y015580D01*
X018236Y015481D02*
X019097Y015481D01*
X019069Y015383D02*
X018236Y015383D01*
X018236Y015284D02*
X019069Y015284D01*
X019069Y015186D02*
X018236Y015186D01*
X018236Y015087D02*
X019091Y015087D01*
X019132Y014989D02*
X018225Y014989D01*
X018184Y014890D02*
X019173Y014890D01*
X019271Y014792D02*
X018113Y014792D01*
X017989Y014693D02*
X019376Y014693D01*
X019477Y014595D02*
X019614Y014595D01*
X020689Y016072D02*
X018068Y016072D01*
X018001Y016171D02*
X020689Y016171D01*
X017542Y014693D02*
X016989Y014693D01*
X017113Y014792D02*
X017419Y014792D01*
X017348Y014890D02*
X017184Y014890D01*
X017225Y014989D02*
X017307Y014989D01*
X017296Y015087D02*
X017236Y015087D01*
X017236Y015186D02*
X017296Y015186D01*
X017296Y015284D02*
X017236Y015284D01*
X017236Y015383D02*
X017296Y015383D01*
X017296Y015481D02*
X017236Y015481D01*
X017236Y015580D02*
X017296Y015580D01*
X017296Y015678D02*
X017236Y015678D01*
X017236Y015777D02*
X017296Y015777D01*
X017326Y015875D02*
X017206Y015875D01*
X016326Y015875D02*
X016206Y015875D01*
X016236Y015777D02*
X016296Y015777D01*
X016296Y015678D02*
X016236Y015678D01*
X016236Y015580D02*
X016296Y015580D01*
X016296Y015481D02*
X016236Y015481D01*
X016236Y015383D02*
X016296Y015383D01*
X016296Y015284D02*
X016236Y015284D01*
X016236Y015186D02*
X016296Y015186D01*
X016296Y015087D02*
X016236Y015087D01*
X016225Y014989D02*
X016307Y014989D01*
X016348Y014890D02*
X016184Y014890D01*
X016113Y014792D02*
X016419Y014792D01*
X016542Y014693D02*
X015989Y014693D01*
X015296Y015481D02*
X015216Y015481D01*
X015216Y015580D02*
X015296Y015580D01*
X015296Y015678D02*
X015216Y015678D01*
X015211Y015777D02*
X015296Y015777D01*
X015326Y015875D02*
X015185Y015875D01*
X013790Y015087D02*
X013733Y015087D01*
X013700Y014890D02*
X013790Y014890D01*
X013207Y014890D02*
X013145Y014890D01*
X012094Y015777D02*
X011813Y015777D01*
X011715Y015875D02*
X012192Y015875D01*
X011995Y015678D02*
X011919Y015678D01*
X011192Y015875D02*
X010715Y015875D01*
X010813Y015777D02*
X011094Y015777D01*
X010995Y015678D02*
X010919Y015678D01*
X010192Y015875D02*
X009715Y015875D01*
X009813Y015777D02*
X010094Y015777D01*
X009995Y015678D02*
X009912Y015678D01*
X009923Y015580D02*
X009983Y015580D01*
X009983Y015481D02*
X009923Y015481D01*
X009923Y015383D02*
X009983Y015383D01*
X009983Y015284D02*
X009938Y015284D01*
X010037Y015186D02*
X010075Y015186D01*
X009738Y014890D02*
X009700Y014890D01*
X009640Y014989D02*
X009163Y014989D01*
X009163Y014890D02*
X009207Y014890D01*
X009173Y015087D02*
X009135Y015087D01*
X009798Y014792D02*
X009837Y014792D01*
X009897Y014693D02*
X010010Y014693D01*
X009983Y014595D02*
X009923Y014595D01*
X009923Y014496D02*
X009983Y014496D01*
X009983Y014398D02*
X009923Y014398D01*
X009923Y014299D02*
X009983Y014299D01*
X010060Y014201D02*
X009847Y014201D01*
X009748Y014102D02*
X010158Y014102D01*
X010257Y014004D02*
X009650Y014004D01*
X010203Y013413D02*
X008975Y013413D01*
X009036Y013314D02*
X009734Y013314D01*
X009668Y013216D02*
X009056Y013216D01*
X009046Y013117D02*
X009644Y013117D01*
X009651Y013019D02*
X009041Y013019D01*
X008743Y012723D02*
X008111Y012723D01*
X008111Y012625D02*
X008841Y012625D01*
X008873Y012526D02*
X008880Y012526D01*
X008644Y012822D02*
X008111Y012822D01*
X008097Y012920D02*
X008546Y012920D01*
X008495Y013019D02*
X008062Y013019D01*
X008120Y013117D02*
X008448Y013117D01*
X008438Y013216D02*
X008137Y013216D01*
X008125Y013314D02*
X008459Y013314D01*
X008520Y013413D02*
X008075Y013413D01*
X007519Y013117D02*
X007425Y013117D01*
X007417Y013019D02*
X007519Y013019D01*
X007360Y012920D02*
X006255Y012920D01*
X006309Y012822D02*
X007346Y012822D01*
X007346Y012723D02*
X006339Y012723D01*
X006339Y012625D02*
X007346Y012625D01*
X007346Y012526D02*
X007125Y012526D01*
X007155Y012428D02*
X007346Y012428D01*
X007368Y012329D02*
X007155Y012329D01*
X007155Y012172D02*
X006848Y012172D01*
X006848Y011710D01*
X007155Y011710D01*
X007155Y011892D01*
X007144Y011930D01*
X007138Y011941D01*
X007144Y011952D01*
X007155Y011990D01*
X007155Y012172D01*
X007155Y012132D02*
X007366Y012132D01*
X007366Y012034D02*
X007155Y012034D01*
X007141Y011935D02*
X007679Y011935D01*
X007679Y011890D02*
X007366Y011890D01*
X007366Y011714D01*
X007376Y011675D01*
X007396Y011641D01*
X007424Y011613D01*
X007458Y011594D01*
X007496Y011583D01*
X007679Y011583D01*
X007679Y011890D01*
X007679Y011837D02*
X007779Y011837D01*
X007779Y011890D02*
X007779Y011583D01*
X007961Y011583D01*
X007999Y011594D01*
X008033Y011613D01*
X008061Y011641D01*
X008081Y011675D01*
X008091Y011714D01*
X008091Y011890D01*
X007779Y011890D01*
X007779Y011935D02*
X008203Y011935D01*
X008190Y011837D02*
X008091Y011837D01*
X008091Y011738D02*
X008190Y011738D01*
X008060Y011640D02*
X008496Y011640D01*
X008496Y011738D02*
X008596Y011738D01*
X008596Y011837D02*
X008496Y011837D01*
X008496Y011935D02*
X008596Y011935D01*
X008596Y012034D02*
X008496Y012034D01*
X008496Y012132D02*
X008596Y012132D01*
X008496Y012231D02*
X008066Y012231D01*
X008089Y012329D02*
X008190Y012329D01*
X008190Y012272D02*
X008496Y012272D01*
X008496Y012585D01*
X008320Y012585D01*
X008282Y012574D01*
X008248Y012555D01*
X008220Y012527D01*
X008200Y012493D01*
X008190Y012454D01*
X008190Y012272D01*
X008190Y012132D02*
X008091Y012132D01*
X008091Y012034D02*
X008190Y012034D01*
X008496Y012329D02*
X008596Y012329D01*
X008596Y012428D02*
X008496Y012428D01*
X008496Y012526D02*
X008596Y012526D01*
X008219Y012526D02*
X008111Y012526D01*
X008111Y012428D02*
X008190Y012428D01*
X007779Y011738D02*
X007679Y011738D01*
X007679Y011640D02*
X007779Y011640D01*
X007397Y011640D02*
X006848Y011640D01*
X006848Y011738D02*
X006748Y011738D01*
X006748Y011837D02*
X006848Y011837D01*
X006848Y011935D02*
X006748Y011935D01*
X006748Y012034D02*
X006848Y012034D01*
X006848Y012132D02*
X006748Y012132D01*
X006848Y012231D02*
X007391Y012231D01*
X007366Y011837D02*
X007155Y011837D01*
X007155Y011738D02*
X007366Y011738D01*
X007155Y011541D02*
X008190Y011541D01*
X008190Y011443D02*
X007155Y011443D01*
X006869Y010825D02*
X006816Y010772D01*
X006769Y010659D01*
X006769Y010536D01*
X006816Y010422D01*
X006903Y010335D01*
X007017Y010288D01*
X007140Y010288D01*
X007253Y010335D01*
X007305Y010387D01*
X007592Y010387D01*
X007629Y010297D01*
X007716Y010210D01*
X007829Y010163D01*
X007952Y010163D01*
X008066Y010210D01*
X008153Y010297D01*
X008200Y010411D01*
X008200Y010450D01*
X010239Y010450D01*
X010232Y010443D01*
X010232Y010380D01*
X010112Y010380D01*
X010076Y010344D01*
X010017Y010344D01*
X009903Y010297D01*
X009816Y010210D01*
X009769Y010096D01*
X009769Y009992D01*
X008962Y009992D01*
X008863Y009951D01*
X008787Y009875D01*
X008787Y009875D01*
X008681Y009769D01*
X008629Y009820D01*
X008446Y009820D01*
X008446Y009868D01*
X008347Y009967D01*
X007773Y009967D01*
X007673Y009868D01*
X007673Y009333D01*
X007741Y009266D01*
X007673Y009198D01*
X007673Y008794D01*
X007635Y008778D01*
X007548Y008691D01*
X007501Y008577D01*
X007501Y008454D01*
X007548Y008341D01*
X007635Y008254D01*
X007748Y008207D01*
X007871Y008207D01*
X007985Y008254D01*
X008072Y008341D01*
X008072Y008342D01*
X008155Y008425D01*
X008246Y008516D01*
X008246Y008396D01*
X007850Y008000D01*
X007808Y007901D01*
X007808Y007827D01*
X007520Y007827D01*
X007530Y007865D01*
X007530Y008047D01*
X007223Y008047D01*
X007223Y008147D01*
X007530Y008147D01*
X007530Y008329D01*
X007519Y008368D01*
X007500Y008402D01*
X007472Y008430D01*
X007437Y008449D01*
X007399Y008460D01*
X007223Y008460D01*
X007223Y008147D01*
X007123Y008147D01*
X007123Y008329D01*
X007134Y008341D01*
X007181Y008454D01*
X007181Y008577D01*
X007134Y008691D01*
X007047Y008778D01*
X006934Y008825D01*
X006874Y008825D01*
X006855Y008844D01*
X006924Y008913D01*
X006924Y009467D01*
X006841Y009550D01*
X006846Y009552D01*
X006874Y009580D01*
X006893Y009614D01*
X006904Y009653D01*
X006904Y009829D01*
X006591Y009829D01*
X006591Y009929D01*
X006904Y009929D01*
X006904Y010105D01*
X006893Y010144D01*
X006874Y010178D01*
X006846Y010206D01*
X006812Y010226D01*
X006773Y010236D01*
X006591Y010236D01*
X006591Y009929D01*
X006491Y009929D01*
X006491Y010236D01*
X006309Y010236D01*
X006290Y010231D01*
X006290Y010455D01*
X006392Y010413D01*
X006515Y010413D01*
X006628Y010460D01*
X006715Y010547D01*
X006762Y010661D01*
X006762Y010734D01*
X006788Y010760D01*
X006853Y010825D01*
X006869Y010825D01*
X006809Y010753D02*
X006782Y010753D01*
X006788Y010760D02*
X006788Y010760D01*
X006769Y010655D02*
X006760Y010655D01*
X006769Y010556D02*
X006719Y010556D01*
X006802Y010458D02*
X006623Y010458D01*
X006879Y010359D02*
X006290Y010359D01*
X006290Y010261D02*
X007665Y010261D01*
X007603Y010359D02*
X007278Y010359D01*
X006883Y010162D02*
X009797Y010162D01*
X009769Y010064D02*
X006904Y010064D01*
X006904Y009965D02*
X007771Y009965D01*
X007673Y009867D02*
X006591Y009867D01*
X006591Y009965D02*
X006491Y009965D01*
X006491Y010064D02*
X006591Y010064D01*
X006591Y010162D02*
X006491Y010162D01*
X006904Y009768D02*
X007673Y009768D01*
X007673Y009670D02*
X006904Y009670D01*
X006865Y009571D02*
X007673Y009571D01*
X007673Y009473D02*
X006918Y009473D01*
X006924Y009374D02*
X007673Y009374D01*
X007731Y009276D02*
X006924Y009276D01*
X006924Y009177D02*
X007673Y009177D01*
X007673Y009079D02*
X006924Y009079D01*
X006924Y008980D02*
X007673Y008980D01*
X007673Y008882D02*
X006893Y008882D01*
X007034Y008783D02*
X007648Y008783D01*
X007545Y008685D02*
X007137Y008685D01*
X007178Y008586D02*
X007504Y008586D01*
X007501Y008488D02*
X007181Y008488D01*
X007154Y008389D02*
X007223Y008389D01*
X007223Y008291D02*
X007123Y008291D01*
X007123Y008192D02*
X007223Y008192D01*
X007223Y008094D02*
X007943Y008094D01*
X007848Y007995D02*
X007530Y007995D01*
X007530Y007897D02*
X007808Y007897D01*
X008042Y008192D02*
X007530Y008192D01*
X007530Y008291D02*
X007598Y008291D01*
X007528Y008389D02*
X007507Y008389D01*
X007810Y008516D02*
X007935Y008516D01*
X008060Y008641D01*
X008060Y008931D01*
X008218Y008488D02*
X008246Y008488D01*
X008239Y008389D02*
X008119Y008389D01*
X008140Y008291D02*
X008022Y008291D01*
X007610Y007306D02*
X006982Y007306D01*
X007023Y007207D02*
X007608Y007207D01*
X007608Y007109D02*
X007049Y007109D01*
X007049Y007010D02*
X007608Y007010D01*
X007608Y006912D02*
X007049Y006912D01*
X007024Y006813D02*
X007608Y006813D01*
X007608Y006715D02*
X006983Y006715D01*
X006939Y006616D02*
X007608Y006616D01*
X007608Y006518D02*
X006840Y006518D01*
X006726Y006419D02*
X007648Y006419D01*
X007702Y006321D02*
X005435Y006321D01*
X005435Y006419D02*
X006005Y006419D01*
X005891Y006518D02*
X005435Y006518D01*
X005435Y006616D02*
X005793Y006616D01*
X005748Y006715D02*
X005435Y006715D01*
X005435Y006813D02*
X005708Y006813D01*
X005683Y006912D02*
X005435Y006912D01*
X005435Y007010D02*
X005683Y007010D01*
X005683Y007109D02*
X005435Y007109D01*
X005435Y007207D02*
X005708Y007207D01*
X005749Y007306D02*
X005435Y007306D01*
X005435Y007404D02*
X005795Y007404D01*
X005893Y007503D02*
X005435Y007503D01*
X005435Y007601D02*
X006010Y007601D01*
X005866Y007798D02*
X005435Y007798D01*
X005435Y007700D02*
X006556Y007700D01*
X006453Y008128D02*
X006453Y008535D01*
X006560Y008828D02*
X006872Y008516D01*
X006560Y008828D02*
X006560Y009171D01*
X005830Y009177D02*
X005435Y009177D01*
X005435Y009079D02*
X005830Y009079D01*
X005830Y008980D02*
X005435Y008980D01*
X005435Y008882D02*
X005830Y008882D01*
X005830Y008783D02*
X005435Y008783D01*
X005435Y008685D02*
X005830Y008685D01*
X005830Y008586D02*
X005435Y008586D01*
X005435Y008488D02*
X005830Y008488D01*
X005850Y008389D02*
X005435Y008389D01*
X005435Y008291D02*
X005773Y008291D01*
X005710Y008192D02*
X005435Y008192D01*
X005435Y008094D02*
X005688Y008094D01*
X005697Y007995D02*
X005435Y007995D01*
X005435Y007897D02*
X005742Y007897D01*
X005830Y009276D02*
X005435Y009276D01*
X005435Y009374D02*
X005830Y009374D01*
X005830Y009473D02*
X005435Y009473D01*
X005435Y009571D02*
X005830Y009571D01*
X005830Y009670D02*
X005435Y009670D01*
X005435Y009768D02*
X005830Y009768D01*
X005830Y009867D02*
X005435Y009867D01*
X005435Y009965D02*
X005830Y009965D01*
X005830Y010064D02*
X005435Y010064D01*
X005435Y010162D02*
X005830Y010162D01*
X005830Y010261D02*
X005435Y010261D01*
X005435Y010359D02*
X005830Y010359D01*
X005830Y010458D02*
X005435Y010458D01*
X005435Y010556D02*
X005830Y010556D01*
X005830Y010655D02*
X005435Y010655D01*
X005435Y010753D02*
X005830Y010753D01*
X005830Y010852D02*
X005435Y010852D01*
X005435Y010950D02*
X005830Y010950D01*
X005830Y011049D02*
X005435Y011049D01*
X005435Y011147D02*
X005830Y011147D01*
X005830Y011246D02*
X005435Y011246D01*
X005435Y011344D02*
X005764Y011344D01*
X005732Y011443D02*
X005435Y011443D01*
X005435Y011541D02*
X005732Y011541D01*
X005732Y011640D02*
X005435Y011640D01*
X005435Y011738D02*
X005732Y011738D01*
X005732Y011837D02*
X005435Y011837D01*
X005435Y011935D02*
X005732Y011935D01*
X005732Y012034D02*
X005435Y012034D01*
X005435Y012132D02*
X005732Y012132D01*
X005732Y012231D02*
X005435Y012231D01*
X005435Y012329D02*
X005732Y012329D01*
X005732Y012428D02*
X005435Y012428D01*
X005435Y012526D02*
X005754Y012526D01*
X005722Y012625D02*
X005435Y012625D01*
X005435Y012723D02*
X005707Y012723D01*
X005723Y012822D02*
X005435Y012822D01*
X005435Y012920D02*
X005777Y012920D01*
X005925Y013019D02*
X005435Y013019D01*
X005435Y013117D02*
X005982Y013117D01*
X005982Y013216D02*
X005435Y013216D01*
X005435Y013314D02*
X005982Y013314D01*
X005982Y013413D02*
X005435Y013413D01*
X005435Y013511D02*
X005982Y013511D01*
X005999Y013610D02*
X005435Y013610D01*
X005435Y013708D02*
X006149Y013708D01*
X006241Y013807D02*
X005435Y013807D01*
X005435Y013905D02*
X006340Y013905D01*
X006736Y014004D02*
X005435Y014004D01*
X006464Y012526D02*
X006471Y012526D01*
X006748Y012526D02*
X006848Y012526D01*
X006848Y012428D02*
X006748Y012428D01*
X006748Y012329D02*
X006848Y012329D01*
X007244Y013708D02*
X007315Y013708D01*
X007244Y013807D02*
X007455Y013807D01*
X009235Y012222D02*
X009254Y012203D01*
X009622Y012203D01*
X009810Y012016D01*
X009747Y011578D02*
X009317Y011578D01*
X009235Y011660D01*
X009640Y012920D02*
X009693Y012920D01*
X010650Y014004D02*
X010875Y014004D01*
X010776Y014102D02*
X010748Y014102D01*
X013223Y013610D02*
X013253Y013640D01*
X013757Y013640D01*
X013856Y013681D01*
X013918Y013742D01*
X013876Y013640D01*
X013884Y013708D02*
X013904Y013708D01*
X013878Y013511D02*
X013223Y013511D01*
X013223Y013413D02*
X013919Y013413D01*
X014014Y013314D02*
X013223Y013314D01*
X013403Y013216D02*
X013503Y013216D01*
X013503Y013236D02*
X013503Y012929D01*
X013816Y012929D01*
X013816Y013105D01*
X013806Y013144D01*
X013786Y013178D01*
X013758Y013206D01*
X013724Y013226D01*
X013686Y013236D01*
X013503Y013236D01*
X013503Y013117D02*
X013403Y013117D01*
X013403Y013019D02*
X013503Y013019D01*
X013503Y012920D02*
X014652Y012920D01*
X014561Y012822D02*
X013816Y012822D01*
X013816Y012723D02*
X014520Y012723D01*
X014468Y012625D02*
X013809Y012625D01*
X013777Y012526D02*
X014370Y012526D01*
X014271Y012428D02*
X013836Y012428D01*
X013816Y013019D02*
X015271Y013019D01*
X015228Y013117D02*
X013813Y013117D01*
X013741Y013216D02*
X015228Y013216D01*
X015228Y013314D02*
X014355Y013314D01*
X014451Y013413D02*
X015228Y013413D01*
X015228Y013511D02*
X014491Y013511D01*
X014494Y013610D02*
X015228Y013610D01*
X015228Y013708D02*
X014465Y013708D01*
X017043Y011640D02*
X017449Y011640D01*
X017458Y011649D02*
X016804Y010995D01*
X016618Y010995D01*
X016566Y011047D01*
X016484Y011081D01*
X017084Y011681D01*
X017209Y011681D01*
X017623Y012095D01*
X017669Y012095D01*
X017669Y012077D01*
X017691Y012055D01*
X017689Y012049D01*
X017689Y011900D01*
X018106Y011900D01*
X018106Y011843D01*
X017689Y011843D01*
X017689Y011694D01*
X017691Y011688D01*
X017669Y011666D01*
X017669Y011649D01*
X017458Y011649D01*
X017351Y011541D02*
X016945Y011541D01*
X016846Y011443D02*
X017252Y011443D01*
X017154Y011344D02*
X016748Y011344D01*
X016649Y011246D02*
X017055Y011246D01*
X016957Y011147D02*
X016551Y011147D01*
X016560Y011049D02*
X016858Y011049D01*
X017267Y011738D02*
X017689Y011738D01*
X017689Y011837D02*
X017365Y011837D01*
X017464Y011935D02*
X017689Y011935D01*
X017689Y012034D02*
X017562Y012034D01*
X017362Y012428D02*
X017327Y012428D01*
X018163Y011900D02*
X018580Y011900D01*
X018580Y012049D01*
X018578Y012055D01*
X018600Y012077D01*
X018600Y012431D01*
X018615Y012394D01*
X018735Y012274D01*
X018892Y012209D01*
X019062Y012209D01*
X019219Y012274D01*
X019339Y012394D01*
X019404Y012551D01*
X019404Y012721D01*
X019339Y012878D01*
X019256Y012961D01*
X019524Y012961D01*
X019602Y013040D01*
X019602Y009940D01*
X018948Y009286D01*
X017859Y009286D01*
X017705Y009440D01*
X017705Y009443D01*
X017769Y009379D01*
X018500Y009379D01*
X018600Y009478D01*
X018600Y011053D01*
X018615Y011016D01*
X018735Y010896D01*
X018892Y010831D01*
X019062Y010831D01*
X019219Y010896D01*
X019339Y011016D01*
X019404Y011173D01*
X019404Y011343D01*
X019339Y011500D01*
X019219Y011620D01*
X019062Y011685D01*
X018892Y011685D01*
X018735Y011620D01*
X018615Y011500D01*
X018600Y011463D01*
X018600Y011666D01*
X018578Y011688D01*
X018580Y011694D01*
X018580Y011843D01*
X018163Y011843D01*
X018163Y011900D01*
X018580Y011935D02*
X019602Y011935D01*
X019602Y011837D02*
X018580Y011837D01*
X018580Y011738D02*
X019602Y011738D01*
X019602Y011640D02*
X019172Y011640D01*
X019298Y011541D02*
X019602Y011541D01*
X019602Y011443D02*
X019363Y011443D01*
X019404Y011344D02*
X019602Y011344D01*
X019602Y011246D02*
X019404Y011246D01*
X019394Y011147D02*
X019602Y011147D01*
X019602Y011049D02*
X019353Y011049D01*
X019274Y010950D02*
X019602Y010950D01*
X019602Y010852D02*
X019113Y010852D01*
X018842Y010852D02*
X018600Y010852D01*
X018600Y010950D02*
X018681Y010950D01*
X018600Y011049D02*
X018601Y011049D01*
X018600Y010753D02*
X019602Y010753D01*
X019602Y010655D02*
X018600Y010655D01*
X018600Y010556D02*
X019602Y010556D01*
X019602Y010458D02*
X018600Y010458D01*
X018600Y010359D02*
X019602Y010359D01*
X019602Y010261D02*
X018600Y010261D01*
X018600Y010162D02*
X019602Y010162D01*
X019602Y010064D02*
X018600Y010064D01*
X018600Y009965D02*
X019602Y009965D01*
X019529Y009867D02*
X018600Y009867D01*
X018600Y009768D02*
X019430Y009768D01*
X019332Y009670D02*
X018600Y009670D01*
X018600Y009571D02*
X019233Y009571D01*
X019135Y009473D02*
X018594Y009473D01*
X019036Y009374D02*
X017771Y009374D01*
X016934Y008389D02*
X016892Y008389D01*
X017091Y006715D02*
X017191Y006715D01*
X017191Y006616D02*
X017091Y006616D01*
X013899Y006715D02*
X013508Y006715D01*
X013597Y006813D02*
X013810Y006813D01*
X013769Y006912D02*
X013637Y006912D01*
X013637Y007010D02*
X013769Y007010D01*
X013693Y007109D02*
X013606Y007109D01*
X013594Y007207D02*
X013548Y007207D01*
X013108Y007306D02*
X012986Y007306D01*
X012986Y007404D02*
X013108Y007404D01*
X013108Y007503D02*
X012986Y007503D01*
X012986Y007601D02*
X013108Y007601D01*
X013108Y007700D02*
X012986Y007700D01*
X012986Y007798D02*
X013066Y007798D01*
X011223Y008389D02*
X011137Y008389D01*
X010628Y006813D02*
X010548Y006813D01*
X010548Y006715D02*
X010628Y006715D01*
X010628Y006616D02*
X010548Y006616D01*
X010548Y006518D02*
X010637Y006518D01*
X010670Y006419D02*
X010508Y006419D01*
X010454Y006321D02*
X010732Y006321D01*
X010847Y006222D02*
X010356Y006222D01*
X007801Y006222D02*
X005435Y006222D01*
X008716Y009422D02*
X008538Y009600D01*
X008060Y009600D01*
X008349Y009965D02*
X008898Y009965D01*
X008779Y009867D02*
X008446Y009867D01*
X008117Y010261D02*
X009868Y010261D01*
X010092Y010359D02*
X008179Y010359D01*
X010078Y010035D02*
X010203Y010160D01*
X010609Y010160D01*
X011348Y010162D02*
X011904Y010162D01*
X012002Y010064D02*
X011655Y010064D01*
X011844Y009965D02*
X012101Y009965D01*
X011805Y010261D02*
X011655Y010261D01*
X013037Y011049D02*
X013582Y011049D01*
X018600Y011541D02*
X018656Y011541D01*
X018600Y011640D02*
X018783Y011640D01*
X018580Y012034D02*
X019602Y012034D01*
X019602Y012132D02*
X018600Y012132D01*
X018600Y012231D02*
X018839Y012231D01*
X018680Y012329D02*
X018600Y012329D01*
X018600Y012428D02*
X018601Y012428D01*
X019115Y012231D02*
X019602Y012231D01*
X019602Y012329D02*
X019275Y012329D01*
X019353Y012428D02*
X019602Y012428D01*
X019602Y012526D02*
X019394Y012526D01*
X019404Y012625D02*
X019602Y012625D01*
X019602Y012723D02*
X019403Y012723D01*
X019363Y012822D02*
X019602Y012822D01*
X019602Y012920D02*
X019297Y012920D01*
X019581Y013019D02*
X019602Y013019D01*
D18*
X017328Y014285D03*
X016328Y014222D03*
X017266Y013035D03*
X017060Y012266D03*
X016828Y011222D03*
X016391Y010785D03*
X015766Y010785D03*
X015622Y011141D03*
X015703Y010097D03*
X016328Y009722D03*
X017435Y009703D03*
X017435Y010078D03*
X019078Y009785D03*
X019828Y008972D03*
X018141Y007847D03*
X017122Y008141D03*
X016266Y007847D03*
X016391Y006660D03*
X018641Y006660D03*
X014641Y008410D03*
X013974Y007899D03*
X014078Y006972D03*
X013328Y006972D03*
X012391Y006660D03*
X012328Y007535D03*
X011953Y007722D03*
X010828Y008347D03*
X011516Y009285D03*
X011891Y010035D03*
X012266Y010472D03*
X012203Y010847D03*
X011891Y011160D03*
X012578Y011597D03*
X012328Y011847D03*
X012016Y012097D03*
X011641Y011847D03*
X011766Y012347D03*
X010141Y013472D03*
X009953Y013097D03*
X009953Y012722D03*
X009810Y012016D03*
X009747Y011578D03*
X007891Y010472D03*
X007641Y010722D03*
X007078Y010597D03*
X006453Y010722D03*
X006391Y011097D03*
X005641Y010847D03*
X006016Y012722D03*
X006935Y013766D03*
X007560Y013516D03*
X007828Y013222D03*
X008747Y013203D03*
X012641Y010160D03*
X013391Y010910D03*
X013641Y010222D03*
X014453Y009722D03*
X014828Y012660D03*
X015891Y012535D03*
X014185Y013578D03*
X010078Y010035D03*
X009266Y009285D03*
X009078Y008972D03*
X009641Y008160D03*
X007810Y008516D03*
X007391Y008535D03*
X006872Y008516D03*
X006453Y008535D03*
X005997Y008078D03*
X007266Y006910D03*
X008266Y010035D03*
D19*
X007891Y010472D02*
X008078Y010660D01*
X011453Y010660D01*
X011641Y010472D01*
X011891Y010472D01*
X012203Y010160D01*
X012641Y010160D01*
X012266Y010472D02*
X012203Y010535D01*
X012078Y010535D01*
X011953Y010660D01*
X011703Y010660D01*
X011516Y010847D01*
X007766Y010847D01*
X007641Y010722D01*
X007516Y010597D01*
X007078Y010597D01*
X006766Y011035D02*
X006453Y010722D01*
X006578Y010847D01*
X006766Y011035D02*
X011578Y011035D01*
X011766Y010847D01*
X012203Y010847D01*
X011891Y011160D02*
X011703Y011160D01*
X011641Y011222D01*
X006516Y011222D01*
X006391Y011097D01*
X007729Y012629D02*
X007729Y013122D01*
X007828Y013222D01*
X007560Y013516D02*
X007372Y013328D01*
X007067Y013328D01*
X007048Y013310D01*
X006935Y013766D02*
X006497Y013766D01*
X006359Y013628D01*
X006359Y013310D01*
X008747Y013203D02*
X008747Y013016D01*
X008997Y012766D01*
X009497Y012766D01*
X010122Y012141D01*
X010122Y011953D01*
X010185Y011891D01*
X010465Y011891D01*
X010484Y011910D01*
X011766Y012347D02*
X011766Y013597D01*
X011578Y013785D01*
X009391Y013785D01*
X008953Y014222D01*
X008953Y014972D01*
X008453Y015472D01*
X009453Y015472D02*
X009953Y014972D01*
X010641Y014972D01*
X010953Y014660D01*
X010953Y014222D01*
X011203Y013972D01*
X011703Y013972D01*
X012016Y013660D01*
X012016Y012097D01*
X012328Y011847D02*
X012328Y013847D01*
X011953Y014222D01*
X011953Y014722D01*
X011703Y014972D01*
X011141Y014972D01*
X010953Y015160D01*
X010953Y015347D01*
X010828Y015472D01*
X010453Y015472D01*
X011453Y015472D02*
X011828Y015472D01*
X011953Y015347D01*
X011953Y015222D01*
X012203Y014972D01*
X012766Y014972D01*
X012953Y014785D01*
X012953Y014222D01*
X012578Y013847D01*
X012578Y011597D01*
X014185Y013578D02*
X014185Y013828D01*
X013903Y014110D01*
X016997Y011891D02*
X017122Y011891D01*
X017536Y012305D01*
X018135Y012305D01*
X017060Y012266D02*
X015935Y011141D01*
X015622Y011141D01*
X015935Y010953D02*
X015766Y010785D01*
X015935Y010953D02*
X016060Y010953D01*
X016997Y011891D01*
X017545Y011439D02*
X016891Y010785D01*
X016391Y010785D01*
X016935Y010516D02*
X015747Y010516D01*
X015372Y010141D01*
X015372Y008972D01*
X016328Y009722D02*
X016685Y010078D01*
X017060Y010078D01*
X017372Y010391D01*
X017497Y010391D01*
X017747Y010141D01*
X018133Y010141D01*
X018135Y010139D01*
X018008Y010078D01*
X017967Y010035D02*
X018135Y010139D01*
X018135Y010572D02*
X017241Y010572D01*
X016953Y010285D01*
X015891Y010285D01*
X015703Y010097D01*
X016935Y010516D02*
X017424Y011006D01*
X018135Y011006D01*
X018135Y011439D02*
X017545Y011439D01*
X012328Y007847D02*
X012328Y007535D01*
X012328Y007847D02*
X012078Y008097D01*
X010453Y008097D01*
X009891Y008660D01*
X009891Y009160D01*
X009766Y009285D01*
X009266Y009285D01*
X009078Y008972D02*
X009578Y008972D01*
X009703Y008847D01*
X009703Y008597D01*
X010391Y007910D01*
X011766Y007910D01*
X011953Y007722D01*
X006060Y008141D02*
X005997Y008078D01*
X006060Y008141D02*
X006060Y008641D01*
D20*
X006060Y008521D01*
X006484Y008097D01*
X006453Y008128D01*
X006484Y008097D02*
X006984Y007597D01*
X008078Y007597D01*
X006560Y009171D02*
X006541Y009190D01*
X006060Y008641D02*
X006060Y011660D01*
X006109Y011660D01*
X006109Y012222D01*
X006109Y012629D01*
X006016Y012722D01*
X009953Y012722D02*
X010203Y012472D01*
X010484Y012472D01*
X010578Y013003D02*
X010484Y013035D01*
X010453Y013035D01*
X010328Y013097D01*
X009953Y013097D01*
X012953Y012160D02*
X012985Y012192D01*
X013453Y012190D01*
X014360Y012192D01*
X014828Y012660D01*
X010609Y010160D02*
X010609Y009690D01*
X010391Y009722D01*
X010296Y009722D02*
X010296Y009285D01*
X013974Y007899D02*
X013974Y007577D01*
X014516Y007035D01*
X014984Y007035D01*
D21*
X014984Y007597D02*
X014984Y008878D01*
X015078Y008972D01*
X015372Y008972D02*
X016416Y008972D01*
X016622Y008766D01*
X016622Y007703D01*
X016747Y007578D01*
X017129Y007578D01*
X017141Y007567D01*
X017129Y007578D02*
X017122Y007585D01*
X017122Y008141D01*
X017747Y009016D02*
X017435Y009328D01*
X017435Y009703D01*
X017435Y010078D01*
X017747Y009016D02*
X019060Y009016D01*
X019872Y009828D01*
X019872Y013703D01*
X019310Y014266D01*
X017766Y015410D02*
X017747Y015428D01*
X017747Y016078D01*
X017622Y016203D01*
X014372Y016203D01*
X014060Y015891D01*
X014060Y015453D01*
X014041Y015472D01*
X013453Y015472D01*
X014060Y015453D02*
X014060Y014266D01*
X013903Y014110D01*
X013703Y013910D01*
X013141Y013910D01*
X012953Y013722D01*
X012953Y012160D01*
X012953Y011347D01*
X012972Y011328D01*
X013685Y011328D01*
X014060Y010953D01*
X014060Y009369D01*
X014457Y008972D01*
X014516Y008972D01*
X015372Y008972D01*
X014060Y009369D02*
X013453Y009369D01*
X012766Y009369D01*
X012078Y009369D01*
X011726Y009722D01*
X010391Y009722D01*
X010296Y009722D01*
X009016Y009722D01*
X008716Y009422D01*
X008516Y009222D01*
X008516Y008285D01*
X008078Y007847D01*
X008078Y007597D01*
X008078Y006910D01*
X012391Y011222D02*
X012828Y011222D01*
X012953Y011347D01*
X012391Y011222D02*
X012141Y011472D01*
X010641Y011472D01*
X010516Y011597D01*
X010516Y011940D01*
X010484Y011910D02*
X010484Y012472D01*
X010484Y013035D01*
D22*
X010516Y011940D02*
X010484Y011910D01*
D23*
X019310Y014266D03*
M02*
