G75*
%MOIN*%
%OFA0B0*%
%FSLAX24Y24*%
%IPPOS*%
%LPD*%
%AMOC8*
5,1,8,0,0,1.08239X$1,22.5*
%
%ADD10C,0.0946*%
%ADD11R,0.0505X0.0493*%
%ADD12R,0.0493X0.0505*%
%ADD13C,0.0434*%
%ADD14C,0.0680*%
%ADD15R,0.0867X0.0671*%
%ADD16R,0.0671X0.0395*%
%ADD17OC8,0.0680*%
%ADD18R,0.0513X0.0474*%
%ADD19C,0.0358*%
%ADD20C,0.0476*%
D10*
X006366Y007009D03*
X006366Y015277D03*
X019752Y015277D03*
X019752Y007009D03*
D11*
X017141Y006878D03*
X017141Y007567D03*
X013453Y012190D03*
X013453Y012879D03*
X007729Y012629D03*
X007729Y011940D03*
X006541Y009879D03*
X006541Y009190D03*
D12*
X006484Y008097D03*
X007173Y008097D03*
X010296Y009285D03*
X010484Y008722D03*
X011173Y008722D03*
X010985Y009285D03*
X011298Y010160D03*
X010609Y010160D03*
X009235Y011660D03*
X009235Y012222D03*
X008546Y012222D03*
X008546Y011660D03*
X006798Y011660D03*
X006798Y012222D03*
X006109Y012222D03*
X006109Y011660D03*
X006359Y013310D03*
X007048Y013310D03*
X010484Y013035D03*
X011173Y013035D03*
X011173Y012472D03*
X011173Y011910D03*
X010484Y011910D03*
X010484Y012472D03*
X014984Y007597D03*
X014984Y007035D03*
X015673Y007035D03*
X015673Y007597D03*
D13*
X018977Y011258D03*
X018977Y012636D03*
D14*
X008078Y007210D02*
X008078Y006610D01*
X009078Y006610D02*
X009078Y007210D01*
X010078Y007210D02*
X010078Y006610D01*
X011078Y006610D02*
X011078Y007210D01*
X014766Y015110D02*
X014766Y015710D01*
X015766Y015710D02*
X015766Y015110D01*
X016766Y015110D02*
X016766Y015710D01*
X017766Y015710D02*
X017766Y015110D01*
D15*
X019060Y013427D03*
X015792Y013427D03*
X015792Y008407D03*
X019060Y008407D03*
D16*
X018135Y009706D03*
X018135Y010139D03*
X018135Y010572D03*
X018135Y011006D03*
X018135Y011439D03*
X018135Y011872D03*
X018135Y012305D03*
X018135Y012738D03*
D17*
X013453Y014472D03*
X012453Y014472D03*
X011453Y014472D03*
X010453Y014472D03*
X009453Y014472D03*
X008453Y014472D03*
X008453Y015472D03*
X009453Y015472D03*
X010453Y015472D03*
X011453Y015472D03*
X012453Y015472D03*
X013453Y015472D03*
D18*
X008060Y009600D03*
X008060Y008931D03*
X012078Y008700D03*
X012078Y009369D03*
X012766Y009369D03*
X012766Y008700D03*
X013453Y008700D03*
X013453Y009369D03*
D19*
X011953Y007722D03*
X012328Y007535D03*
X009266Y009285D03*
X009078Y008972D03*
X007891Y010472D03*
X007641Y010722D03*
X007078Y010597D03*
X006453Y010722D03*
X006391Y011097D03*
X009747Y011578D03*
X009810Y012016D03*
D20*
X019310Y014266D03*
M02*
