%
M48
M72
T01C0.0118
T02C0.0236
T03C0.0354
T04C0.0400
T05C0.0866
%
T01
X7266Y6910
X5997Y8078
X6453Y8535
X6872Y8516
X7391Y8535
X7810Y8516
X9078Y8972
X9266Y9285
X10078Y10035
X11516Y9285
X11891Y10035
X12266Y10472
X12203Y10847
X11891Y11160
X12578Y11597
X12328Y11847
X12016Y12097
X11641Y11847
X11766Y12347
X10141Y13472
X9953Y13097
X9953Y12722
X9810Y12016
X9747Y11578
X7891Y10472
X7641Y10722
X7078Y10597
X6453Y10722
X6391Y11097
X5641Y10847
X6016Y12722
X6935Y13766
X7560Y13516
X7828Y13222
X8747Y13203
X12641Y10160
X13391Y10910
X13641Y10222
X14453Y9722
X15703Y10097
X16328Y9722
X17435Y9703
X17435Y10078
X16391Y10785
X16828Y11222
X15766Y10785
X15622Y11141
X17060Y12266
X17266Y13035
X15891Y12535
X14828Y12660
X14185Y13578
X16328Y14222
X17328Y14285
X19078Y9785
X19828Y8972
X18141Y7847
X17122Y8141
X16266Y7847
X16391Y6660
X18641Y6660
X14641Y8410
X13974Y7899
X14078Y6972
X13328Y6972
X12391Y6660
X12328Y7535
X11953Y7722
X10828Y8347
X9641Y8160
X8266Y10035
T02
X19310Y14266
T03
X18977Y12636
X18977Y11258
T04
X17766Y15410
X16766Y15410
X15766Y15410
X14766Y15410
X13453Y15472
X12453Y15472
X11453Y15472
X10453Y15472
X9453Y15472
X8453Y15472
X8453Y14472
X9453Y14472
X10453Y14472
X11453Y14472
X12453Y14472
X13453Y14472
X11078Y6910
X10078Y6910
X9078Y6910
X8078Y6910
T05
X6366Y7009
X6366Y15277
X19752Y15277
X19752Y7009
M30
