G75*
%MOIN*%
%OFA0B0*%
%FSLAX24Y24*%
%IPPOS*%
%LPD*%
%AMOC8*
5,1,8,0,0,1.08239X$1,22.5*
%
%ADD10C,0.0000*%
D10*
X005185Y005828D02*
X005185Y016487D01*
X020939Y016487D01*
X020939Y005828D01*
X005185Y005828D01*
X005933Y007009D02*
X005935Y007050D01*
X005941Y007091D01*
X005951Y007131D01*
X005964Y007170D01*
X005981Y007207D01*
X006002Y007243D01*
X006026Y007277D01*
X006053Y007308D01*
X006082Y007336D01*
X006115Y007362D01*
X006149Y007384D01*
X006186Y007403D01*
X006224Y007418D01*
X006264Y007430D01*
X006304Y007438D01*
X006345Y007442D01*
X006387Y007442D01*
X006428Y007438D01*
X006468Y007430D01*
X006508Y007418D01*
X006546Y007403D01*
X006582Y007384D01*
X006617Y007362D01*
X006650Y007336D01*
X006679Y007308D01*
X006706Y007277D01*
X006730Y007243D01*
X006751Y007207D01*
X006768Y007170D01*
X006781Y007131D01*
X006791Y007091D01*
X006797Y007050D01*
X006799Y007009D01*
X006797Y006968D01*
X006791Y006927D01*
X006781Y006887D01*
X006768Y006848D01*
X006751Y006811D01*
X006730Y006775D01*
X006706Y006741D01*
X006679Y006710D01*
X006650Y006682D01*
X006617Y006656D01*
X006583Y006634D01*
X006546Y006615D01*
X006508Y006600D01*
X006468Y006588D01*
X006428Y006580D01*
X006387Y006576D01*
X006345Y006576D01*
X006304Y006580D01*
X006264Y006588D01*
X006224Y006600D01*
X006186Y006615D01*
X006150Y006634D01*
X006115Y006656D01*
X006082Y006682D01*
X006053Y006710D01*
X006026Y006741D01*
X006002Y006775D01*
X005981Y006811D01*
X005964Y006848D01*
X005951Y006887D01*
X005941Y006927D01*
X005935Y006968D01*
X005933Y007009D01*
X005933Y015277D02*
X005935Y015318D01*
X005941Y015359D01*
X005951Y015399D01*
X005964Y015438D01*
X005981Y015475D01*
X006002Y015511D01*
X006026Y015545D01*
X006053Y015576D01*
X006082Y015604D01*
X006115Y015630D01*
X006149Y015652D01*
X006186Y015671D01*
X006224Y015686D01*
X006264Y015698D01*
X006304Y015706D01*
X006345Y015710D01*
X006387Y015710D01*
X006428Y015706D01*
X006468Y015698D01*
X006508Y015686D01*
X006546Y015671D01*
X006582Y015652D01*
X006617Y015630D01*
X006650Y015604D01*
X006679Y015576D01*
X006706Y015545D01*
X006730Y015511D01*
X006751Y015475D01*
X006768Y015438D01*
X006781Y015399D01*
X006791Y015359D01*
X006797Y015318D01*
X006799Y015277D01*
X006797Y015236D01*
X006791Y015195D01*
X006781Y015155D01*
X006768Y015116D01*
X006751Y015079D01*
X006730Y015043D01*
X006706Y015009D01*
X006679Y014978D01*
X006650Y014950D01*
X006617Y014924D01*
X006583Y014902D01*
X006546Y014883D01*
X006508Y014868D01*
X006468Y014856D01*
X006428Y014848D01*
X006387Y014844D01*
X006345Y014844D01*
X006304Y014848D01*
X006264Y014856D01*
X006224Y014868D01*
X006186Y014883D01*
X006150Y014902D01*
X006115Y014924D01*
X006082Y014950D01*
X006053Y014978D01*
X006026Y015009D01*
X006002Y015043D01*
X005981Y015079D01*
X005964Y015116D01*
X005951Y015155D01*
X005941Y015195D01*
X005935Y015236D01*
X005933Y015277D01*
X018800Y012636D02*
X018802Y012662D01*
X018808Y012688D01*
X018818Y012713D01*
X018831Y012736D01*
X018847Y012756D01*
X018867Y012774D01*
X018889Y012789D01*
X018912Y012801D01*
X018938Y012809D01*
X018964Y012813D01*
X018990Y012813D01*
X019016Y012809D01*
X019042Y012801D01*
X019066Y012789D01*
X019087Y012774D01*
X019107Y012756D01*
X019123Y012736D01*
X019136Y012713D01*
X019146Y012688D01*
X019152Y012662D01*
X019154Y012636D01*
X019152Y012610D01*
X019146Y012584D01*
X019136Y012559D01*
X019123Y012536D01*
X019107Y012516D01*
X019087Y012498D01*
X019065Y012483D01*
X019042Y012471D01*
X019016Y012463D01*
X018990Y012459D01*
X018964Y012459D01*
X018938Y012463D01*
X018912Y012471D01*
X018888Y012483D01*
X018867Y012498D01*
X018847Y012516D01*
X018831Y012536D01*
X018818Y012559D01*
X018808Y012584D01*
X018802Y012610D01*
X018800Y012636D01*
X018800Y011258D02*
X018802Y011284D01*
X018808Y011310D01*
X018818Y011335D01*
X018831Y011358D01*
X018847Y011378D01*
X018867Y011396D01*
X018889Y011411D01*
X018912Y011423D01*
X018938Y011431D01*
X018964Y011435D01*
X018990Y011435D01*
X019016Y011431D01*
X019042Y011423D01*
X019066Y011411D01*
X019087Y011396D01*
X019107Y011378D01*
X019123Y011358D01*
X019136Y011335D01*
X019146Y011310D01*
X019152Y011284D01*
X019154Y011258D01*
X019152Y011232D01*
X019146Y011206D01*
X019136Y011181D01*
X019123Y011158D01*
X019107Y011138D01*
X019087Y011120D01*
X019065Y011105D01*
X019042Y011093D01*
X019016Y011085D01*
X018990Y011081D01*
X018964Y011081D01*
X018938Y011085D01*
X018912Y011093D01*
X018888Y011105D01*
X018867Y011120D01*
X018847Y011138D01*
X018831Y011158D01*
X018818Y011181D01*
X018808Y011206D01*
X018802Y011232D01*
X018800Y011258D01*
X019319Y015277D02*
X019321Y015318D01*
X019327Y015359D01*
X019337Y015399D01*
X019350Y015438D01*
X019367Y015475D01*
X019388Y015511D01*
X019412Y015545D01*
X019439Y015576D01*
X019468Y015604D01*
X019501Y015630D01*
X019535Y015652D01*
X019572Y015671D01*
X019610Y015686D01*
X019650Y015698D01*
X019690Y015706D01*
X019731Y015710D01*
X019773Y015710D01*
X019814Y015706D01*
X019854Y015698D01*
X019894Y015686D01*
X019932Y015671D01*
X019968Y015652D01*
X020003Y015630D01*
X020036Y015604D01*
X020065Y015576D01*
X020092Y015545D01*
X020116Y015511D01*
X020137Y015475D01*
X020154Y015438D01*
X020167Y015399D01*
X020177Y015359D01*
X020183Y015318D01*
X020185Y015277D01*
X020183Y015236D01*
X020177Y015195D01*
X020167Y015155D01*
X020154Y015116D01*
X020137Y015079D01*
X020116Y015043D01*
X020092Y015009D01*
X020065Y014978D01*
X020036Y014950D01*
X020003Y014924D01*
X019969Y014902D01*
X019932Y014883D01*
X019894Y014868D01*
X019854Y014856D01*
X019814Y014848D01*
X019773Y014844D01*
X019731Y014844D01*
X019690Y014848D01*
X019650Y014856D01*
X019610Y014868D01*
X019572Y014883D01*
X019536Y014902D01*
X019501Y014924D01*
X019468Y014950D01*
X019439Y014978D01*
X019412Y015009D01*
X019388Y015043D01*
X019367Y015079D01*
X019350Y015116D01*
X019337Y015155D01*
X019327Y015195D01*
X019321Y015236D01*
X019319Y015277D01*
X019319Y007009D02*
X019321Y007050D01*
X019327Y007091D01*
X019337Y007131D01*
X019350Y007170D01*
X019367Y007207D01*
X019388Y007243D01*
X019412Y007277D01*
X019439Y007308D01*
X019468Y007336D01*
X019501Y007362D01*
X019535Y007384D01*
X019572Y007403D01*
X019610Y007418D01*
X019650Y007430D01*
X019690Y007438D01*
X019731Y007442D01*
X019773Y007442D01*
X019814Y007438D01*
X019854Y007430D01*
X019894Y007418D01*
X019932Y007403D01*
X019968Y007384D01*
X020003Y007362D01*
X020036Y007336D01*
X020065Y007308D01*
X020092Y007277D01*
X020116Y007243D01*
X020137Y007207D01*
X020154Y007170D01*
X020167Y007131D01*
X020177Y007091D01*
X020183Y007050D01*
X020185Y007009D01*
X020183Y006968D01*
X020177Y006927D01*
X020167Y006887D01*
X020154Y006848D01*
X020137Y006811D01*
X020116Y006775D01*
X020092Y006741D01*
X020065Y006710D01*
X020036Y006682D01*
X020003Y006656D01*
X019969Y006634D01*
X019932Y006615D01*
X019894Y006600D01*
X019854Y006588D01*
X019814Y006580D01*
X019773Y006576D01*
X019731Y006576D01*
X019690Y006580D01*
X019650Y006588D01*
X019610Y006600D01*
X019572Y006615D01*
X019536Y006634D01*
X019501Y006656D01*
X019468Y006682D01*
X019439Y006710D01*
X019412Y006741D01*
X019388Y006775D01*
X019367Y006811D01*
X019350Y006848D01*
X019337Y006887D01*
X019327Y006927D01*
X019321Y006968D01*
X019319Y007009D01*
M02*
