G75*
%MOIN*%
%OFA0B0*%
%FSLAX24Y24*%
%IPPOS*%
%LPD*%
%AMOC8*
5,1,8,0,0,1.08239X$1,22.5*
%
%ADD10C,0.0030*%
%ADD11C,0.0010*%
%ADD12C,0.0050*%
D10*
X010346Y006175D02*
X010346Y006360D01*
X010408Y006421D01*
X010470Y006360D01*
X010470Y006175D01*
X010593Y006175D02*
X010593Y006421D01*
X010532Y006421D01*
X010470Y006360D01*
X010715Y006360D02*
X010715Y006236D01*
X010776Y006175D01*
X010900Y006175D01*
X010962Y006236D01*
X010962Y006360D01*
X010900Y006421D01*
X010776Y006421D01*
X010715Y006360D01*
X011083Y006421D02*
X011268Y006421D01*
X011330Y006360D01*
X011330Y006236D01*
X011268Y006175D01*
X011083Y006175D01*
X011452Y006175D02*
X011514Y006175D01*
X011514Y006236D01*
X011452Y006236D01*
X011452Y006175D01*
X011636Y006175D02*
X011760Y006175D01*
X011698Y006175D02*
X011698Y006545D01*
X011760Y006545D01*
X011943Y006545D02*
X011943Y006607D01*
X011943Y006421D02*
X011943Y006175D01*
X011882Y006175D02*
X012005Y006175D01*
X012127Y006175D02*
X012127Y006360D01*
X012188Y006421D01*
X012312Y006421D01*
X012312Y006298D02*
X012127Y006298D01*
X012127Y006175D02*
X012312Y006175D01*
X012373Y006236D01*
X012312Y006298D01*
X012495Y006360D02*
X012495Y006175D01*
X012618Y006175D02*
X012618Y006360D01*
X012557Y006421D01*
X012495Y006360D01*
X012618Y006360D02*
X012680Y006421D01*
X012742Y006421D01*
X012742Y006175D01*
X012863Y006175D02*
X013048Y006175D01*
X013110Y006236D01*
X013110Y006360D01*
X013048Y006421D01*
X012863Y006421D01*
X012863Y006113D01*
X012925Y006051D01*
X012987Y006051D01*
X013232Y006236D02*
X013293Y006175D01*
X013417Y006175D01*
X013478Y006236D01*
X013478Y006483D01*
X013417Y006545D01*
X013293Y006545D01*
X013232Y006483D01*
X013232Y006360D01*
X013293Y006298D01*
X013293Y006421D01*
X013417Y006421D01*
X013417Y006298D01*
X013293Y006298D01*
X013600Y006421D02*
X013847Y006175D01*
X013600Y006175D01*
X013600Y006421D02*
X013847Y006421D01*
X013968Y006421D02*
X014153Y006421D01*
X014215Y006360D01*
X014215Y006236D01*
X014153Y006175D01*
X013968Y006175D01*
X014337Y006175D02*
X014461Y006175D01*
X014399Y006175D02*
X014399Y006421D01*
X014461Y006421D01*
X014582Y006421D02*
X014582Y006236D01*
X014644Y006175D01*
X014705Y006236D01*
X014767Y006175D01*
X014829Y006236D01*
X014829Y006421D01*
X014950Y006360D02*
X014950Y006298D01*
X015197Y006298D01*
X015197Y006360D02*
X015136Y006421D01*
X015012Y006421D01*
X014950Y006360D01*
X015012Y006175D02*
X015136Y006175D01*
X015197Y006236D01*
X015197Y006360D01*
X015381Y006421D02*
X015381Y006175D01*
X015443Y006175D02*
X015319Y006175D01*
X015565Y006175D02*
X015750Y006298D01*
X015565Y006421D01*
X015443Y006421D02*
X015381Y006421D01*
X015381Y006545D02*
X015381Y006607D01*
X015750Y006545D02*
X015750Y006175D01*
X015871Y006175D02*
X015871Y006360D01*
X015933Y006421D01*
X016118Y006421D01*
X016118Y006175D01*
X016239Y006298D02*
X016486Y006298D01*
X016486Y006360D02*
X016425Y006421D01*
X016301Y006421D01*
X016239Y006360D01*
X016239Y006298D01*
X016301Y006175D02*
X016425Y006175D01*
X016486Y006236D01*
X016486Y006360D01*
X016670Y006421D02*
X016670Y006175D01*
X016732Y006175D02*
X016608Y006175D01*
X016853Y006236D02*
X016915Y006298D01*
X017038Y006298D01*
X017100Y006360D01*
X017038Y006421D01*
X016853Y006421D01*
X016732Y006421D02*
X016670Y006421D01*
X016670Y006545D02*
X016670Y006607D01*
X016853Y006236D02*
X016915Y006175D01*
X017100Y006175D01*
X017223Y006175D02*
X017284Y006175D01*
X017284Y006236D01*
X017223Y006236D01*
X017223Y006175D01*
X017406Y006421D02*
X017468Y006421D01*
X017591Y006298D01*
X017591Y006175D02*
X017591Y006421D01*
X017713Y006360D02*
X017774Y006421D01*
X017898Y006421D01*
X017960Y006360D01*
X017960Y006236D01*
X017898Y006175D01*
X017774Y006175D01*
X017713Y006236D01*
X017713Y006360D01*
X018082Y006421D02*
X018205Y006421D01*
X018143Y006483D02*
X018143Y006236D01*
X018082Y006175D01*
X018327Y006175D02*
X018512Y006298D01*
X018327Y006421D01*
X018512Y006545D02*
X018512Y006175D01*
X018634Y006175D02*
X018758Y006175D01*
X018696Y006175D02*
X018696Y006421D01*
X018758Y006421D01*
X018879Y006421D02*
X018879Y006236D01*
X018941Y006175D01*
X019002Y006236D01*
X019064Y006175D01*
X019126Y006236D01*
X019126Y006421D01*
X018696Y006545D02*
X018696Y006607D01*
X014399Y006607D02*
X014399Y006545D01*
X012005Y006421D02*
X011943Y006421D01*
D11*
X007552Y007912D02*
X007527Y007937D01*
X007527Y007987D01*
X007552Y008012D01*
X007527Y008059D02*
X007627Y008159D01*
X007652Y008159D01*
X007677Y008134D01*
X007677Y008084D01*
X007652Y008059D01*
X007652Y008012D02*
X007677Y007987D01*
X007677Y007937D01*
X007652Y007912D01*
X007552Y007912D01*
X007527Y008059D02*
X007527Y008159D01*
X007527Y008207D02*
X007527Y008307D01*
X007527Y008257D02*
X007677Y008257D01*
X007627Y008207D01*
X007964Y009886D02*
X008015Y009886D01*
X008040Y009911D01*
X008040Y009936D01*
X008015Y009961D01*
X007964Y009961D01*
X007939Y009936D01*
X007939Y009911D01*
X007964Y009886D01*
X007964Y009961D02*
X007939Y009986D01*
X007939Y010011D01*
X007964Y010036D01*
X008015Y010036D01*
X008040Y010011D01*
X008040Y009986D01*
X008015Y009961D01*
X008087Y009961D02*
X008112Y009936D01*
X008187Y009936D01*
X008187Y009886D02*
X008187Y010036D01*
X008112Y010036D01*
X008087Y010011D01*
X008087Y009961D01*
X008137Y009936D02*
X008087Y009886D01*
X006726Y010258D02*
X006701Y010233D01*
X006651Y010233D01*
X006626Y010258D01*
X006579Y010233D02*
X006479Y010333D01*
X006479Y010358D01*
X006504Y010383D01*
X006554Y010383D01*
X006579Y010358D01*
X006626Y010358D02*
X006651Y010383D01*
X006701Y010383D01*
X006726Y010358D01*
X006726Y010258D01*
X006579Y010233D02*
X006479Y010233D01*
X006431Y010258D02*
X006406Y010233D01*
X006356Y010233D01*
X006331Y010258D01*
X006331Y010358D01*
X006431Y010258D01*
X006431Y010358D01*
X006406Y010383D01*
X006356Y010383D01*
X006331Y010358D01*
X005839Y011475D02*
X005739Y011475D01*
X005714Y011500D01*
X005714Y011550D01*
X005739Y011575D01*
X005714Y011622D02*
X005714Y011722D01*
X005714Y011769D02*
X005739Y011769D01*
X005839Y011869D01*
X005864Y011869D01*
X005864Y011769D01*
X005864Y011672D02*
X005714Y011672D01*
X005814Y011622D02*
X005864Y011672D01*
X005839Y011575D02*
X005864Y011550D01*
X005864Y011500D01*
X005839Y011475D01*
X005839Y012037D02*
X005739Y012037D01*
X005714Y012062D01*
X005714Y012112D01*
X005739Y012137D01*
X005714Y012184D02*
X005714Y012284D01*
X005714Y012234D02*
X005864Y012234D01*
X005814Y012184D01*
X005839Y012137D02*
X005864Y012112D01*
X005864Y012062D01*
X005839Y012037D01*
X005789Y012332D02*
X005789Y012407D01*
X005764Y012432D01*
X005739Y012432D01*
X005714Y012407D01*
X005714Y012357D01*
X005739Y012332D01*
X005789Y012332D01*
X005839Y012382D01*
X005864Y012432D01*
X006431Y012924D02*
X006456Y012899D01*
X006506Y012899D01*
X006531Y012924D01*
X006531Y012949D01*
X006506Y012974D01*
X006456Y012974D01*
X006431Y012949D01*
X006431Y012924D01*
X006456Y012974D02*
X006431Y012999D01*
X006431Y013024D01*
X006456Y013049D01*
X006506Y013049D01*
X006531Y013024D01*
X006531Y012999D01*
X006506Y012974D01*
X006578Y012899D02*
X006678Y012899D01*
X006628Y012899D02*
X006628Y013049D01*
X006678Y012999D01*
X006725Y013024D02*
X006750Y013049D01*
X006800Y013049D01*
X006825Y013024D01*
X006825Y012924D01*
X006800Y012899D01*
X006750Y012899D01*
X006725Y012924D01*
X007255Y012345D02*
X007280Y012370D01*
X007380Y012370D01*
X007405Y012345D01*
X007405Y012295D01*
X007380Y012270D01*
X007355Y012270D01*
X007330Y012295D01*
X007330Y012370D01*
X007255Y012345D02*
X007255Y012295D01*
X007280Y012270D01*
X007255Y012222D02*
X007255Y012122D01*
X007255Y012172D02*
X007405Y012172D01*
X007355Y012122D01*
X007380Y012075D02*
X007405Y012050D01*
X007405Y012000D01*
X007380Y011975D01*
X007280Y011975D01*
X007255Y012000D01*
X007255Y012050D01*
X007280Y012075D01*
X008043Y012085D02*
X008043Y012135D01*
X008068Y012160D01*
X008068Y012207D02*
X008043Y012232D01*
X008043Y012282D01*
X008068Y012307D01*
X008093Y012307D01*
X008118Y012282D01*
X008118Y012257D01*
X008118Y012282D02*
X008143Y012307D01*
X008168Y012307D01*
X008193Y012282D01*
X008193Y012232D01*
X008168Y012207D01*
X008168Y012160D02*
X008193Y012135D01*
X008193Y012085D01*
X008168Y012060D01*
X008068Y012060D01*
X008043Y012085D01*
X008118Y011745D02*
X008118Y011645D01*
X008193Y011720D01*
X008043Y011720D01*
X008068Y011597D02*
X008043Y011572D01*
X008043Y011522D01*
X008068Y011497D01*
X008168Y011497D01*
X008193Y011522D01*
X008193Y011572D01*
X008168Y011597D01*
X011339Y009469D02*
X011339Y009419D01*
X011364Y009394D01*
X011414Y009394D02*
X011439Y009444D01*
X011439Y009469D01*
X011414Y009494D01*
X011364Y009494D01*
X011339Y009469D01*
X011414Y009394D02*
X011489Y009394D01*
X011489Y009494D01*
X011489Y009297D02*
X011339Y009297D01*
X011339Y009247D02*
X011339Y009347D01*
X011439Y009247D02*
X011489Y009297D01*
X011464Y009200D02*
X011489Y009175D01*
X011489Y009125D01*
X011464Y009100D01*
X011364Y009100D01*
X011339Y009125D01*
X011339Y009175D01*
X011364Y009200D01*
X011527Y008907D02*
X011677Y008907D01*
X011602Y008832D01*
X011602Y008932D01*
X011527Y008784D02*
X011527Y008684D01*
X011527Y008734D02*
X011677Y008734D01*
X011627Y008684D01*
X011652Y008637D02*
X011677Y008612D01*
X011677Y008562D01*
X011652Y008537D01*
X011552Y008537D01*
X011527Y008562D01*
X011527Y008612D01*
X011552Y008637D01*
X011989Y009702D02*
X012089Y009702D01*
X011989Y009802D01*
X011989Y009827D01*
X012014Y009852D01*
X012064Y009852D01*
X012089Y009827D01*
X012136Y009827D02*
X012136Y009777D01*
X012161Y009752D01*
X012236Y009752D01*
X012236Y009702D02*
X012236Y009852D01*
X012161Y009852D01*
X012136Y009827D01*
X012186Y009752D02*
X012136Y009702D01*
X012614Y009727D02*
X012639Y009702D01*
X012689Y009702D01*
X012714Y009727D01*
X012761Y009702D02*
X012811Y009752D01*
X012786Y009752D02*
X012861Y009752D01*
X012861Y009702D02*
X012861Y009852D01*
X012786Y009852D01*
X012761Y009827D01*
X012761Y009777D01*
X012786Y009752D01*
X012714Y009827D02*
X012689Y009852D01*
X012639Y009852D01*
X012614Y009827D01*
X012614Y009802D01*
X012639Y009777D01*
X012614Y009752D01*
X012614Y009727D01*
X012639Y009777D02*
X012664Y009777D01*
X013301Y009777D02*
X013401Y009777D01*
X013326Y009852D01*
X013326Y009702D01*
X013448Y009702D02*
X013498Y009752D01*
X013473Y009752D02*
X013548Y009752D01*
X013548Y009702D02*
X013548Y009852D01*
X013473Y009852D01*
X013448Y009827D01*
X013448Y009777D01*
X013473Y009752D01*
X011802Y010062D02*
X011777Y010037D01*
X011677Y010037D01*
X011652Y010062D01*
X011652Y010112D01*
X011677Y010137D01*
X011677Y010184D02*
X011652Y010209D01*
X011652Y010259D01*
X011677Y010284D01*
X011777Y010284D01*
X011802Y010259D01*
X011802Y010209D01*
X011777Y010184D01*
X011752Y010184D01*
X011727Y010209D01*
X011727Y010284D01*
X011777Y010137D02*
X011802Y010112D01*
X011802Y010062D01*
X011652Y011725D02*
X011552Y011725D01*
X011527Y011750D01*
X011527Y011800D01*
X011552Y011825D01*
X011527Y011872D02*
X011527Y011972D01*
X011527Y011922D02*
X011677Y011922D01*
X011627Y011872D01*
X011652Y011825D02*
X011677Y011800D01*
X011677Y011750D01*
X011652Y011725D01*
X011652Y012019D02*
X011677Y012044D01*
X011677Y012094D01*
X011652Y012119D01*
X011627Y012119D01*
X011602Y012094D01*
X011577Y012119D01*
X011552Y012119D01*
X011527Y012094D01*
X011527Y012044D01*
X011552Y012019D01*
X011602Y012069D02*
X011602Y012094D01*
X011652Y012287D02*
X011552Y012287D01*
X011527Y012312D01*
X011527Y012362D01*
X011552Y012387D01*
X011527Y012434D02*
X011527Y012534D01*
X011527Y012582D02*
X011627Y012682D01*
X011652Y012682D01*
X011677Y012657D01*
X011677Y012607D01*
X011652Y012582D01*
X011677Y012484D02*
X011527Y012484D01*
X011527Y012582D02*
X011527Y012682D01*
X011552Y012850D02*
X011527Y012875D01*
X011527Y012925D01*
X011552Y012950D01*
X011527Y012997D02*
X011527Y013097D01*
X011527Y013144D02*
X011527Y013244D01*
X011527Y013194D02*
X011677Y013194D01*
X011627Y013144D01*
X011677Y013047D02*
X011527Y013047D01*
X011627Y012997D02*
X011677Y013047D01*
X011652Y012950D02*
X011677Y012925D01*
X011677Y012875D01*
X011652Y012850D01*
X011552Y012850D01*
X011677Y012484D02*
X011627Y012434D01*
X011652Y012387D02*
X011677Y012362D01*
X011677Y012312D01*
X011652Y012287D01*
X013306Y011811D02*
X013406Y011711D01*
X013381Y011686D01*
X013331Y011686D01*
X013306Y011711D01*
X013306Y011811D01*
X013331Y011836D01*
X013381Y011836D01*
X013406Y011811D01*
X013406Y011711D01*
X013453Y011686D02*
X013553Y011686D01*
X013503Y011686D02*
X013503Y011836D01*
X013553Y011786D01*
X013600Y011811D02*
X013625Y011836D01*
X013675Y011836D01*
X013700Y011811D01*
X013700Y011711D01*
X013675Y011686D01*
X013625Y011686D01*
X013600Y011711D01*
X016005Y007682D02*
X015980Y007657D01*
X015980Y007607D01*
X016005Y007582D01*
X016030Y007582D01*
X016055Y007607D01*
X016055Y007657D01*
X016030Y007682D01*
X016005Y007682D01*
X016055Y007657D02*
X016080Y007682D01*
X016105Y007682D01*
X016130Y007657D01*
X016130Y007607D01*
X016105Y007582D01*
X016080Y007582D01*
X016055Y007607D01*
X016005Y007535D02*
X015980Y007510D01*
X015980Y007460D01*
X016005Y007435D01*
X016105Y007435D01*
X016130Y007460D01*
X016130Y007510D01*
X016105Y007535D01*
X016105Y007120D02*
X016005Y007020D01*
X015980Y007020D01*
X016005Y006972D02*
X015980Y006947D01*
X015980Y006897D01*
X016005Y006872D01*
X016105Y006872D01*
X016130Y006897D01*
X016130Y006947D01*
X016105Y006972D01*
X016130Y007020D02*
X016130Y007120D01*
X016105Y007120D01*
X017527Y007125D02*
X017552Y007100D01*
X017652Y007100D01*
X017677Y007125D01*
X017677Y007175D01*
X017652Y007200D01*
X017677Y007247D02*
X017602Y007247D01*
X017627Y007297D01*
X017627Y007322D01*
X017602Y007347D01*
X017552Y007347D01*
X017527Y007322D01*
X017527Y007272D01*
X017552Y007247D01*
X017552Y007200D02*
X017527Y007175D01*
X017527Y007125D01*
X017677Y007247D02*
X017677Y007347D01*
D12*
X018272Y008013D02*
X016501Y008013D01*
X015123Y008013D02*
X013942Y008013D01*
X013942Y013722D01*
X015123Y013722D01*
X016501Y013722D02*
X018272Y013722D01*
X019650Y013722D02*
X020241Y013722D01*
X020241Y008013D01*
X019650Y008013D01*
X019453Y009982D02*
X019453Y012541D01*
X019455Y012580D01*
X019461Y012618D01*
X019470Y012655D01*
X019483Y012692D01*
X019500Y012727D01*
X019519Y012760D01*
X019542Y012791D01*
X019568Y012820D01*
X019597Y012846D01*
X019628Y012869D01*
X019661Y012888D01*
X019696Y012905D01*
X019733Y012918D01*
X019770Y012927D01*
X019808Y012933D01*
X019847Y012935D01*
X019453Y009982D02*
X019455Y009943D01*
X019461Y009905D01*
X019470Y009868D01*
X019483Y009831D01*
X019500Y009796D01*
X019519Y009763D01*
X019542Y009732D01*
X019568Y009703D01*
X019597Y009677D01*
X019628Y009654D01*
X019661Y009635D01*
X019696Y009618D01*
X019733Y009605D01*
X019770Y009596D01*
X019808Y009590D01*
X019847Y009588D01*
M02*
