G75*
%MOIN*%
%OFA0B0*%
%FSLAX24Y24*%
%IPPOS*%
%LPD*%
%AMOC8*
5,1,8,0,0,1.08239X$1,22.5*
%
%ADD10C,0.0020*%
%ADD11C,0.0100*%
%ADD12C,0.0030*%
%ADD13C,0.0010*%
%ADD14C,0.0040*%
%ADD15C,0.0060*%
%ADD16R,0.0089X0.0098*%
%ADD17R,0.0098X0.0089*%
%ADD18C,0.0080*%
%ADD19C,0.0050*%
D10*
X007756Y006036D02*
X007719Y006073D01*
X007756Y006036D02*
X007829Y006036D01*
X007866Y006073D01*
X007866Y006109D01*
X007829Y006146D01*
X007793Y006146D01*
X007829Y006146D02*
X007866Y006183D01*
X007866Y006219D01*
X007829Y006256D01*
X007756Y006256D01*
X007719Y006219D01*
X007940Y006256D02*
X007940Y006109D01*
X008014Y006036D01*
X008087Y006109D01*
X008087Y006256D01*
X008161Y006219D02*
X008198Y006256D01*
X008271Y006256D01*
X008308Y006219D01*
X008308Y006183D01*
X008271Y006146D01*
X008308Y006109D01*
X008308Y006073D01*
X008271Y006036D01*
X008198Y006036D01*
X008161Y006073D01*
X008235Y006146D02*
X008271Y006146D01*
X008878Y006256D02*
X009025Y006256D01*
X009099Y006256D02*
X009246Y006036D01*
X009099Y006036D02*
X009246Y006256D01*
X008951Y006256D02*
X008951Y006036D01*
X009878Y006036D02*
X009878Y006256D01*
X009988Y006256D01*
X010025Y006219D01*
X010025Y006146D01*
X009988Y006109D01*
X009878Y006109D01*
X009951Y006109D02*
X010025Y006036D01*
X010099Y006036D02*
X010246Y006256D01*
X010099Y006256D02*
X010246Y006036D01*
X010782Y006073D02*
X010818Y006036D01*
X010892Y006036D01*
X010929Y006073D01*
X010929Y006146D01*
X010855Y006146D01*
X010782Y006219D02*
X010782Y006073D01*
X010782Y006219D02*
X010818Y006256D01*
X010892Y006256D01*
X010929Y006219D01*
X011003Y006256D02*
X011003Y006036D01*
X011150Y006036D02*
X011150Y006256D01*
X011224Y006256D02*
X011334Y006256D01*
X011371Y006219D01*
X011371Y006073D01*
X011334Y006036D01*
X011224Y006036D01*
X011224Y006256D01*
X011003Y006256D02*
X011150Y006036D01*
X013232Y006554D02*
X013452Y006554D01*
X013452Y006701D01*
X013452Y006775D02*
X013232Y006775D01*
X013232Y006922D01*
X013232Y006996D02*
X013232Y007106D01*
X013269Y007143D01*
X013415Y007143D01*
X013452Y007106D01*
X013452Y006996D01*
X013232Y006996D01*
X013342Y006849D02*
X013342Y006775D01*
X013452Y006775D02*
X013452Y006922D01*
X013452Y007217D02*
X013452Y007364D01*
X013452Y007291D02*
X013232Y007291D01*
X013305Y007217D01*
X013982Y007254D02*
X014019Y007217D01*
X013982Y007254D02*
X013982Y007327D01*
X014019Y007364D01*
X014055Y007364D01*
X014202Y007217D01*
X014202Y007364D01*
X014165Y007143D02*
X014019Y007143D01*
X013982Y007106D01*
X013982Y006996D01*
X014202Y006996D01*
X014202Y007106D01*
X014165Y007143D01*
X014202Y006922D02*
X014202Y006775D01*
X013982Y006775D01*
X013982Y006922D01*
X014092Y006849D02*
X014092Y006775D01*
X014202Y006701D02*
X014202Y006554D01*
X013982Y006554D01*
X014732Y006554D02*
X014952Y006554D01*
X014952Y006701D01*
X014952Y006775D02*
X014732Y006775D01*
X014732Y006922D01*
X014732Y006996D02*
X014732Y007106D01*
X014769Y007143D01*
X014915Y007143D01*
X014952Y007106D01*
X014952Y006996D01*
X014732Y006996D01*
X014842Y006849D02*
X014842Y006775D01*
X014952Y006775D02*
X014952Y006922D01*
X014915Y007217D02*
X014952Y007254D01*
X014952Y007327D01*
X014915Y007364D01*
X014879Y007364D01*
X014842Y007327D01*
X014842Y007291D01*
X014842Y007327D02*
X014805Y007364D01*
X014769Y007364D01*
X014732Y007327D01*
X014732Y007254D01*
X014769Y007217D01*
X015319Y007256D02*
X015319Y007036D01*
X015319Y007109D02*
X015429Y007109D01*
X015466Y007146D01*
X015466Y007219D01*
X015429Y007256D01*
X015319Y007256D01*
X015540Y007256D02*
X015540Y007036D01*
X015614Y007109D01*
X015687Y007036D01*
X015687Y007256D01*
X015761Y007256D02*
X015871Y007256D01*
X015908Y007219D01*
X015908Y007146D01*
X015871Y007109D01*
X015761Y007109D01*
X015761Y007036D02*
X015761Y007256D01*
X015835Y007109D02*
X015908Y007036D01*
X009981Y011020D02*
X009834Y011020D01*
X009760Y011020D02*
X009687Y011093D01*
X009760Y011056D02*
X009724Y011020D01*
X009650Y011020D01*
X009614Y011056D01*
X009614Y011203D01*
X009650Y011240D01*
X009724Y011240D01*
X009760Y011203D01*
X009760Y011056D01*
X009834Y011166D02*
X009908Y011240D01*
X009908Y011020D01*
X009961Y013090D02*
X009815Y013090D01*
X009961Y013237D01*
X009961Y013274D01*
X009925Y013311D01*
X009851Y013311D01*
X009815Y013274D01*
X009740Y013311D02*
X009594Y013090D01*
X009740Y013090D02*
X009594Y013311D01*
X007852Y014212D02*
X007852Y014285D01*
X007816Y014322D01*
X007742Y014322D01*
X007742Y014249D01*
X007669Y014322D02*
X007632Y014285D01*
X007632Y014212D01*
X007669Y014175D01*
X007816Y014175D01*
X007852Y014212D01*
X007852Y014396D02*
X007632Y014396D01*
X007852Y014543D01*
X007632Y014543D01*
X007632Y014617D02*
X007632Y014727D01*
X007669Y014764D01*
X007816Y014764D01*
X007852Y014727D01*
X007852Y014617D01*
X007632Y014617D01*
X008213Y016132D02*
X008286Y016132D01*
X008323Y016169D01*
X008397Y016132D02*
X008397Y016352D01*
X008544Y016132D01*
X008544Y016352D01*
X008618Y016352D02*
X008618Y016242D01*
X008691Y016279D01*
X008728Y016279D01*
X008765Y016242D01*
X008765Y016169D01*
X008728Y016132D01*
X008655Y016132D01*
X008618Y016169D01*
X008618Y016352D02*
X008765Y016352D01*
X008323Y016316D02*
X008286Y016352D01*
X008213Y016352D01*
X008176Y016316D01*
X008176Y016169D01*
X008213Y016132D01*
X012195Y016125D02*
X012231Y016088D01*
X012305Y016088D01*
X012342Y016125D01*
X012342Y016198D01*
X012305Y016235D01*
X012268Y016235D01*
X012195Y016198D01*
X012195Y016309D01*
X012342Y016309D01*
X012416Y016309D02*
X012416Y016162D01*
X012489Y016088D01*
X012562Y016162D01*
X012562Y016309D01*
X013195Y016272D02*
X013231Y016309D01*
X013305Y016309D01*
X013342Y016272D01*
X013342Y016235D01*
X013305Y016198D01*
X013342Y016162D01*
X013342Y016125D01*
X013305Y016088D01*
X013231Y016088D01*
X013195Y016125D01*
X013268Y016198D02*
X013305Y016198D01*
X013416Y016162D02*
X013489Y016088D01*
X013562Y016162D01*
X013562Y016309D01*
X013637Y016272D02*
X013673Y016309D01*
X013747Y016309D01*
X013783Y016272D01*
X013783Y016235D01*
X013747Y016198D01*
X013783Y016162D01*
X013783Y016125D01*
X013747Y016088D01*
X013673Y016088D01*
X013637Y016125D01*
X013710Y016198D02*
X013747Y016198D01*
X013416Y016162D02*
X013416Y016309D01*
X014506Y014756D02*
X014469Y014719D01*
X014469Y014573D01*
X014506Y014536D01*
X014579Y014536D01*
X014616Y014573D01*
X014616Y014646D01*
X014543Y014646D01*
X014616Y014719D02*
X014579Y014756D01*
X014506Y014756D01*
X014690Y014756D02*
X014690Y014536D01*
X014837Y014536D02*
X014690Y014756D01*
X014837Y014756D02*
X014837Y014536D01*
X014911Y014536D02*
X015021Y014536D01*
X015058Y014573D01*
X015058Y014719D01*
X015021Y014756D01*
X014911Y014756D01*
X014911Y014536D01*
X015407Y014573D02*
X015443Y014536D01*
X015517Y014536D01*
X015554Y014573D01*
X015628Y014536D02*
X015775Y014536D01*
X015849Y014536D02*
X015849Y014756D01*
X015885Y014646D02*
X015996Y014536D01*
X015849Y014609D02*
X015996Y014756D01*
X015628Y014756D02*
X015628Y014536D01*
X015554Y014719D02*
X015517Y014756D01*
X015443Y014756D01*
X015407Y014719D01*
X015407Y014573D01*
X016576Y014536D02*
X016650Y014536D01*
X016613Y014536D02*
X016613Y014756D01*
X016576Y014756D02*
X016650Y014756D01*
X016724Y014719D02*
X016724Y014573D01*
X016760Y014536D01*
X016834Y014536D01*
X016871Y014573D01*
X016871Y014719D01*
X016834Y014756D01*
X016760Y014756D01*
X016724Y014719D01*
X017407Y014719D02*
X017443Y014756D01*
X017517Y014756D01*
X017554Y014719D01*
X017554Y014683D01*
X017517Y014646D01*
X017554Y014609D01*
X017554Y014573D01*
X017517Y014536D01*
X017443Y014536D01*
X017407Y014573D01*
X017480Y014646D02*
X017517Y014646D01*
X017628Y014609D02*
X017701Y014536D01*
X017775Y014609D01*
X017775Y014756D01*
X017849Y014719D02*
X017885Y014756D01*
X017959Y014756D01*
X017996Y014719D01*
X017996Y014683D01*
X017959Y014646D01*
X017996Y014609D01*
X017996Y014573D01*
X017959Y014536D01*
X017885Y014536D01*
X017849Y014573D01*
X017922Y014646D02*
X017959Y014646D01*
X017628Y014609D02*
X017628Y014756D01*
D11*
X017372Y011516D02*
X017560Y011328D01*
X017372Y011141D01*
X017372Y011516D01*
X017560Y011328D02*
X016060Y011328D01*
X015997Y011328D02*
X015999Y011343D01*
X016004Y011357D01*
X016013Y011370D01*
X016024Y011380D01*
X016038Y011387D01*
X016052Y011391D01*
X016068Y011391D01*
X016082Y011387D01*
X016096Y011380D01*
X016107Y011370D01*
X016116Y011357D01*
X016121Y011343D01*
X016123Y011328D01*
X016121Y011313D01*
X016116Y011299D01*
X016107Y011286D01*
X016096Y011276D01*
X016082Y011269D01*
X016068Y011265D01*
X016052Y011265D01*
X016038Y011269D01*
X016024Y011276D01*
X016013Y011286D01*
X016004Y011299D01*
X015999Y011313D01*
X015997Y011328D01*
X015795Y011328D02*
X015797Y011360D01*
X015803Y011391D01*
X015812Y011422D01*
X015825Y011451D01*
X015842Y011479D01*
X015862Y011504D01*
X015884Y011526D01*
X015909Y011546D01*
X015937Y011563D01*
X015966Y011576D01*
X015997Y011585D01*
X016028Y011591D01*
X016060Y011593D01*
X016092Y011591D01*
X016123Y011585D01*
X016154Y011576D01*
X016183Y011563D01*
X016211Y011546D01*
X016236Y011526D01*
X016258Y011504D01*
X016278Y011479D01*
X016295Y011451D01*
X016308Y011422D01*
X016317Y011391D01*
X016323Y011360D01*
X016325Y011328D01*
X016323Y011296D01*
X016317Y011265D01*
X016308Y011234D01*
X016295Y011205D01*
X016278Y011177D01*
X016258Y011152D01*
X016236Y011130D01*
X016211Y011110D01*
X016183Y011093D01*
X016154Y011080D01*
X016123Y011071D01*
X016092Y011065D01*
X016060Y011063D01*
X016028Y011065D01*
X015997Y011071D01*
X015966Y011080D01*
X015937Y011093D01*
X015909Y011110D01*
X015884Y011130D01*
X015862Y011152D01*
X015842Y011177D01*
X015825Y011205D01*
X015812Y011234D01*
X015803Y011265D01*
X015797Y011296D01*
X015795Y011328D01*
X016060Y011328D02*
X016060Y009828D01*
X015872Y010016D01*
X016247Y010016D01*
X016060Y009828D01*
X011155Y012198D02*
X011157Y012225D01*
X011163Y012252D01*
X011172Y012278D01*
X011185Y012302D01*
X011201Y012325D01*
X011220Y012344D01*
X011242Y012361D01*
X011266Y012375D01*
X011291Y012385D01*
X011318Y012392D01*
X011345Y012395D01*
X011373Y012394D01*
X011400Y012389D01*
X011426Y012381D01*
X011450Y012369D01*
X011473Y012353D01*
X011494Y012335D01*
X011511Y012314D01*
X011526Y012290D01*
X011537Y012265D01*
X011545Y012239D01*
X011549Y012212D01*
X011549Y012184D01*
X011545Y012157D01*
X011537Y012131D01*
X011526Y012106D01*
X011511Y012082D01*
X011494Y012061D01*
X011473Y012043D01*
X011451Y012027D01*
X011426Y012015D01*
X011400Y012007D01*
X011373Y012002D01*
X011345Y012001D01*
X011318Y012004D01*
X011291Y012011D01*
X011266Y012021D01*
X011242Y012035D01*
X011220Y012052D01*
X011201Y012071D01*
X011185Y012094D01*
X011172Y012118D01*
X011163Y012144D01*
X011157Y012171D01*
X011155Y012198D01*
D12*
X015031Y012929D02*
X015079Y012881D01*
X015176Y012881D01*
X015224Y012929D01*
X015224Y013171D01*
X015326Y013074D02*
X015422Y013171D01*
X015422Y012881D01*
X015326Y012881D02*
X015519Y012881D01*
X015031Y012929D02*
X015031Y013171D01*
X015762Y012009D02*
X015956Y012009D01*
X015956Y011960D01*
X015762Y011767D01*
X015762Y011718D01*
X015956Y011718D01*
X017325Y011009D02*
X017325Y010960D01*
X017421Y010863D01*
X017421Y010718D01*
X017421Y010863D02*
X017518Y010960D01*
X017518Y011009D01*
X016643Y010071D02*
X016450Y009781D01*
X016643Y009781D02*
X016450Y010071D01*
X019047Y008556D02*
X019337Y008556D01*
X019337Y008459D02*
X019337Y008653D01*
X019144Y008459D02*
X019047Y008556D01*
X019095Y008358D02*
X019047Y008310D01*
X019047Y008213D01*
X019095Y008165D01*
X019289Y008165D01*
X019337Y008213D01*
X019337Y008310D01*
X019289Y008358D01*
X019337Y008065D02*
X019337Y007968D01*
X019337Y008017D02*
X019047Y008017D01*
X019047Y008065D02*
X019047Y007968D01*
X006074Y011241D02*
X006074Y011338D01*
X006025Y011386D01*
X005783Y011386D01*
X005832Y011487D02*
X005783Y011535D01*
X005783Y011632D01*
X005832Y011681D01*
X005880Y011681D01*
X006074Y011487D01*
X006074Y011681D01*
X006074Y011241D02*
X006025Y011192D01*
X005783Y011192D01*
D13*
X008305Y013546D02*
X008305Y013621D01*
X008330Y013646D01*
X008380Y013646D01*
X008405Y013621D01*
X008405Y013546D01*
X008455Y013546D02*
X008305Y013546D01*
X008405Y013596D02*
X008455Y013646D01*
X008430Y013693D02*
X008455Y013718D01*
X008455Y013768D01*
X008430Y013793D01*
X008405Y013793D01*
X008380Y013768D01*
X008380Y013693D01*
X008430Y013693D01*
X008380Y013693D02*
X008330Y013743D01*
X008305Y013793D01*
X006228Y014540D02*
X006128Y014540D01*
X006178Y014540D02*
X006178Y014690D01*
X006128Y014640D01*
X006081Y014690D02*
X006031Y014690D01*
X006056Y014690D02*
X006056Y014565D01*
X006031Y014540D01*
X006006Y014540D01*
X005981Y014565D01*
X005933Y014565D02*
X005908Y014540D01*
X005858Y014540D01*
X005833Y014565D01*
X005858Y014615D02*
X005908Y014615D01*
X005933Y014590D01*
X005933Y014565D01*
X005858Y014615D02*
X005833Y014640D01*
X005833Y014665D01*
X005858Y014690D01*
X005908Y014690D01*
X005933Y014665D01*
X006277Y008521D02*
X006352Y008521D01*
X006377Y008496D01*
X006377Y008446D01*
X006352Y008421D01*
X006277Y008421D01*
X006277Y008371D02*
X006277Y008521D01*
X006327Y008421D02*
X006377Y008371D01*
X006425Y008371D02*
X006425Y008396D01*
X006525Y008496D01*
X006525Y008521D01*
X006425Y008521D01*
X014558Y013136D02*
X014558Y013286D01*
X014633Y013286D01*
X014658Y013261D01*
X014658Y013211D01*
X014633Y013186D01*
X014558Y013186D01*
X014608Y013186D02*
X014658Y013136D01*
X014705Y013161D02*
X014730Y013136D01*
X014780Y013136D01*
X014805Y013161D01*
X014805Y013211D01*
X014780Y013236D01*
X014755Y013236D01*
X014705Y013211D01*
X014705Y013286D01*
X014805Y013286D01*
X016769Y009714D02*
X016744Y009689D01*
X016744Y009589D01*
X016769Y009564D01*
X016819Y009564D01*
X016844Y009589D01*
X016891Y009589D02*
X016916Y009564D01*
X016966Y009564D01*
X016991Y009589D01*
X016991Y009614D01*
X016966Y009639D01*
X016891Y009639D01*
X016891Y009589D01*
X016891Y009639D02*
X016941Y009689D01*
X016991Y009714D01*
X016844Y009689D02*
X016819Y009714D01*
X016769Y009714D01*
X015458Y007805D02*
X015458Y007705D01*
X015458Y007658D02*
X015408Y007608D01*
X015408Y007633D02*
X015408Y007557D01*
X015458Y007557D02*
X015308Y007557D01*
X015308Y007633D01*
X015333Y007658D01*
X015383Y007658D01*
X015408Y007633D01*
X015358Y007705D02*
X015308Y007755D01*
X015458Y007755D01*
D14*
X014591Y007051D02*
X014591Y006893D01*
X014316Y006893D02*
X014316Y007051D01*
X013841Y007051D02*
X013841Y006893D01*
X013566Y006893D02*
X013566Y007051D01*
X013091Y007051D02*
X013091Y006893D01*
X012816Y006893D02*
X012816Y007051D01*
X015500Y006822D02*
X015657Y006822D01*
X015657Y006547D02*
X015500Y006547D01*
X018727Y010447D02*
X019727Y010447D01*
X019347Y010471D02*
X019347Y010747D01*
X019348Y010759D01*
X019352Y010770D01*
X019359Y010780D01*
X019368Y010788D01*
X019379Y010794D01*
X019391Y010796D01*
X020732Y010885D01*
X020733Y010884D02*
X020751Y010886D01*
X020769Y010891D01*
X020785Y010900D01*
X020800Y010912D01*
X020812Y010926D01*
X020821Y010942D01*
X020827Y010960D01*
X020829Y010978D01*
X020828Y010997D01*
X020823Y011015D01*
X020815Y011031D01*
X020804Y011046D01*
X020790Y011059D01*
X020774Y011068D01*
X020757Y011075D01*
X020738Y011078D01*
X019402Y011166D01*
X019388Y011168D01*
X019376Y011174D01*
X019364Y011183D01*
X019356Y011193D01*
X019350Y011206D01*
X019347Y011220D01*
X019348Y011234D01*
X019352Y011247D01*
X019359Y011259D01*
X019369Y011269D01*
X019380Y011277D01*
X019394Y011281D01*
X019408Y011282D01*
X020854Y011216D01*
X020870Y011216D01*
X020892Y011214D01*
X020913Y011209D01*
X020933Y011201D01*
X020951Y011190D01*
X020968Y011176D01*
X020982Y011159D01*
X020993Y011141D01*
X021001Y011121D01*
X021006Y011100D01*
X021008Y011078D01*
X021008Y010471D01*
X020852Y010447D02*
X021477Y010447D01*
X021478Y010449D02*
X021478Y013446D01*
X021477Y013447D02*
X020852Y013447D01*
X021008Y013424D02*
X021008Y012816D01*
X021006Y012794D01*
X021001Y012773D01*
X020993Y012753D01*
X020982Y012735D01*
X020968Y012718D01*
X020951Y012704D01*
X020933Y012693D01*
X020913Y012685D01*
X020892Y012680D01*
X020870Y012678D01*
X020854Y012678D01*
X019408Y012612D01*
X019394Y012613D01*
X019380Y012617D01*
X019369Y012625D01*
X019359Y012635D01*
X019352Y012647D01*
X019348Y012660D01*
X019347Y012674D01*
X019350Y012688D01*
X019356Y012701D01*
X019364Y012711D01*
X019376Y012720D01*
X019388Y012726D01*
X019402Y012728D01*
X020738Y012816D01*
X020757Y012819D01*
X020774Y012826D01*
X020790Y012835D01*
X020804Y012848D01*
X020815Y012863D01*
X020823Y012879D01*
X020828Y012897D01*
X020829Y012916D01*
X020827Y012934D01*
X020821Y012952D01*
X020812Y012968D01*
X020800Y012982D01*
X020785Y012994D01*
X020769Y013003D01*
X020751Y013008D01*
X020733Y013010D01*
X020732Y013010D02*
X019391Y013098D01*
X019379Y013100D01*
X019368Y013106D01*
X019359Y013114D01*
X019352Y013124D01*
X019348Y013135D01*
X019347Y013147D01*
X019347Y013148D02*
X019347Y013424D01*
X019727Y013447D02*
X018727Y013447D01*
X018111Y012805D02*
X018089Y012807D01*
X018068Y012812D01*
X018048Y012820D01*
X018030Y012831D01*
X018013Y012845D01*
X017999Y012862D01*
X017988Y012880D01*
X017980Y012900D01*
X017975Y012921D01*
X017973Y012943D01*
X018111Y012805D02*
X018343Y012805D01*
X019231Y012231D02*
X019231Y011652D01*
X019233Y011631D01*
X019238Y011611D01*
X019246Y011592D01*
X019256Y011574D01*
X019270Y011558D01*
X019286Y011544D01*
X019304Y011534D01*
X019323Y011526D01*
X019343Y011521D01*
X019364Y011519D01*
X020948Y011437D01*
X020947Y011436D02*
X020961Y011437D01*
X020974Y011442D01*
X020985Y011450D01*
X020994Y011460D01*
X021000Y011473D01*
X021003Y011486D01*
X021002Y011500D01*
X020997Y011513D01*
X020989Y011524D01*
X020979Y011533D01*
X020966Y011539D01*
X020953Y011542D01*
X020953Y011541D02*
X019728Y011608D01*
X019704Y011610D01*
X019680Y011615D01*
X019657Y011623D01*
X019636Y011635D01*
X019616Y011650D01*
X019599Y011667D01*
X019584Y011687D01*
X019572Y011708D01*
X019564Y011731D01*
X019559Y011755D01*
X019557Y011779D01*
X019557Y012127D01*
X019556Y012127D02*
X019558Y012151D01*
X019563Y012174D01*
X019571Y012196D01*
X019582Y012217D01*
X019597Y012236D01*
X019613Y012252D01*
X019632Y012267D01*
X019653Y012278D01*
X019675Y012286D01*
X019698Y012291D01*
X019722Y012293D01*
X019722Y012292D02*
X019750Y012292D01*
X020948Y012347D01*
X020948Y012348D02*
X020961Y012350D01*
X020974Y012356D01*
X020985Y012365D01*
X020993Y012376D01*
X020998Y012389D01*
X021000Y012403D01*
X020998Y012417D01*
X020993Y012430D01*
X020985Y012441D01*
X020974Y012450D01*
X020961Y012456D01*
X020948Y012458D01*
X019375Y012375D01*
X019352Y012373D01*
X019331Y012368D01*
X019310Y012359D01*
X019290Y012347D01*
X019273Y012333D01*
X019259Y012316D01*
X019247Y012296D01*
X019238Y012275D01*
X019233Y012254D01*
X019231Y012231D01*
X018326Y011089D02*
X018116Y011089D01*
X018116Y011088D02*
X018094Y011086D01*
X018072Y011081D01*
X018051Y011072D01*
X018032Y011061D01*
X018015Y011046D01*
X018000Y011029D01*
X017989Y011010D01*
X017980Y010989D01*
X017975Y010967D01*
X017973Y010945D01*
X009327Y011213D02*
X008579Y011213D01*
X008579Y009481D02*
X009327Y009481D01*
D15*
X008560Y008353D02*
X007560Y008353D01*
X007543Y008351D01*
X007526Y008347D01*
X007510Y008340D01*
X007496Y008330D01*
X007483Y008317D01*
X007473Y008303D01*
X007466Y008287D01*
X007462Y008270D01*
X007460Y008253D01*
X007460Y007653D01*
X007462Y007636D01*
X007466Y007619D01*
X007473Y007603D01*
X007483Y007589D01*
X007496Y007576D01*
X007510Y007566D01*
X007526Y007559D01*
X007543Y007555D01*
X007560Y007553D01*
X008560Y007553D01*
X008577Y007555D01*
X008594Y007559D01*
X008610Y007566D01*
X008624Y007576D01*
X008637Y007589D01*
X008647Y007603D01*
X008654Y007619D01*
X008658Y007636D01*
X008660Y007653D01*
X008660Y008253D01*
X008658Y008270D01*
X008654Y008287D01*
X008647Y008303D01*
X008637Y008317D01*
X008624Y008330D01*
X008610Y008340D01*
X008594Y008347D01*
X008577Y008351D01*
X008560Y008353D01*
X008328Y007410D02*
X007828Y007410D01*
X007578Y007160D01*
X007578Y006660D01*
X007828Y006410D01*
X008328Y006410D01*
X008578Y006660D01*
X008828Y006410D01*
X009328Y006410D01*
X009578Y006660D01*
X009828Y006410D01*
X010328Y006410D01*
X010578Y006660D01*
X010828Y006410D01*
X011328Y006410D01*
X011578Y006660D01*
X011578Y007160D01*
X011328Y007410D01*
X010828Y007410D01*
X010578Y007160D01*
X010328Y007410D01*
X009828Y007410D01*
X009578Y007160D01*
X009328Y007410D01*
X008828Y007410D01*
X008578Y007160D01*
X008328Y007410D01*
X006441Y013247D02*
X005841Y013247D01*
X005824Y013249D01*
X005807Y013253D01*
X005791Y013260D01*
X005777Y013270D01*
X005764Y013283D01*
X005754Y013297D01*
X005747Y013313D01*
X005743Y013330D01*
X005741Y013347D01*
X005741Y014347D01*
X005743Y014364D01*
X005747Y014381D01*
X005754Y014397D01*
X005764Y014411D01*
X005777Y014424D01*
X005791Y014434D01*
X005807Y014441D01*
X005824Y014445D01*
X005841Y014447D01*
X006441Y014447D01*
X006458Y014445D01*
X006475Y014441D01*
X006491Y014434D01*
X006505Y014424D01*
X006518Y014411D01*
X006528Y014397D01*
X006535Y014381D01*
X006539Y014364D01*
X006541Y014347D01*
X006541Y013347D01*
X006539Y013330D01*
X006535Y013313D01*
X006528Y013297D01*
X006518Y013283D01*
X006505Y013270D01*
X006491Y013260D01*
X006475Y013253D01*
X006458Y013249D01*
X006441Y013247D01*
X007953Y014222D02*
X008203Y013972D01*
X008703Y013972D01*
X008953Y014222D01*
X009203Y013972D01*
X009703Y013972D01*
X009953Y014222D01*
X010203Y013972D01*
X010703Y013972D01*
X010953Y014222D01*
X011203Y013972D01*
X011703Y013972D01*
X011953Y014222D01*
X012203Y013972D01*
X012703Y013972D01*
X012953Y014222D01*
X013203Y013972D01*
X013703Y013972D01*
X013953Y014222D01*
X013953Y015722D01*
X013703Y015972D01*
X013203Y015972D01*
X012953Y015722D01*
X012703Y015972D01*
X012203Y015972D01*
X011953Y015722D01*
X011703Y015972D01*
X011203Y015972D01*
X010953Y015722D01*
X010703Y015972D01*
X010203Y015972D01*
X009953Y015722D01*
X009703Y015972D01*
X009203Y015972D01*
X008953Y015722D01*
X008703Y015972D01*
X008203Y015972D01*
X007953Y015722D01*
X007953Y014222D01*
X014266Y015160D02*
X014266Y015660D01*
X014516Y015910D01*
X015016Y015910D01*
X015266Y015660D01*
X015516Y015910D01*
X016016Y015910D01*
X016266Y015660D01*
X016516Y015910D01*
X017016Y015910D01*
X017266Y015660D01*
X017516Y015910D01*
X018016Y015910D01*
X018266Y015660D01*
X018266Y015160D01*
X018016Y014910D01*
X017516Y014910D01*
X017266Y015160D01*
X017016Y014910D01*
X016516Y014910D01*
X016266Y015160D01*
X016016Y014910D01*
X015516Y014910D01*
X015266Y015160D01*
X015016Y014910D01*
X014516Y014910D01*
X014266Y015160D01*
D16*
X014567Y007021D03*
X013817Y007021D03*
X013067Y007021D03*
D17*
X015628Y006571D03*
D18*
X016207Y007003D02*
X018787Y007003D01*
X018787Y008403D01*
X016207Y008403D01*
X016207Y007003D01*
X014683Y008868D02*
X010974Y008868D01*
X010974Y012580D01*
X014683Y012580D01*
X014683Y008868D01*
X008125Y008944D02*
X008086Y008944D01*
X008125Y008944D02*
X008125Y010125D01*
X008086Y010125D01*
X007692Y010125D02*
X007574Y010125D01*
X007180Y010125D02*
X007102Y010125D01*
X006708Y010125D02*
X006590Y010125D01*
X006196Y010125D02*
X006157Y010125D01*
X006157Y008944D01*
X006196Y008944D01*
X006590Y008944D02*
X006708Y008944D01*
X007102Y008944D02*
X007180Y008944D01*
X007574Y008944D02*
X007692Y008944D01*
X006330Y009432D02*
X006332Y009440D01*
X006337Y009447D01*
X006344Y009451D01*
X006352Y009452D01*
X006360Y009449D01*
X006366Y009444D01*
X006370Y009436D01*
X006370Y009428D01*
X006366Y009420D01*
X006360Y009415D01*
X006352Y009412D01*
X006344Y009413D01*
X006337Y009417D01*
X006332Y009424D01*
X006330Y009432D01*
D19*
X006066Y009389D02*
X006066Y009299D01*
X006021Y009254D01*
X006021Y009140D02*
X005796Y009140D01*
X005841Y009254D02*
X005796Y009299D01*
X005796Y009389D01*
X005841Y009434D01*
X005886Y009434D01*
X005931Y009389D01*
X005976Y009434D01*
X006021Y009434D01*
X006066Y009389D01*
X005931Y009389D02*
X005931Y009344D01*
X006021Y009140D02*
X006066Y009095D01*
X006066Y009005D01*
X006021Y008960D01*
X005796Y008960D01*
X006354Y011310D02*
X006354Y011467D01*
X006354Y011310D02*
X006511Y011310D01*
X007771Y011310D02*
X007928Y011467D01*
X008363Y011317D02*
X009505Y011317D01*
X009505Y013088D01*
X009505Y013285D01*
X008363Y013285D01*
X008363Y013088D01*
X008363Y013049D01*
X008363Y011317D01*
X007928Y012727D02*
X007928Y012884D01*
X007771Y012884D01*
X008363Y013088D02*
X009505Y013088D01*
X006511Y012884D02*
X006354Y012884D01*
X006354Y012727D01*
M02*
