G75*
%MOIN*%
%OFA0B0*%
%FSLAX24Y24*%
%IPPOS*%
%LPD*%
%AMOC8*
5,1,8,0,0,1.08239X$1,22.5*
%
%ADD10R,0.0425X0.0413*%
%ADD11R,0.0866X0.0984*%
%ADD12R,0.0787X0.0197*%
%ADD13C,0.0600*%
%ADD14OC8,0.0600*%
%ADD15R,0.0315X0.0315*%
%ADD16R,0.0433X0.0394*%
%ADD17R,0.0630X0.0118*%
%ADD18R,0.0118X0.0630*%
%ADD19R,0.0114X0.0276*%
%ADD20R,0.0276X0.0114*%
%ADD21R,0.0197X0.0472*%
%ADD22R,0.0748X0.0433*%
%ADD23R,0.0500X0.0250*%
%ADD24R,0.1024X0.0315*%
%ADD25R,0.0394X0.0433*%
%ADD26R,0.0250X0.0500*%
%ADD27R,0.0480X0.0880*%
%ADD28R,0.1417X0.0866*%
%ADD29C,0.0080*%
%ADD30C,0.0100*%
%ADD31C,0.0278*%
%ADD32C,0.0120*%
%ADD33C,0.0200*%
%ADD34C,0.0396*%
D10*
X016906Y010068D03*
X016906Y010757D03*
D11*
X018190Y010294D03*
X020276Y010294D03*
X020276Y013601D03*
X018190Y013601D03*
D12*
X018091Y012577D03*
X018091Y012262D03*
X018091Y011947D03*
X018091Y011632D03*
X018091Y011317D03*
D13*
X017766Y015110D02*
X017766Y015710D01*
X016766Y015710D02*
X016766Y015110D01*
X015766Y015110D02*
X015766Y015710D01*
X014766Y015710D02*
X014766Y015110D01*
X011078Y007210D02*
X011078Y006610D01*
X010078Y006610D02*
X010078Y007210D01*
X009078Y007210D02*
X009078Y006610D01*
X008078Y006610D02*
X008078Y007210D01*
D14*
X008453Y014472D03*
X009453Y014472D03*
X010453Y014472D03*
X011453Y014472D03*
X012453Y014472D03*
X013453Y014472D03*
X013453Y015472D03*
X012453Y015472D03*
X011453Y015472D03*
X010453Y015472D03*
X009453Y015472D03*
X008453Y015472D03*
D15*
X012953Y007267D03*
X012953Y006677D03*
X013703Y006677D03*
X013703Y007267D03*
X014453Y007267D03*
X014453Y006677D03*
X015283Y006685D03*
X015874Y006685D03*
D16*
X015766Y007413D03*
X015766Y008082D03*
X014685Y013556D03*
X014685Y014225D03*
D17*
X015033Y012198D03*
X015033Y012002D03*
X015033Y011805D03*
X015033Y011608D03*
X015033Y011411D03*
X015033Y011214D03*
X015033Y011017D03*
X015033Y010820D03*
X015033Y010624D03*
X015033Y010427D03*
X015033Y010230D03*
X015033Y010033D03*
X015033Y009836D03*
X015033Y009639D03*
X015033Y009443D03*
X015033Y009246D03*
X010624Y009246D03*
X010624Y009443D03*
X010624Y009639D03*
X010624Y009836D03*
X010624Y010033D03*
X010624Y010230D03*
X010624Y010427D03*
X010624Y010624D03*
X010624Y010820D03*
X010624Y011017D03*
X010624Y011214D03*
X010624Y011411D03*
X010624Y011608D03*
X010624Y011805D03*
X010624Y012002D03*
X010624Y012198D03*
D18*
X011352Y012927D03*
X011549Y012927D03*
X011746Y012927D03*
X011943Y012927D03*
X012139Y012927D03*
X012336Y012927D03*
X012533Y012927D03*
X012730Y012927D03*
X012927Y012927D03*
X013124Y012927D03*
X013321Y012927D03*
X013517Y012927D03*
X013714Y012927D03*
X013911Y012927D03*
X014108Y012927D03*
X014305Y012927D03*
X014305Y008517D03*
X014108Y008517D03*
X013911Y008517D03*
X013714Y008517D03*
X013517Y008517D03*
X013321Y008517D03*
X013124Y008517D03*
X012927Y008517D03*
X012730Y008517D03*
X012533Y008517D03*
X012336Y008517D03*
X012139Y008517D03*
X011943Y008517D03*
X011746Y008517D03*
X011549Y008517D03*
X011352Y008517D03*
D19*
X007633Y011359D03*
X007436Y011359D03*
X007239Y011359D03*
X007042Y011359D03*
X006846Y011359D03*
X006649Y011359D03*
X006649Y012835D03*
X006846Y012835D03*
X007042Y012835D03*
X007239Y012835D03*
X007436Y012835D03*
X007633Y012835D03*
D20*
X007879Y012589D03*
X007879Y012392D03*
X007879Y012195D03*
X007879Y011999D03*
X007879Y011802D03*
X007879Y011605D03*
X006403Y011605D03*
X006403Y011802D03*
X006403Y011999D03*
X006403Y012195D03*
X006403Y012392D03*
X006403Y012589D03*
D21*
X006403Y010007D03*
X006895Y010007D03*
X007387Y010007D03*
X007879Y010007D03*
X007879Y009062D03*
X007387Y009062D03*
X006895Y009062D03*
X006403Y009062D03*
D22*
X008953Y011730D03*
X008953Y012714D03*
D23*
X006141Y013527D03*
X006141Y013847D03*
X006141Y014167D03*
D24*
X008953Y010938D03*
X008953Y010347D03*
X008953Y009756D03*
D25*
X007082Y008078D03*
X006413Y008078D03*
X008788Y013641D03*
X009457Y013641D03*
D26*
X008380Y007953D03*
X008060Y007953D03*
X007740Y007953D03*
D27*
X016587Y008923D03*
X017497Y008923D03*
X018407Y008923D03*
D28*
X017497Y006483D03*
D29*
X015852Y009246D02*
X015033Y009246D01*
X015033Y009443D02*
X015674Y009443D01*
X016391Y010160D01*
X016391Y010785D01*
X016016Y010535D02*
X015766Y010785D01*
X016016Y010535D02*
X016016Y010035D01*
X015621Y009639D01*
X015033Y009639D01*
X015033Y009836D02*
X015443Y009836D01*
X015703Y010097D01*
X015033Y010033D02*
X014455Y010033D01*
X013953Y010535D01*
X013953Y011222D01*
X013578Y011597D01*
X012578Y011597D01*
X012328Y011847D02*
X013828Y011847D01*
X014141Y011535D01*
X014141Y010597D01*
X014508Y010230D01*
X015033Y010230D01*
X015033Y010427D02*
X014561Y010427D01*
X014328Y010660D01*
X014328Y011785D01*
X014016Y012097D01*
X012016Y012097D01*
X011766Y012347D02*
X014203Y012347D01*
X014516Y012035D01*
X014516Y010722D01*
X014614Y010624D01*
X015033Y010624D01*
X015033Y011214D02*
X015549Y011214D01*
X015622Y011141D01*
X015033Y011411D02*
X016392Y011411D01*
X016613Y011632D01*
X018091Y011632D01*
X018091Y011947D02*
X016616Y011947D01*
X016277Y011608D01*
X015033Y011608D01*
X015033Y011805D02*
X016161Y011805D01*
X016766Y012410D01*
X016766Y015410D01*
X015766Y015410D02*
X015766Y013910D01*
X014783Y012927D01*
X014305Y012927D01*
X013911Y012927D02*
X013911Y014014D01*
X013453Y014472D01*
X013516Y013972D02*
X012953Y013972D01*
X012453Y014472D01*
X012578Y013972D02*
X011953Y013972D01*
X011453Y014472D01*
X011703Y013972D02*
X010953Y013972D01*
X010453Y014472D01*
X010935Y014953D01*
X013935Y014953D01*
X014663Y014225D01*
X014685Y014225D01*
X014685Y013556D02*
X014269Y013556D01*
X014185Y013578D01*
X013714Y013774D02*
X013516Y013972D01*
X013328Y013785D02*
X012766Y013785D01*
X012578Y013972D01*
X012266Y013785D02*
X011891Y013785D01*
X011703Y013972D01*
X011516Y013722D02*
X010891Y013722D01*
X010641Y013972D01*
X009953Y013972D01*
X009860Y014066D01*
X009457Y013663D01*
X009457Y013641D01*
X009860Y014066D02*
X009453Y014472D01*
X008788Y013641D02*
X008788Y013244D01*
X008747Y013203D01*
X007828Y013222D02*
X007633Y013027D01*
X007633Y012835D01*
X007436Y012835D02*
X007436Y013392D01*
X007560Y013516D01*
X007239Y013461D02*
X006935Y013766D01*
X006578Y013785D02*
X006516Y013847D01*
X006141Y013847D01*
X006578Y013785D02*
X006578Y013347D01*
X006703Y013222D01*
X006891Y013222D01*
X007042Y013070D01*
X007042Y012835D01*
X007239Y012835D02*
X007239Y013461D01*
X006403Y012773D02*
X006141Y013035D01*
X006141Y013527D01*
X006403Y012773D02*
X006403Y012589D01*
X006403Y012195D02*
X005961Y012195D01*
X005891Y012266D01*
X005891Y012035D01*
X005927Y011999D01*
X006403Y011999D01*
X006403Y011802D02*
X005936Y011802D01*
X005891Y011847D01*
X005891Y011785D01*
X006071Y011605D01*
X006403Y011605D01*
X006649Y011359D02*
X006641Y011351D01*
X006641Y011160D01*
X006578Y011097D01*
X006391Y011097D01*
X006453Y010722D02*
X006846Y011114D01*
X006846Y011359D01*
X007042Y011359D02*
X007042Y010936D01*
X006403Y010296D01*
X006403Y010007D01*
X006403Y009648D01*
X006641Y009410D01*
X008078Y009410D01*
X008516Y008972D01*
X009078Y008972D01*
X009060Y009266D02*
X008560Y009266D01*
X008229Y009597D01*
X007516Y009597D01*
X007387Y009726D01*
X007387Y010007D01*
X007372Y010022D01*
X007372Y010953D01*
X007436Y011017D01*
X007436Y011359D01*
X007239Y011359D01*
X007633Y011359D02*
X007641Y011351D01*
X007641Y010722D01*
X007891Y010472D02*
X007891Y010019D01*
X007879Y010007D01*
X007391Y010011D02*
X007387Y010007D01*
X006895Y010007D02*
X006895Y010413D01*
X007078Y010597D01*
X007865Y011798D02*
X008095Y011798D01*
X007879Y011802D02*
X007879Y011999D01*
X007879Y012195D01*
X007879Y012392D01*
X007879Y012589D01*
X007925Y012588D02*
X008055Y012588D01*
X008065Y012388D02*
X007915Y012388D01*
X007895Y012198D02*
X008065Y012198D01*
X008065Y011998D02*
X007885Y011998D01*
X007885Y012008D01*
X006016Y012722D02*
X005891Y012597D01*
X005891Y012266D01*
X005891Y012035D02*
X005891Y011847D01*
X009060Y009266D02*
X009266Y009285D01*
X009497Y009141D02*
X009497Y008891D01*
X008997Y008391D01*
X008185Y008391D01*
X008060Y008266D01*
X008060Y007953D01*
X007740Y007953D02*
X007497Y007953D01*
X007372Y008078D01*
X007082Y008078D01*
X006413Y008078D02*
X006372Y007891D01*
X006413Y008078D02*
X005997Y008078D01*
X009078Y008160D02*
X009078Y006910D01*
X010078Y006910D02*
X010078Y008410D01*
X010310Y008641D01*
X011060Y008641D01*
X011183Y008517D01*
X011352Y008517D01*
X012139Y008517D02*
X012139Y007911D01*
X011953Y007722D01*
X012328Y007535D02*
X012328Y008509D01*
X012336Y008517D01*
X012533Y008517D02*
X012533Y009767D01*
X012266Y010035D01*
X012266Y010472D01*
X012203Y010847D02*
X012328Y010847D01*
X013124Y010052D01*
X013124Y008517D01*
X013321Y008517D02*
X013321Y010105D01*
X012266Y011160D01*
X011891Y011160D01*
X012641Y010160D02*
X012927Y009874D01*
X012927Y008517D01*
X010624Y009246D02*
X009977Y009246D01*
X009703Y008972D01*
X009703Y008785D01*
X009078Y008160D01*
X009497Y009141D02*
X009810Y009453D01*
X009810Y010578D01*
X010247Y011016D01*
X010622Y011016D01*
X010624Y011017D01*
X012336Y012927D02*
X012336Y013402D01*
X012141Y013597D01*
X011641Y013597D01*
X011516Y013722D01*
X012266Y013785D02*
X012533Y013517D01*
X012533Y012927D01*
X013517Y012927D02*
X013517Y013596D01*
X013328Y013785D01*
X013714Y013774D02*
X013714Y012927D01*
X017056Y012262D02*
X018091Y012262D01*
X017060Y012266D02*
X017056Y012262D01*
X016328Y009722D02*
X015852Y009246D01*
D30*
X005435Y006078D02*
X005435Y016237D01*
X012836Y016237D01*
X012542Y015942D01*
X012259Y015942D01*
X011983Y015667D01*
X011983Y015277D01*
X012097Y015163D01*
X011809Y015163D01*
X011923Y015277D01*
X011923Y015667D01*
X011648Y015942D01*
X011259Y015942D01*
X010983Y015667D01*
X010983Y015277D01*
X011097Y015163D01*
X010848Y015163D01*
X010626Y014942D01*
X010259Y014942D01*
X009983Y014667D01*
X009983Y014277D01*
X010079Y014182D01*
X010040Y014182D01*
X009947Y014276D01*
X009923Y014299D01*
X009923Y014667D01*
X009648Y014942D01*
X009259Y014942D01*
X008983Y014667D01*
X008983Y014277D01*
X009233Y014027D01*
X009190Y014027D01*
X009122Y013960D01*
X009055Y014027D01*
X008645Y014027D01*
X008903Y014286D01*
X008903Y014422D01*
X008503Y014422D01*
X008503Y014022D01*
X008515Y014022D01*
X008421Y013928D01*
X008421Y013354D01*
X008459Y013315D01*
X008438Y013265D01*
X008438Y013142D01*
X008471Y013063D01*
X008409Y013001D01*
X008409Y012427D01*
X008509Y012328D01*
X008733Y012328D01*
X008733Y012288D01*
X008890Y012131D01*
X008905Y012116D01*
X008509Y012116D01*
X008409Y012017D01*
X008409Y011443D01*
X008509Y011343D01*
X009398Y011343D01*
X009477Y011423D01*
X009485Y011403D01*
X009572Y011316D01*
X009644Y011286D01*
X009579Y011221D01*
X009536Y011265D01*
X008371Y011265D01*
X008272Y011165D01*
X008272Y010710D01*
X008354Y010627D01*
X008349Y010625D01*
X008322Y010597D01*
X008302Y010562D01*
X008292Y010524D01*
X008292Y010376D01*
X008925Y010376D01*
X008925Y010318D01*
X008292Y010318D01*
X008292Y010170D01*
X008302Y010132D01*
X008322Y010097D01*
X008349Y010070D01*
X008354Y010067D01*
X008272Y009984D01*
X008272Y009807D01*
X008148Y009807D01*
X008148Y010292D01*
X008153Y010297D01*
X008200Y010411D01*
X008200Y010534D01*
X008153Y010647D01*
X008066Y010734D01*
X007952Y010781D01*
X007950Y010781D01*
X007950Y010784D01*
X007903Y010897D01*
X007851Y010949D01*
X007851Y011141D01*
X007860Y011151D01*
X007860Y011378D01*
X008087Y011378D01*
X008187Y011477D01*
X008187Y011732D01*
X008167Y011752D01*
X008167Y011802D01*
X008167Y011879D01*
X008161Y011900D01*
X008167Y011922D01*
X008167Y011999D01*
X008167Y012075D01*
X008161Y012097D01*
X008167Y012119D01*
X008167Y012195D01*
X008075Y012195D01*
X008075Y012195D01*
X008075Y012195D01*
X008167Y012195D01*
X008167Y012272D01*
X008161Y012294D01*
X008167Y012315D01*
X008167Y012392D01*
X008075Y012392D01*
X008075Y012392D01*
X008167Y012392D01*
X008167Y012469D01*
X008161Y012491D01*
X008167Y012512D01*
X008167Y012589D01*
X008075Y012589D01*
X008075Y012589D01*
X008167Y012589D01*
X008167Y012666D01*
X008157Y012704D01*
X008137Y012738D01*
X008109Y012766D01*
X008075Y012786D01*
X008037Y012796D01*
X007879Y012796D01*
X007860Y012796D01*
X007860Y012913D01*
X007890Y012913D01*
X008003Y012960D01*
X008090Y013047D01*
X008137Y013161D01*
X008137Y013284D01*
X008090Y013397D01*
X008003Y013484D01*
X007890Y013531D01*
X007869Y013531D01*
X007869Y013577D01*
X007822Y013691D01*
X007735Y013778D01*
X007621Y013825D01*
X007498Y013825D01*
X007385Y013778D01*
X007302Y013695D01*
X007244Y013754D01*
X007244Y013827D01*
X007197Y013941D01*
X007110Y014028D01*
X006996Y014075D01*
X006873Y014075D01*
X006760Y014028D01*
X006696Y013964D01*
X006603Y014057D01*
X006546Y014057D01*
X006541Y014062D01*
X006541Y014155D01*
X006153Y014155D01*
X006153Y014180D01*
X006128Y014180D01*
X006128Y014442D01*
X005871Y014442D01*
X005833Y014432D01*
X005799Y014412D01*
X005771Y014384D01*
X005751Y014350D01*
X005741Y014312D01*
X005741Y014180D01*
X006128Y014180D01*
X006128Y014155D01*
X005741Y014155D01*
X005741Y014062D01*
X005721Y014042D01*
X005721Y013332D01*
X005820Y013232D01*
X005931Y013232D01*
X005931Y013021D01*
X005841Y012984D01*
X005754Y012897D01*
X005707Y012784D01*
X005707Y012710D01*
X005681Y012684D01*
X005681Y011698D01*
X005861Y011518D01*
X005984Y011395D01*
X006177Y011395D01*
X006195Y011378D01*
X006261Y011378D01*
X006216Y011359D01*
X006129Y011272D01*
X006082Y011159D01*
X006082Y011036D01*
X006129Y010922D01*
X006180Y010871D01*
X006144Y010784D01*
X006144Y010661D01*
X006191Y010547D01*
X006274Y010465D01*
X006193Y010383D01*
X006193Y010372D01*
X006134Y010314D01*
X006134Y009700D01*
X006193Y009642D01*
X006193Y009561D01*
X006285Y009468D01*
X006234Y009468D01*
X006134Y009369D01*
X006134Y008755D01*
X006183Y008707D01*
X006183Y008689D01*
X006144Y008596D01*
X006144Y008473D01*
X006148Y008465D01*
X006145Y008465D01*
X006065Y008385D01*
X006059Y008387D01*
X005936Y008387D01*
X005822Y008340D01*
X005735Y008253D01*
X005688Y008140D01*
X005688Y008017D01*
X005735Y007903D01*
X005822Y007816D01*
X005936Y007769D01*
X006059Y007769D01*
X006065Y007772D01*
X006145Y007692D01*
X006228Y007692D01*
X005979Y007589D01*
X005787Y007396D01*
X005683Y007145D01*
X005683Y006874D01*
X005787Y006623D01*
X005979Y006430D01*
X006230Y006326D01*
X006502Y006326D01*
X006753Y006430D01*
X006945Y006623D01*
X007049Y006874D01*
X007049Y007145D01*
X006945Y007396D01*
X006753Y007589D01*
X006503Y007692D01*
X006680Y007692D01*
X006747Y007759D01*
X006815Y007692D01*
X007349Y007692D01*
X007405Y007748D01*
X007410Y007743D01*
X007445Y007743D01*
X007445Y007633D01*
X007544Y007533D01*
X007738Y007533D01*
X007680Y007476D01*
X007608Y007303D01*
X007608Y006516D01*
X007680Y006343D01*
X007812Y006211D01*
X007985Y006140D01*
X008172Y006140D01*
X008345Y006211D01*
X008477Y006343D01*
X008548Y006516D01*
X008548Y007303D01*
X008477Y007476D01*
X008399Y007553D01*
X008524Y007553D01*
X008563Y007564D01*
X008597Y007583D01*
X008625Y007611D01*
X008644Y007645D01*
X008655Y007684D01*
X008655Y007941D01*
X008392Y007941D01*
X008392Y007966D01*
X008655Y007966D01*
X008655Y008181D01*
X008868Y008181D01*
X008868Y007631D01*
X008812Y007608D01*
X008680Y007476D01*
X008608Y007303D01*
X008608Y006516D01*
X008680Y006343D01*
X008812Y006211D01*
X008985Y006140D01*
X009172Y006140D01*
X009345Y006211D01*
X009477Y006343D01*
X009548Y006516D01*
X009548Y007303D01*
X009477Y007476D01*
X009345Y007608D01*
X009288Y007631D01*
X009288Y008073D01*
X009913Y008698D01*
X009913Y008885D01*
X010064Y009036D01*
X010219Y009036D01*
X010238Y009017D01*
X011009Y009017D01*
X011109Y009116D01*
X011109Y009966D01*
X011089Y009986D01*
X011089Y010033D01*
X011041Y010033D01*
X011041Y010033D01*
X011041Y010033D01*
X011089Y010033D01*
X011089Y010080D01*
X011109Y010100D01*
X011109Y012328D01*
X011009Y012427D01*
X010842Y012427D01*
X010842Y012669D01*
X010713Y012798D01*
X010645Y012867D01*
X011122Y012867D01*
X011122Y012832D01*
X011123Y012831D01*
X011123Y012541D01*
X011223Y012442D01*
X011471Y012442D01*
X011457Y012409D01*
X011457Y012286D01*
X011504Y012172D01*
X011591Y012085D01*
X011704Y012038D01*
X011707Y012038D01*
X011707Y012036D01*
X011754Y011922D01*
X011841Y011835D01*
X011954Y011788D01*
X012019Y011788D01*
X012019Y011786D01*
X012066Y011672D01*
X012153Y011585D01*
X012267Y011538D01*
X012269Y011538D01*
X012269Y011536D01*
X012316Y011422D01*
X012403Y011335D01*
X012517Y011288D01*
X012640Y011288D01*
X012753Y011335D01*
X012805Y011387D01*
X013491Y011387D01*
X013743Y011135D01*
X013743Y010448D01*
X013866Y010325D01*
X014368Y009823D01*
X014548Y009823D01*
X014548Y009116D01*
X014648Y009017D01*
X015419Y009017D01*
X015438Y009036D01*
X015939Y009036D01*
X016177Y009274D01*
X016177Y008413D01*
X016277Y008313D01*
X016859Y008313D01*
X016813Y008202D01*
X016813Y008079D01*
X016860Y007966D01*
X016892Y007934D01*
X016892Y007861D01*
X016671Y007640D01*
X016152Y007641D01*
X016152Y007680D01*
X016085Y007747D01*
X016152Y007815D01*
X016152Y008349D01*
X016053Y008449D01*
X015479Y008449D01*
X015379Y008349D01*
X015379Y008021D01*
X015053Y007694D01*
X015053Y007010D01*
X014956Y006913D01*
X014956Y006457D01*
X015055Y006357D01*
X015511Y006357D01*
X015594Y006440D01*
X015596Y006435D01*
X015624Y006407D01*
X015658Y006387D01*
X015696Y006377D01*
X015845Y006377D01*
X015845Y006656D01*
X015902Y006656D01*
X015902Y006377D01*
X016051Y006377D01*
X016089Y006387D01*
X016123Y006407D01*
X016151Y006435D01*
X016171Y006469D01*
X016181Y006507D01*
X016181Y006656D01*
X015902Y006656D01*
X015902Y006713D01*
X015845Y006713D01*
X015845Y006992D01*
X015696Y006992D01*
X015658Y006982D01*
X015624Y006962D01*
X015596Y006934D01*
X015594Y006930D01*
X015513Y007010D01*
X015513Y007046D01*
X016053Y007046D01*
X016152Y007145D01*
X016152Y007181D01*
X016670Y007180D01*
X016671Y007180D01*
X016765Y007180D01*
X016861Y007179D01*
X016861Y007180D01*
X016928Y007247D01*
X016996Y007314D01*
X017217Y007536D01*
X017227Y007546D01*
X017227Y007086D01*
X016718Y007086D01*
X016619Y006987D01*
X016619Y006078D01*
X005435Y006078D01*
X005435Y006124D02*
X016619Y006124D01*
X016619Y006222D02*
X011310Y006222D01*
X011314Y006225D02*
X011372Y006266D01*
X011422Y006316D01*
X011463Y006374D01*
X011495Y006437D01*
X011517Y006504D01*
X011528Y006574D01*
X011528Y006860D01*
X011128Y006860D01*
X011128Y006960D01*
X011028Y006960D01*
X011028Y007657D01*
X010973Y007648D01*
X010906Y007627D01*
X010843Y007594D01*
X010785Y007553D01*
X010735Y007503D01*
X010694Y007445D01*
X010661Y007382D01*
X010639Y007315D01*
X010628Y007245D01*
X010628Y006960D01*
X011028Y006960D01*
X011028Y006860D01*
X010628Y006860D01*
X010628Y006574D01*
X010639Y006504D01*
X010661Y006437D01*
X010694Y006374D01*
X010735Y006316D01*
X010785Y006266D01*
X010843Y006225D01*
X010906Y006193D01*
X010973Y006171D01*
X011028Y006162D01*
X011028Y006860D01*
X011128Y006860D01*
X011128Y006162D01*
X011184Y006171D01*
X011251Y006193D01*
X011314Y006225D01*
X011425Y006321D02*
X016619Y006321D01*
X016619Y006419D02*
X016135Y006419D01*
X016181Y006518D02*
X016619Y006518D01*
X016619Y006616D02*
X016181Y006616D01*
X016181Y006713D02*
X016181Y006862D01*
X016171Y006900D01*
X016151Y006934D01*
X016123Y006962D01*
X016089Y006982D01*
X016051Y006992D01*
X015902Y006992D01*
X015902Y006713D01*
X016181Y006713D01*
X016181Y006715D02*
X016619Y006715D01*
X016619Y006813D02*
X016181Y006813D01*
X016164Y006912D02*
X016619Y006912D01*
X016642Y007010D02*
X015513Y007010D01*
X015845Y006912D02*
X015902Y006912D01*
X015902Y006813D02*
X015845Y006813D01*
X015845Y006715D02*
X015902Y006715D01*
X015902Y006616D02*
X015845Y006616D01*
X015845Y006518D02*
X015902Y006518D01*
X015902Y006419D02*
X015845Y006419D01*
X015612Y006419D02*
X015573Y006419D01*
X014993Y006419D02*
X014751Y006419D01*
X014781Y006449D02*
X014681Y006349D01*
X014226Y006349D01*
X014126Y006449D01*
X014126Y006488D01*
X014031Y006583D01*
X014031Y006449D01*
X013931Y006349D01*
X013476Y006349D01*
X013376Y006449D01*
X013376Y006457D01*
X013345Y006457D01*
X013281Y006521D01*
X013281Y006449D01*
X013181Y006349D01*
X012726Y006349D01*
X012626Y006449D01*
X012626Y006457D01*
X012625Y006457D01*
X012566Y006398D01*
X012452Y006350D01*
X012329Y006350D01*
X012216Y006398D01*
X012129Y006484D01*
X012082Y006598D01*
X012082Y006721D01*
X012129Y006835D01*
X012216Y006922D01*
X012329Y006969D01*
X012452Y006969D01*
X012566Y006922D01*
X012591Y006897D01*
X012626Y006897D01*
X012626Y006905D01*
X012693Y006972D01*
X012626Y007039D01*
X012626Y007445D01*
X012590Y007359D01*
X012503Y007273D01*
X012390Y007225D01*
X012267Y007225D01*
X012153Y007273D01*
X012066Y007359D01*
X012040Y007423D01*
X012015Y007413D01*
X011892Y007413D01*
X011778Y007460D01*
X011691Y007547D01*
X011644Y007661D01*
X011644Y007742D01*
X011108Y007742D01*
X010812Y008038D01*
X010767Y008038D01*
X010653Y008085D01*
X010566Y008172D01*
X010519Y008286D01*
X010519Y008409D01*
X010529Y008431D01*
X010397Y008431D01*
X010288Y008323D01*
X010288Y007631D01*
X010345Y007608D01*
X010477Y007476D01*
X010548Y007303D01*
X010548Y006516D01*
X010477Y006343D01*
X010345Y006211D01*
X010172Y006140D01*
X009985Y006140D01*
X009812Y006211D01*
X009680Y006343D01*
X009608Y006516D01*
X009608Y007303D01*
X009680Y007476D01*
X009812Y007608D01*
X009868Y007631D01*
X009868Y008497D01*
X009991Y008620D01*
X010223Y008851D01*
X011123Y008851D01*
X011123Y008903D01*
X011223Y009002D01*
X011482Y009002D01*
X011502Y008982D01*
X011549Y008982D01*
X011549Y008935D01*
X011549Y008935D01*
X011549Y008982D01*
X011596Y008982D01*
X011616Y009002D01*
X012323Y009002D01*
X012323Y009680D01*
X012179Y009825D01*
X012056Y009948D01*
X012056Y010245D01*
X012004Y010297D01*
X011957Y010411D01*
X011957Y010534D01*
X011993Y010621D01*
X011941Y010672D01*
X011894Y010786D01*
X011894Y010850D01*
X011829Y010850D01*
X011716Y010898D01*
X011629Y010984D01*
X011582Y011098D01*
X011582Y011221D01*
X011629Y011335D01*
X011716Y011422D01*
X011829Y011469D01*
X011952Y011469D01*
X012066Y011422D01*
X012118Y011370D01*
X012353Y011370D01*
X013531Y010192D01*
X013531Y009002D01*
X014041Y009002D01*
X014061Y008982D01*
X014108Y008982D01*
X014108Y008935D01*
X014108Y008935D01*
X014108Y008982D01*
X014155Y008982D01*
X014175Y009002D01*
X014434Y009002D01*
X014534Y008903D01*
X014534Y008737D01*
X014624Y008737D01*
X014643Y008719D01*
X014702Y008719D01*
X014816Y008672D01*
X014903Y008585D01*
X014950Y008471D01*
X014950Y008348D01*
X014903Y008234D01*
X014816Y008148D01*
X014702Y008100D01*
X014579Y008100D01*
X014525Y008123D01*
X014434Y008032D01*
X014253Y008032D01*
X014283Y007961D01*
X014283Y007838D01*
X014274Y007817D01*
X014420Y007817D01*
X014545Y007692D01*
X014642Y007595D01*
X014681Y007595D01*
X014781Y007495D01*
X014781Y007039D01*
X014714Y006972D01*
X014781Y006905D01*
X014781Y006449D01*
X014781Y006518D02*
X014956Y006518D01*
X014956Y006616D02*
X014781Y006616D01*
X014781Y006715D02*
X014956Y006715D01*
X014956Y006813D02*
X014781Y006813D01*
X014774Y006912D02*
X014956Y006912D01*
X015053Y007010D02*
X014752Y007010D01*
X014781Y007109D02*
X015053Y007109D01*
X015053Y007207D02*
X014781Y007207D01*
X014781Y007306D02*
X015053Y007306D01*
X015053Y007404D02*
X014781Y007404D01*
X014773Y007503D02*
X015053Y007503D01*
X015053Y007601D02*
X014635Y007601D01*
X014537Y007700D02*
X015059Y007700D01*
X015157Y007798D02*
X014438Y007798D01*
X014283Y007897D02*
X015256Y007897D01*
X015354Y007995D02*
X014268Y007995D01*
X014247Y008016D02*
X014113Y008151D01*
X014108Y008306D01*
X014108Y008517D01*
X014108Y008517D01*
X014108Y009130D01*
X014078Y009160D01*
X014108Y008980D02*
X014108Y008980D01*
X014108Y008935D02*
X014108Y008935D01*
X014456Y008980D02*
X016177Y008980D01*
X016177Y008882D02*
X014534Y008882D01*
X014534Y008783D02*
X016177Y008783D01*
X016177Y008685D02*
X014784Y008685D01*
X014901Y008586D02*
X016177Y008586D01*
X016177Y008488D02*
X014943Y008488D01*
X014950Y008389D02*
X015420Y008389D01*
X015379Y008291D02*
X014926Y008291D01*
X014861Y008192D02*
X015379Y008192D01*
X015379Y008094D02*
X014496Y008094D01*
X014641Y008410D02*
X014533Y008517D01*
X014305Y008517D01*
X013911Y008517D02*
X013911Y007962D01*
X013974Y007899D01*
X013714Y008045D02*
X013641Y007972D01*
X013641Y007722D01*
X013766Y007597D01*
X014328Y007597D01*
X014453Y007472D01*
X014453Y007267D01*
X014078Y006972D02*
X014078Y006847D01*
X014249Y006677D01*
X014453Y006677D01*
X014096Y006518D02*
X014031Y006518D01*
X014001Y006419D02*
X014155Y006419D01*
X013703Y006677D02*
X013436Y006677D01*
X013328Y006785D01*
X013328Y006972D01*
X012953Y006677D02*
X012436Y006677D01*
X012391Y006660D01*
X012115Y006518D02*
X011519Y006518D01*
X011528Y006616D02*
X012082Y006616D01*
X012082Y006715D02*
X011528Y006715D01*
X011528Y006813D02*
X012120Y006813D01*
X012206Y006912D02*
X011128Y006912D01*
X011128Y006960D02*
X011528Y006960D01*
X011528Y007245D01*
X011517Y007315D01*
X011495Y007382D01*
X011463Y007445D01*
X011422Y007503D01*
X011372Y007553D01*
X011314Y007594D01*
X011251Y007627D01*
X011184Y007648D01*
X011128Y007657D01*
X011128Y006960D01*
X011128Y007010D02*
X011028Y007010D01*
X011028Y006912D02*
X010548Y006912D01*
X010548Y007010D02*
X010628Y007010D01*
X010628Y007109D02*
X010548Y007109D01*
X010548Y007207D02*
X010628Y007207D01*
X010638Y007306D02*
X010547Y007306D01*
X010506Y007404D02*
X010673Y007404D01*
X010735Y007503D02*
X010450Y007503D01*
X010351Y007601D02*
X010856Y007601D01*
X011028Y007601D02*
X011128Y007601D01*
X011128Y007503D02*
X011028Y007503D01*
X011028Y007404D02*
X011128Y007404D01*
X011128Y007306D02*
X011028Y007306D01*
X011028Y007207D02*
X011128Y007207D01*
X011128Y007109D02*
X011028Y007109D01*
X011028Y006813D02*
X011128Y006813D01*
X011128Y006715D02*
X011028Y006715D01*
X011028Y006616D02*
X011128Y006616D01*
X011128Y006518D02*
X011028Y006518D01*
X011028Y006419D02*
X011128Y006419D01*
X011128Y006321D02*
X011028Y006321D01*
X011028Y006222D02*
X011128Y006222D01*
X010847Y006222D02*
X010356Y006222D01*
X010454Y006321D02*
X010732Y006321D01*
X010670Y006419D02*
X010508Y006419D01*
X010548Y006518D02*
X010637Y006518D01*
X010628Y006616D02*
X010548Y006616D01*
X010548Y006715D02*
X010628Y006715D01*
X010628Y006813D02*
X010548Y006813D01*
X009608Y006813D02*
X009548Y006813D01*
X009548Y006715D02*
X009608Y006715D01*
X009608Y006616D02*
X009548Y006616D01*
X009548Y006518D02*
X009608Y006518D01*
X009648Y006419D02*
X009508Y006419D01*
X009454Y006321D02*
X009702Y006321D01*
X009801Y006222D02*
X009356Y006222D01*
X008801Y006222D02*
X008356Y006222D01*
X008454Y006321D02*
X008702Y006321D01*
X008648Y006419D02*
X008508Y006419D01*
X008548Y006518D02*
X008608Y006518D01*
X008608Y006616D02*
X008548Y006616D01*
X008548Y006715D02*
X008608Y006715D01*
X008608Y006813D02*
X008548Y006813D01*
X008548Y006912D02*
X008608Y006912D01*
X008608Y007010D02*
X008548Y007010D01*
X008548Y007109D02*
X008608Y007109D01*
X008608Y007207D02*
X008548Y007207D01*
X008547Y007306D02*
X008610Y007306D01*
X008650Y007404D02*
X008506Y007404D01*
X008450Y007503D02*
X008707Y007503D01*
X008615Y007601D02*
X008806Y007601D01*
X008868Y007700D02*
X008655Y007700D01*
X008655Y007798D02*
X008868Y007798D01*
X008868Y007897D02*
X008655Y007897D01*
X008655Y007995D02*
X008868Y007995D01*
X008868Y008094D02*
X008655Y008094D01*
X009288Y007995D02*
X009868Y007995D01*
X009868Y007897D02*
X009288Y007897D01*
X009288Y007798D02*
X009868Y007798D01*
X009868Y007700D02*
X009288Y007700D01*
X009351Y007601D02*
X009806Y007601D01*
X009707Y007503D02*
X009450Y007503D01*
X009506Y007404D02*
X009650Y007404D01*
X009610Y007306D02*
X009547Y007306D01*
X009548Y007207D02*
X009608Y007207D01*
X009608Y007109D02*
X009548Y007109D01*
X009548Y007010D02*
X009608Y007010D01*
X009608Y006912D02*
X009548Y006912D01*
X010288Y007700D02*
X011644Y007700D01*
X011669Y007601D02*
X011301Y007601D01*
X011422Y007503D02*
X011736Y007503D01*
X011484Y007404D02*
X012048Y007404D01*
X012120Y007306D02*
X011519Y007306D01*
X011528Y007207D02*
X012626Y007207D01*
X012626Y007109D02*
X011528Y007109D01*
X011528Y007010D02*
X012655Y007010D01*
X012633Y006912D02*
X012576Y006912D01*
X012953Y007267D02*
X012953Y007622D01*
X012730Y007846D01*
X012730Y008517D01*
X012323Y009079D02*
X011071Y009079D01*
X011109Y009177D02*
X012323Y009177D01*
X012323Y009276D02*
X011109Y009276D01*
X011109Y009374D02*
X012323Y009374D01*
X012323Y009473D02*
X011109Y009473D01*
X011109Y009571D02*
X012323Y009571D01*
X012323Y009670D02*
X011109Y009670D01*
X011109Y009768D02*
X012235Y009768D01*
X012137Y009867D02*
X011109Y009867D01*
X011109Y009965D02*
X012056Y009965D01*
X012056Y010064D02*
X011089Y010064D01*
X011142Y010033D02*
X011266Y009910D01*
X011142Y010033D02*
X010624Y010033D01*
X010624Y009836D02*
X010277Y009836D01*
X010078Y010035D01*
X009622Y009828D02*
X009622Y010641D01*
X010196Y011214D01*
X010624Y011214D01*
X010624Y011411D02*
X010080Y011411D01*
X009606Y010938D01*
X008953Y010938D01*
X008925Y010359D02*
X008179Y010359D01*
X008200Y010458D02*
X008292Y010458D01*
X008300Y010556D02*
X008191Y010556D01*
X008145Y010655D02*
X008326Y010655D01*
X008272Y010753D02*
X008019Y010753D01*
X007922Y010852D02*
X008272Y010852D01*
X008272Y010950D02*
X007851Y010950D01*
X007851Y011049D02*
X008272Y011049D01*
X008272Y011147D02*
X007857Y011147D01*
X007860Y011246D02*
X008352Y011246D01*
X008508Y011344D02*
X007860Y011344D01*
X008152Y011443D02*
X008410Y011443D01*
X008409Y011541D02*
X008187Y011541D01*
X008187Y011640D02*
X008409Y011640D01*
X008409Y011738D02*
X008181Y011738D01*
X008167Y011802D02*
X008118Y011802D01*
X008118Y011802D01*
X008167Y011802D01*
X008167Y011837D02*
X008409Y011837D01*
X008409Y011935D02*
X008167Y011935D01*
X008167Y011999D02*
X008075Y011999D01*
X008167Y011999D01*
X008167Y012034D02*
X008426Y012034D01*
X008507Y012329D02*
X008167Y012329D01*
X008167Y012231D02*
X008790Y012231D01*
X008889Y012132D02*
X008167Y012132D01*
X008075Y011999D02*
X008075Y011999D01*
X008075Y011999D01*
X007879Y011999D02*
X007879Y011832D01*
X007879Y011999D01*
X007879Y012009D01*
X007879Y012195D01*
X007879Y012195D01*
X007879Y011999D01*
X007879Y011999D01*
X007879Y011999D01*
X007879Y012034D02*
X007879Y012034D01*
X007879Y012132D02*
X007879Y012132D01*
X007879Y012195D02*
X007879Y012206D01*
X007879Y012392D01*
X007879Y012392D01*
X007879Y012195D01*
X007879Y012195D01*
X007879Y012231D02*
X007879Y012231D01*
X007879Y012329D02*
X007879Y012329D01*
X007879Y012392D02*
X007879Y012403D01*
X007879Y012589D01*
X007879Y012589D01*
X007879Y012392D01*
X007879Y012392D01*
X007879Y012428D02*
X007879Y012428D01*
X007879Y012526D02*
X007879Y012526D01*
X007879Y012589D02*
X007879Y012796D01*
X007879Y012589D01*
X007879Y012589D01*
X007879Y012625D02*
X007879Y012625D01*
X007879Y012723D02*
X007879Y012723D01*
X007860Y012822D02*
X008409Y012822D01*
X008409Y012920D02*
X007908Y012920D01*
X008062Y013019D02*
X008427Y013019D01*
X008448Y013117D02*
X008120Y013117D01*
X008137Y013216D02*
X008438Y013216D01*
X008459Y013314D02*
X008125Y013314D01*
X008075Y013413D02*
X008421Y013413D01*
X008421Y013511D02*
X007938Y013511D01*
X007855Y013610D02*
X008421Y013610D01*
X008421Y013708D02*
X007804Y013708D01*
X007665Y013807D02*
X008421Y013807D01*
X008421Y013905D02*
X007211Y013905D01*
X007244Y013807D02*
X007455Y013807D01*
X007315Y013708D02*
X007289Y013708D01*
X007134Y014004D02*
X008497Y014004D01*
X008403Y014022D02*
X008403Y014422D01*
X008003Y014422D01*
X008003Y014286D01*
X008267Y014022D01*
X008403Y014022D01*
X008403Y014102D02*
X008503Y014102D01*
X008503Y014201D02*
X008403Y014201D01*
X008403Y014299D02*
X008503Y014299D01*
X008503Y014398D02*
X008403Y014398D01*
X008403Y014422D02*
X008503Y014422D01*
X008503Y014522D01*
X008403Y014522D01*
X008403Y014422D01*
X008403Y014496D02*
X005435Y014496D01*
X005435Y014398D02*
X005785Y014398D01*
X005741Y014299D02*
X005435Y014299D01*
X005435Y014201D02*
X005741Y014201D01*
X005741Y014102D02*
X005435Y014102D01*
X005435Y014004D02*
X005721Y014004D01*
X005721Y013905D02*
X005435Y013905D01*
X005435Y013807D02*
X005721Y013807D01*
X005721Y013708D02*
X005435Y013708D01*
X005435Y013610D02*
X005721Y013610D01*
X005721Y013511D02*
X005435Y013511D01*
X005435Y013413D02*
X005721Y013413D01*
X005738Y013314D02*
X005435Y013314D01*
X005435Y013216D02*
X005931Y013216D01*
X005931Y013117D02*
X005435Y013117D01*
X005435Y013019D02*
X005925Y013019D01*
X005777Y012920D02*
X005435Y012920D01*
X005435Y012822D02*
X005723Y012822D01*
X005707Y012723D02*
X005435Y012723D01*
X005435Y012625D02*
X005681Y012625D01*
X005681Y012526D02*
X005435Y012526D01*
X005435Y012428D02*
X005681Y012428D01*
X005681Y012329D02*
X005435Y012329D01*
X005435Y012231D02*
X005681Y012231D01*
X005681Y012132D02*
X005435Y012132D01*
X005435Y012034D02*
X005681Y012034D01*
X005681Y011935D02*
X005435Y011935D01*
X005435Y011837D02*
X005681Y011837D01*
X005681Y011738D02*
X005435Y011738D01*
X005435Y011640D02*
X005739Y011640D01*
X005837Y011541D02*
X005435Y011541D01*
X005435Y011443D02*
X005936Y011443D01*
X006118Y011246D02*
X005435Y011246D01*
X005435Y011344D02*
X006201Y011344D01*
X006082Y011147D02*
X005435Y011147D01*
X005435Y011049D02*
X006082Y011049D01*
X006117Y010950D02*
X005435Y010950D01*
X005435Y010852D02*
X006173Y010852D01*
X006144Y010753D02*
X005435Y010753D01*
X005435Y010655D02*
X006147Y010655D01*
X006188Y010556D02*
X005435Y010556D01*
X005435Y010458D02*
X006267Y010458D01*
X006180Y010359D02*
X005435Y010359D01*
X005435Y010261D02*
X006134Y010261D01*
X006134Y010162D02*
X005435Y010162D01*
X005435Y010064D02*
X006134Y010064D01*
X006134Y009965D02*
X005435Y009965D01*
X005435Y009867D02*
X006134Y009867D01*
X006134Y009768D02*
X005435Y009768D01*
X005435Y009670D02*
X006165Y009670D01*
X006193Y009571D02*
X005435Y009571D01*
X005435Y009473D02*
X006281Y009473D01*
X006140Y009374D02*
X005435Y009374D01*
X005435Y009276D02*
X006134Y009276D01*
X006134Y009177D02*
X005435Y009177D01*
X005435Y009079D02*
X006134Y009079D01*
X006134Y008980D02*
X005435Y008980D01*
X005435Y008882D02*
X006134Y008882D01*
X006134Y008783D02*
X005435Y008783D01*
X005435Y008685D02*
X006181Y008685D01*
X006144Y008586D02*
X005435Y008586D01*
X005435Y008488D02*
X006144Y008488D01*
X006070Y008389D02*
X005435Y008389D01*
X005435Y008291D02*
X005773Y008291D01*
X005710Y008192D02*
X005435Y008192D01*
X005435Y008094D02*
X005688Y008094D01*
X005697Y007995D02*
X005435Y007995D01*
X005435Y007897D02*
X005742Y007897D01*
X005866Y007798D02*
X005435Y007798D01*
X005435Y007700D02*
X006137Y007700D01*
X006010Y007601D02*
X005435Y007601D01*
X005435Y007503D02*
X005893Y007503D01*
X005795Y007404D02*
X005435Y007404D01*
X005435Y007306D02*
X005749Y007306D01*
X005708Y007207D02*
X005435Y007207D01*
X005435Y007109D02*
X005683Y007109D01*
X005683Y007010D02*
X005435Y007010D01*
X005435Y006912D02*
X005683Y006912D01*
X005708Y006813D02*
X005435Y006813D01*
X005435Y006715D02*
X005748Y006715D01*
X005793Y006616D02*
X005435Y006616D01*
X005435Y006518D02*
X005891Y006518D01*
X006005Y006419D02*
X005435Y006419D01*
X005435Y006321D02*
X007702Y006321D01*
X007648Y006419D02*
X006726Y006419D01*
X006840Y006518D02*
X007608Y006518D01*
X007608Y006616D02*
X006939Y006616D01*
X006983Y006715D02*
X007608Y006715D01*
X007608Y006813D02*
X007024Y006813D01*
X007049Y006912D02*
X007608Y006912D01*
X007608Y007010D02*
X007049Y007010D01*
X007049Y007109D02*
X007608Y007109D01*
X007608Y007207D02*
X007023Y007207D01*
X006982Y007306D02*
X007610Y007306D01*
X007650Y007404D02*
X006937Y007404D01*
X006838Y007503D02*
X007707Y007503D01*
X007476Y007601D02*
X006722Y007601D01*
X006688Y007700D02*
X006807Y007700D01*
X007357Y007700D02*
X007445Y007700D01*
X007449Y008288D02*
X007449Y008365D01*
X007349Y008465D01*
X007181Y008465D01*
X007181Y008577D01*
X007134Y008691D01*
X007116Y008709D01*
X007159Y008751D01*
X007169Y008734D01*
X007196Y008706D01*
X007231Y008686D01*
X007269Y008676D01*
X007387Y008676D01*
X007505Y008676D01*
X007543Y008686D01*
X007546Y008688D01*
X007501Y008577D01*
X007501Y008454D01*
X007537Y008366D01*
X007459Y008288D01*
X007459Y008288D01*
X007449Y008288D01*
X007449Y008291D02*
X007462Y008291D01*
X007425Y008389D02*
X007528Y008389D01*
X007501Y008488D02*
X007181Y008488D01*
X007178Y008586D02*
X007504Y008586D01*
X007539Y008685D02*
X007545Y008685D01*
X007387Y008685D02*
X007387Y008685D01*
X007387Y008676D02*
X007387Y009062D01*
X007387Y008676D01*
X007387Y008783D02*
X007387Y008783D01*
X007387Y008882D02*
X007387Y008882D01*
X007387Y008980D02*
X007387Y008980D01*
X007387Y009062D02*
X007387Y009062D01*
X007872Y009055D02*
X007872Y008703D01*
X007810Y008641D01*
X007810Y008516D01*
X007235Y008685D02*
X007137Y008685D01*
X006895Y008538D02*
X006872Y008516D01*
X006895Y008538D02*
X006895Y009062D01*
X006403Y009062D02*
X006403Y008585D01*
X006453Y008535D01*
X008148Y009867D02*
X008272Y009867D01*
X008272Y009965D02*
X008148Y009965D01*
X008148Y010064D02*
X008351Y010064D01*
X008294Y010162D02*
X008148Y010162D01*
X008148Y010261D02*
X008292Y010261D01*
X008953Y009756D02*
X009025Y009766D01*
X009560Y009766D01*
X009622Y009828D01*
X010009Y008980D02*
X011201Y008980D01*
X011123Y008882D02*
X009913Y008882D01*
X009913Y008783D02*
X010155Y008783D01*
X010057Y008685D02*
X009901Y008685D01*
X009958Y008586D02*
X009802Y008586D01*
X009868Y008488D02*
X009704Y008488D01*
X009605Y008389D02*
X009868Y008389D01*
X009868Y008291D02*
X009507Y008291D01*
X009408Y008192D02*
X009868Y008192D01*
X009868Y008094D02*
X009310Y008094D01*
X010288Y008094D02*
X010645Y008094D01*
X010558Y008192D02*
X010288Y008192D01*
X010288Y008291D02*
X010519Y008291D01*
X010519Y008389D02*
X010355Y008389D01*
X010288Y007995D02*
X010855Y007995D01*
X010953Y007897D02*
X010288Y007897D01*
X010288Y007798D02*
X011052Y007798D01*
X011549Y008517D02*
X011549Y009127D01*
X011516Y009285D01*
X011549Y008980D02*
X011549Y008980D01*
X011549Y008935D02*
X011549Y008935D01*
X011109Y010162D02*
X012056Y010162D01*
X012040Y010261D02*
X011109Y010261D01*
X011109Y010359D02*
X011978Y010359D01*
X011957Y010458D02*
X011109Y010458D01*
X011109Y010556D02*
X011966Y010556D01*
X011959Y010655D02*
X011109Y010655D01*
X011109Y010753D02*
X011908Y010753D01*
X011826Y010852D02*
X011109Y010852D01*
X011109Y010950D02*
X011663Y010950D01*
X011602Y011049D02*
X011109Y011049D01*
X011109Y011147D02*
X011582Y011147D01*
X011592Y011246D02*
X011109Y011246D01*
X011109Y011344D02*
X011639Y011344D01*
X011767Y011443D02*
X011109Y011443D01*
X011109Y011541D02*
X012259Y011541D01*
X012308Y011443D02*
X012015Y011443D01*
X012099Y011640D02*
X011109Y011640D01*
X011109Y011738D02*
X012039Y011738D01*
X011839Y011837D02*
X011109Y011837D01*
X011109Y011935D02*
X011748Y011935D01*
X011708Y012034D02*
X011109Y012034D01*
X011109Y012132D02*
X011544Y012132D01*
X011480Y012231D02*
X011109Y012231D01*
X011107Y012329D02*
X011457Y012329D01*
X011453Y012410D02*
X011549Y012568D01*
X011549Y012927D01*
X011549Y013377D01*
X011516Y013410D01*
X011528Y013413D02*
X009824Y013413D01*
X009824Y013378D02*
X009824Y013733D01*
X009860Y013769D01*
X009866Y013762D01*
X010554Y013762D01*
X010804Y013512D01*
X011429Y013512D01*
X011549Y013392D01*
X011549Y013344D01*
X011549Y013344D01*
X011549Y013344D01*
X011549Y013392D01*
X011549Y013392D01*
X011502Y013392D01*
X011482Y013412D01*
X011223Y013412D01*
X011138Y013327D01*
X010160Y013327D01*
X010128Y013359D01*
X010015Y013406D01*
X009892Y013406D01*
X009824Y013378D01*
X009824Y013511D02*
X011430Y013511D01*
X010706Y013610D02*
X009824Y013610D01*
X009824Y013708D02*
X010608Y013708D01*
X010060Y014201D02*
X010022Y014201D01*
X009983Y014299D02*
X009923Y014299D01*
X009923Y014398D02*
X009983Y014398D01*
X009983Y014496D02*
X009923Y014496D01*
X009923Y014595D02*
X009983Y014595D01*
X010010Y014693D02*
X009897Y014693D01*
X009798Y014792D02*
X010109Y014792D01*
X010207Y014890D02*
X009700Y014890D01*
X009648Y015002D02*
X009923Y015277D01*
X009923Y015667D01*
X009648Y015942D01*
X009259Y015942D01*
X008983Y015667D01*
X008983Y015277D01*
X009259Y015002D01*
X009648Y015002D01*
X009733Y015087D02*
X010173Y015087D01*
X010259Y015002D02*
X009983Y015277D01*
X009983Y015667D01*
X010259Y015942D01*
X010648Y015942D01*
X010923Y015667D01*
X010923Y015277D01*
X010648Y015002D01*
X010259Y015002D01*
X010075Y015186D02*
X009832Y015186D01*
X009923Y015284D02*
X009983Y015284D01*
X009983Y015383D02*
X009923Y015383D01*
X009923Y015481D02*
X009983Y015481D01*
X009983Y015580D02*
X009923Y015580D01*
X009912Y015678D02*
X009995Y015678D01*
X010094Y015777D02*
X009813Y015777D01*
X009715Y015875D02*
X010192Y015875D01*
X010715Y015875D02*
X011192Y015875D01*
X011094Y015777D02*
X010813Y015777D01*
X010912Y015678D02*
X010995Y015678D01*
X010983Y015580D02*
X010923Y015580D01*
X010923Y015481D02*
X010983Y015481D01*
X010983Y015383D02*
X010923Y015383D01*
X010923Y015284D02*
X010983Y015284D01*
X011075Y015186D02*
X010832Y015186D01*
X010772Y015087D02*
X010733Y015087D01*
X010673Y014989D02*
X006986Y014989D01*
X007027Y015087D02*
X008173Y015087D01*
X008259Y015002D02*
X007983Y015277D01*
X007983Y015667D01*
X008259Y015942D01*
X008648Y015942D01*
X008923Y015667D01*
X008923Y015277D01*
X008648Y015002D01*
X008259Y015002D01*
X008267Y014922D02*
X008003Y014658D01*
X008003Y014522D01*
X008403Y014522D01*
X008403Y014922D01*
X008267Y014922D01*
X008235Y014890D02*
X006945Y014890D01*
X007049Y015141D01*
X007049Y015413D01*
X006945Y015664D01*
X006753Y015856D01*
X006502Y015960D01*
X006230Y015960D01*
X005979Y015856D01*
X005787Y015664D01*
X005683Y015413D01*
X005683Y015141D01*
X005787Y014890D01*
X005979Y014698D01*
X006230Y014594D01*
X006502Y014594D01*
X006753Y014698D01*
X006945Y014890D01*
X006847Y014792D02*
X008137Y014792D01*
X008038Y014693D02*
X006741Y014693D01*
X006504Y014595D02*
X008003Y014595D01*
X008403Y014595D02*
X008503Y014595D01*
X008503Y014522D02*
X008503Y014922D01*
X008640Y014922D01*
X008903Y014658D01*
X008903Y014522D01*
X008503Y014522D01*
X008503Y014496D02*
X008983Y014496D01*
X008983Y014398D02*
X008903Y014398D01*
X008903Y014299D02*
X008983Y014299D01*
X009060Y014201D02*
X008819Y014201D01*
X008720Y014102D02*
X009158Y014102D01*
X009166Y014004D02*
X009078Y014004D01*
X008187Y014102D02*
X006541Y014102D01*
X006541Y014180D02*
X006541Y014312D01*
X006531Y014350D01*
X006511Y014384D01*
X006483Y014412D01*
X006449Y014432D01*
X006411Y014442D01*
X006153Y014442D01*
X006153Y014180D01*
X006541Y014180D01*
X006541Y014201D02*
X008088Y014201D01*
X008003Y014299D02*
X006541Y014299D01*
X006497Y014398D02*
X008003Y014398D01*
X008403Y014693D02*
X008503Y014693D01*
X008503Y014792D02*
X008403Y014792D01*
X008403Y014890D02*
X008503Y014890D01*
X008671Y014890D02*
X009207Y014890D01*
X009109Y014792D02*
X008770Y014792D01*
X008868Y014693D02*
X009010Y014693D01*
X008983Y014595D02*
X008903Y014595D01*
X008733Y015087D02*
X009173Y015087D01*
X009075Y015186D02*
X008832Y015186D01*
X008923Y015284D02*
X008983Y015284D01*
X008983Y015383D02*
X008923Y015383D01*
X008923Y015481D02*
X008983Y015481D01*
X008983Y015580D02*
X008923Y015580D01*
X008912Y015678D02*
X008995Y015678D01*
X009094Y015777D02*
X008813Y015777D01*
X008715Y015875D02*
X009192Y015875D01*
X008192Y015875D02*
X006707Y015875D01*
X006832Y015777D02*
X008094Y015777D01*
X007995Y015678D02*
X006931Y015678D01*
X006980Y015580D02*
X007983Y015580D01*
X007983Y015481D02*
X007021Y015481D01*
X007049Y015383D02*
X007983Y015383D01*
X007983Y015284D02*
X007049Y015284D01*
X007049Y015186D02*
X008075Y015186D01*
X006736Y014004D02*
X006656Y014004D01*
X006153Y014201D02*
X006128Y014201D01*
X006128Y014299D02*
X006153Y014299D01*
X006153Y014398D02*
X006128Y014398D01*
X006228Y014595D02*
X005435Y014595D01*
X005435Y014693D02*
X005990Y014693D01*
X005885Y014792D02*
X005435Y014792D01*
X005435Y014890D02*
X005787Y014890D01*
X005746Y014989D02*
X005435Y014989D01*
X005435Y015087D02*
X005705Y015087D01*
X005683Y015186D02*
X005435Y015186D01*
X005435Y015284D02*
X005683Y015284D01*
X005683Y015383D02*
X005435Y015383D01*
X005435Y015481D02*
X005711Y015481D01*
X005752Y015580D02*
X005435Y015580D01*
X005435Y015678D02*
X005801Y015678D01*
X005900Y015777D02*
X005435Y015777D01*
X005435Y015875D02*
X006025Y015875D01*
X005435Y015974D02*
X012573Y015974D01*
X012672Y016072D02*
X005435Y016072D01*
X005435Y016171D02*
X012770Y016171D01*
X012192Y015875D02*
X011715Y015875D01*
X011813Y015777D02*
X012094Y015777D01*
X011995Y015678D02*
X011912Y015678D01*
X011923Y015580D02*
X011983Y015580D01*
X011983Y015481D02*
X011923Y015481D01*
X011923Y015383D02*
X011983Y015383D01*
X011983Y015284D02*
X011923Y015284D01*
X011832Y015186D02*
X012075Y015186D01*
X013809Y015163D02*
X013923Y015277D01*
X013923Y015667D01*
X013657Y015933D01*
X014375Y015933D01*
X014349Y015882D01*
X014327Y015815D01*
X014316Y015745D01*
X014316Y015460D01*
X014716Y015460D01*
X014716Y015360D01*
X014316Y015360D01*
X014316Y015074D01*
X014327Y015004D01*
X014349Y014937D01*
X014381Y014874D01*
X014423Y014816D01*
X014473Y014766D01*
X014530Y014725D01*
X014593Y014693D01*
X014661Y014671D01*
X014716Y014662D01*
X014716Y015360D01*
X014816Y015360D01*
X014816Y015460D01*
X015216Y015460D01*
X015216Y015745D01*
X015205Y015815D01*
X015183Y015882D01*
X015157Y015933D01*
X015350Y015933D01*
X015296Y015803D01*
X015296Y015016D01*
X015367Y014843D01*
X015500Y014711D01*
X015556Y014688D01*
X015556Y013997D01*
X015071Y013512D01*
X015071Y013823D01*
X015004Y013891D01*
X015071Y013958D01*
X015071Y014493D01*
X014972Y014592D01*
X014593Y014592D01*
X014145Y015040D01*
X014022Y015163D01*
X013809Y015163D01*
X013832Y015186D02*
X014316Y015186D01*
X014316Y015284D02*
X013923Y015284D01*
X013923Y015383D02*
X014716Y015383D01*
X014716Y015284D02*
X014816Y015284D01*
X014816Y015360D02*
X014816Y014662D01*
X014871Y014671D01*
X014939Y014693D01*
X015002Y014725D01*
X015059Y014766D01*
X015109Y014816D01*
X015151Y014874D01*
X015183Y014937D01*
X015205Y015004D01*
X015216Y015074D01*
X015216Y015360D01*
X014816Y015360D01*
X014816Y015383D02*
X015296Y015383D01*
X015296Y015481D02*
X015216Y015481D01*
X015216Y015580D02*
X015296Y015580D01*
X015296Y015678D02*
X015216Y015678D01*
X015211Y015777D02*
X015296Y015777D01*
X015326Y015875D02*
X015185Y015875D01*
X014347Y015875D02*
X013715Y015875D01*
X013813Y015777D02*
X014321Y015777D01*
X014316Y015678D02*
X013912Y015678D01*
X013923Y015580D02*
X014316Y015580D01*
X014316Y015481D02*
X013923Y015481D01*
X014098Y015087D02*
X014316Y015087D01*
X014332Y014989D02*
X014196Y014989D01*
X014295Y014890D02*
X014373Y014890D01*
X014393Y014792D02*
X014447Y014792D01*
X014492Y014693D02*
X014591Y014693D01*
X014590Y014595D02*
X015556Y014595D01*
X015556Y014496D02*
X015068Y014496D01*
X015071Y014398D02*
X015556Y014398D01*
X015556Y014299D02*
X015071Y014299D01*
X015071Y014201D02*
X015556Y014201D01*
X015556Y014102D02*
X015071Y014102D01*
X015071Y014004D02*
X015556Y014004D01*
X015465Y013905D02*
X015018Y013905D01*
X015071Y013807D02*
X015366Y013807D01*
X015268Y013708D02*
X015071Y013708D01*
X015071Y013610D02*
X015169Y013610D01*
X015468Y013314D02*
X016556Y013314D01*
X016556Y013216D02*
X015369Y013216D01*
X015271Y013117D02*
X016556Y013117D01*
X016556Y013019D02*
X015172Y013019D01*
X015074Y012920D02*
X016556Y012920D01*
X016556Y012822D02*
X015096Y012822D01*
X015090Y012835D02*
X015039Y012886D01*
X015853Y013700D01*
X015976Y013823D01*
X015976Y014688D01*
X016032Y014711D01*
X016164Y014843D01*
X016236Y015016D01*
X016236Y015803D01*
X016182Y015933D01*
X016350Y015933D01*
X016296Y015803D01*
X016296Y015016D01*
X016367Y014843D01*
X016500Y014711D01*
X016556Y014688D01*
X016556Y012497D01*
X016074Y012015D01*
X015498Y012015D01*
X015498Y012049D01*
X015518Y012069D01*
X015518Y012328D01*
X015419Y012427D01*
X015246Y012427D01*
X015246Y012567D01*
X015137Y012676D01*
X015137Y012721D01*
X015090Y012835D01*
X015136Y012723D02*
X016556Y012723D01*
X016556Y012625D02*
X015188Y012625D01*
X015246Y012526D02*
X016556Y012526D01*
X016487Y012428D02*
X015246Y012428D01*
X015517Y012329D02*
X016389Y012329D01*
X016290Y012231D02*
X015518Y012231D01*
X015578Y012160D02*
X015420Y012002D01*
X015033Y012002D01*
X015498Y012034D02*
X016093Y012034D01*
X016192Y012132D02*
X015518Y012132D01*
X015931Y011201D02*
X016479Y011201D01*
X016700Y011422D01*
X017334Y011422D01*
X017282Y011370D01*
X017206Y011294D01*
X017165Y011195D01*
X017165Y011106D01*
X017138Y011113D01*
X016956Y011113D01*
X016956Y010807D01*
X016856Y010807D01*
X016856Y011113D01*
X016674Y011113D01*
X016636Y011103D01*
X016601Y011083D01*
X016573Y011055D01*
X016567Y011045D01*
X016566Y011047D01*
X016452Y011094D01*
X016329Y011094D01*
X016216Y011047D01*
X016129Y010960D01*
X016082Y010846D01*
X016082Y010766D01*
X016075Y010772D01*
X016075Y010846D01*
X016028Y010960D01*
X015941Y011047D01*
X015921Y011055D01*
X015931Y011079D01*
X015931Y011201D01*
X015931Y011147D02*
X017165Y011147D01*
X017186Y011246D02*
X016524Y011246D01*
X016623Y011344D02*
X017256Y011344D01*
X016956Y011049D02*
X016856Y011049D01*
X016856Y010950D02*
X016956Y010950D01*
X016956Y010852D02*
X016856Y010852D01*
X016570Y011049D02*
X016560Y011049D01*
X016221Y011049D02*
X015935Y011049D01*
X016032Y010950D02*
X016125Y010950D01*
X016084Y010852D02*
X016073Y010852D01*
X014548Y009768D02*
X013531Y009768D01*
X013531Y009670D02*
X014548Y009670D01*
X014548Y009571D02*
X013531Y009571D01*
X013531Y009473D02*
X014548Y009473D01*
X014548Y009374D02*
X013531Y009374D01*
X013531Y009276D02*
X014548Y009276D01*
X014548Y009177D02*
X013531Y009177D01*
X013531Y009079D02*
X014586Y009079D01*
X014324Y009867D02*
X013531Y009867D01*
X013531Y009965D02*
X014226Y009965D01*
X014127Y010064D02*
X013531Y010064D01*
X013531Y010162D02*
X014029Y010162D01*
X013930Y010261D02*
X013462Y010261D01*
X013363Y010359D02*
X013832Y010359D01*
X013743Y010458D02*
X013265Y010458D01*
X013166Y010556D02*
X013743Y010556D01*
X013743Y010655D02*
X013068Y010655D01*
X012969Y010753D02*
X013743Y010753D01*
X013743Y010852D02*
X012871Y010852D01*
X012772Y010950D02*
X013743Y010950D01*
X013743Y011049D02*
X012674Y011049D01*
X012575Y011147D02*
X013731Y011147D01*
X013633Y011246D02*
X012477Y011246D01*
X012394Y011344D02*
X012378Y011344D01*
X012763Y011344D02*
X013534Y011344D01*
X011465Y012428D02*
X010842Y012428D01*
X010842Y012526D02*
X011138Y012526D01*
X011123Y012625D02*
X010842Y012625D01*
X010788Y012723D02*
X011123Y012723D01*
X011123Y012822D02*
X010690Y012822D01*
X010479Y012722D02*
X010622Y012578D01*
X010622Y012200D01*
X010624Y012198D01*
X010624Y011805D02*
X010021Y011805D01*
X009810Y012016D01*
X009604Y012222D01*
X009110Y012222D01*
X008953Y012379D01*
X008953Y012714D01*
X008409Y012723D02*
X008146Y012723D01*
X008167Y012625D02*
X008409Y012625D01*
X008409Y012526D02*
X008167Y012526D01*
X008167Y012428D02*
X008409Y012428D01*
X008075Y012392D02*
X008075Y012392D01*
X007879Y011935D02*
X007879Y011935D01*
X007879Y011837D02*
X007879Y011837D01*
X007879Y011832D02*
X007879Y011832D01*
X008953Y011730D02*
X009596Y011730D01*
X009747Y011578D01*
X009777Y011608D01*
X010624Y011608D01*
X009604Y011246D02*
X009555Y011246D01*
X009544Y011344D02*
X009399Y011344D01*
X009953Y012722D02*
X010479Y012722D01*
X014716Y014693D02*
X014816Y014693D01*
X014816Y014792D02*
X014716Y014792D01*
X014716Y014890D02*
X014816Y014890D01*
X014816Y014989D02*
X014716Y014989D01*
X014716Y015087D02*
X014816Y015087D01*
X014816Y015186D02*
X014716Y015186D01*
X015216Y015186D02*
X015296Y015186D01*
X015296Y015284D02*
X015216Y015284D01*
X015216Y015087D02*
X015296Y015087D01*
X015307Y014989D02*
X015200Y014989D01*
X015159Y014890D02*
X015348Y014890D01*
X015419Y014792D02*
X015085Y014792D01*
X014940Y014693D02*
X015542Y014693D01*
X015976Y014595D02*
X016556Y014595D01*
X016556Y014496D02*
X015976Y014496D01*
X015976Y014398D02*
X016556Y014398D01*
X016556Y014299D02*
X015976Y014299D01*
X015976Y014201D02*
X016556Y014201D01*
X016556Y014102D02*
X015976Y014102D01*
X015976Y014004D02*
X016556Y014004D01*
X016556Y013905D02*
X015976Y013905D01*
X015960Y013807D02*
X016556Y013807D01*
X016556Y013708D02*
X015862Y013708D01*
X015763Y013610D02*
X016556Y013610D01*
X016556Y013511D02*
X015665Y013511D01*
X015566Y013413D02*
X016556Y013413D01*
X016976Y013413D02*
X017587Y013413D01*
X017587Y013511D02*
X016976Y013511D01*
X016976Y013610D02*
X017587Y013610D01*
X017587Y013708D02*
X016976Y013708D01*
X016976Y013807D02*
X017587Y013807D01*
X017587Y013905D02*
X016976Y013905D01*
X016976Y014004D02*
X017587Y014004D01*
X017587Y014102D02*
X016976Y014102D01*
X016976Y014201D02*
X017624Y014201D01*
X017587Y014163D02*
X017587Y013038D01*
X017686Y012938D01*
X018676Y012938D01*
X018615Y012878D01*
X018602Y012845D01*
X018424Y012845D01*
X018404Y012825D01*
X018091Y012825D01*
X017678Y012825D01*
X017640Y012815D01*
X017606Y012795D01*
X017578Y012767D01*
X017558Y012733D01*
X017548Y012695D01*
X017548Y012577D01*
X018091Y012577D01*
X018091Y012577D01*
X017548Y012577D01*
X017548Y012472D01*
X017291Y012472D01*
X017235Y012528D01*
X017121Y012575D01*
X016998Y012575D01*
X016976Y012566D01*
X016976Y014688D01*
X017032Y014711D01*
X017164Y014843D01*
X017236Y015016D01*
X017236Y015803D01*
X017182Y015933D01*
X017350Y015933D01*
X017296Y015803D01*
X017296Y015016D01*
X017367Y014843D01*
X017500Y014711D01*
X017672Y014640D01*
X017859Y014640D01*
X018032Y014711D01*
X018164Y014843D01*
X018165Y014844D01*
X018165Y014775D01*
X018206Y014675D01*
X018619Y014263D01*
X017686Y014263D01*
X017587Y014163D01*
X017542Y014693D02*
X016989Y014693D01*
X016976Y014595D02*
X018286Y014595D01*
X018198Y014693D02*
X017989Y014693D01*
X018113Y014792D02*
X018165Y014792D01*
X018385Y014496D02*
X016976Y014496D01*
X016976Y014398D02*
X018483Y014398D01*
X018582Y014299D02*
X016976Y014299D01*
X016542Y014693D02*
X015989Y014693D01*
X016113Y014792D02*
X016419Y014792D01*
X016348Y014890D02*
X016184Y014890D01*
X016225Y014989D02*
X016307Y014989D01*
X016296Y015087D02*
X016236Y015087D01*
X016236Y015186D02*
X016296Y015186D01*
X016296Y015284D02*
X016236Y015284D01*
X016236Y015383D02*
X016296Y015383D01*
X016296Y015481D02*
X016236Y015481D01*
X016236Y015580D02*
X016296Y015580D01*
X016296Y015678D02*
X016236Y015678D01*
X016236Y015777D02*
X016296Y015777D01*
X016326Y015875D02*
X016206Y015875D01*
X017206Y015875D02*
X017326Y015875D01*
X017296Y015777D02*
X017236Y015777D01*
X017236Y015678D02*
X017296Y015678D01*
X017296Y015580D02*
X017236Y015580D01*
X017236Y015481D02*
X017296Y015481D01*
X017296Y015383D02*
X017236Y015383D01*
X017236Y015284D02*
X017296Y015284D01*
X017296Y015186D02*
X017236Y015186D01*
X017236Y015087D02*
X017296Y015087D01*
X017307Y014989D02*
X017225Y014989D01*
X017184Y014890D02*
X017348Y014890D01*
X017419Y014792D02*
X017113Y014792D01*
X016976Y013314D02*
X017587Y013314D01*
X017587Y013216D02*
X016976Y013216D01*
X016976Y013117D02*
X017587Y013117D01*
X017606Y013019D02*
X016976Y013019D01*
X016976Y012920D02*
X018657Y012920D01*
X018091Y012825D02*
X018091Y012577D01*
X018091Y012825D01*
X018091Y012822D02*
X018091Y012822D01*
X018091Y012723D02*
X018091Y012723D01*
X018091Y012625D02*
X018091Y012625D01*
X018091Y012577D02*
X018091Y012577D01*
X017665Y012822D02*
X016976Y012822D01*
X016976Y012723D02*
X017555Y012723D01*
X017548Y012625D02*
X016976Y012625D01*
X017236Y012526D02*
X017548Y012526D01*
X018765Y010883D02*
X018892Y010831D01*
X018984Y010831D01*
X018984Y010361D01*
X019084Y010261D01*
X019673Y010261D01*
X018793Y010261D01*
X018793Y010359D02*
X018986Y010359D01*
X018984Y010458D02*
X018793Y010458D01*
X018793Y010556D02*
X018984Y010556D01*
X018984Y010655D02*
X018793Y010655D01*
X018793Y010753D02*
X018984Y010753D01*
X018842Y010852D02*
X018793Y010852D01*
X018793Y010856D02*
X018765Y010883D01*
X018793Y010856D02*
X018793Y009731D01*
X018693Y009631D01*
X017739Y009631D01*
X017699Y009533D01*
X017808Y009533D01*
X017907Y009434D01*
X017907Y008413D01*
X017808Y008313D01*
X017767Y008313D01*
X017767Y007086D01*
X018276Y007086D01*
X018376Y006987D01*
X018376Y006078D01*
X020689Y006078D01*
X020689Y009631D01*
X019773Y009631D01*
X019673Y009731D01*
X019673Y010261D01*
X019673Y010162D02*
X018793Y010162D01*
X018793Y010064D02*
X019673Y010064D01*
X019673Y009965D02*
X018793Y009965D01*
X018793Y009867D02*
X019673Y009867D01*
X019673Y009768D02*
X018793Y009768D01*
X018732Y009670D02*
X019734Y009670D01*
X020689Y009473D02*
X018750Y009473D01*
X018739Y009483D02*
X018705Y009503D01*
X018667Y009513D01*
X018457Y009513D01*
X018457Y008973D01*
X018797Y008973D01*
X018797Y009383D01*
X018787Y009421D01*
X018767Y009455D01*
X018739Y009483D01*
X018797Y009374D02*
X020689Y009374D01*
X020689Y009276D02*
X018797Y009276D01*
X018797Y009177D02*
X020689Y009177D01*
X020689Y009079D02*
X018797Y009079D01*
X018797Y008980D02*
X020689Y008980D01*
X020689Y008882D02*
X018457Y008882D01*
X018457Y008873D02*
X018457Y008973D01*
X018357Y008973D01*
X018357Y008873D01*
X018457Y008873D01*
X018457Y008333D01*
X018667Y008333D01*
X018705Y008344D01*
X018739Y008363D01*
X018767Y008391D01*
X018787Y008426D01*
X018797Y008464D01*
X018797Y008873D01*
X018457Y008873D01*
X018457Y008783D02*
X018357Y008783D01*
X018357Y008873D02*
X018357Y008333D01*
X018147Y008333D01*
X018109Y008344D01*
X018075Y008363D01*
X018047Y008391D01*
X018027Y008426D01*
X018017Y008464D01*
X018017Y008873D01*
X018357Y008873D01*
X018357Y008882D02*
X017907Y008882D01*
X017907Y008980D02*
X018017Y008980D01*
X018017Y008973D02*
X018357Y008973D01*
X018357Y009513D01*
X018147Y009513D01*
X018109Y009503D01*
X018075Y009483D01*
X018047Y009455D01*
X018027Y009421D01*
X018017Y009383D01*
X018017Y008973D01*
X018017Y009079D02*
X017907Y009079D01*
X017907Y009177D02*
X018017Y009177D01*
X018017Y009276D02*
X017907Y009276D01*
X017907Y009374D02*
X018017Y009374D01*
X018064Y009473D02*
X017868Y009473D01*
X017715Y009571D02*
X020689Y009571D01*
X020689Y008783D02*
X018797Y008783D01*
X018797Y008685D02*
X020689Y008685D01*
X020689Y008586D02*
X018797Y008586D01*
X018797Y008488D02*
X020689Y008488D01*
X020689Y008389D02*
X018765Y008389D01*
X018457Y008389D02*
X018357Y008389D01*
X018357Y008488D02*
X018457Y008488D01*
X018457Y008586D02*
X018357Y008586D01*
X018357Y008685D02*
X018457Y008685D01*
X018457Y008980D02*
X018357Y008980D01*
X018357Y009079D02*
X018457Y009079D01*
X018457Y009177D02*
X018357Y009177D01*
X018357Y009276D02*
X018457Y009276D01*
X018457Y009374D02*
X018357Y009374D01*
X018357Y009473D02*
X018457Y009473D01*
X018017Y008783D02*
X017907Y008783D01*
X017907Y008685D02*
X018017Y008685D01*
X018017Y008586D02*
X017907Y008586D01*
X017907Y008488D02*
X018017Y008488D01*
X018049Y008389D02*
X017883Y008389D01*
X017767Y008291D02*
X020689Y008291D01*
X020689Y008192D02*
X017767Y008192D01*
X017767Y008094D02*
X020689Y008094D01*
X020689Y007995D02*
X017767Y007995D01*
X017767Y007897D02*
X020689Y007897D01*
X020689Y007798D02*
X017767Y007798D01*
X017767Y007700D02*
X020689Y007700D01*
X020689Y007601D02*
X020108Y007601D01*
X020139Y007589D02*
X019888Y007693D01*
X019616Y007693D01*
X019365Y007589D01*
X019173Y007396D01*
X019069Y007145D01*
X019069Y006874D01*
X019173Y006623D01*
X019365Y006430D01*
X019616Y006326D01*
X019888Y006326D01*
X020139Y006430D01*
X020331Y006623D01*
X020435Y006874D01*
X020435Y007145D01*
X020331Y007396D01*
X020139Y007589D01*
X020224Y007503D02*
X020689Y007503D01*
X020689Y007404D02*
X020323Y007404D01*
X020368Y007306D02*
X020689Y007306D01*
X020689Y007207D02*
X020409Y007207D01*
X020435Y007109D02*
X020689Y007109D01*
X020689Y007010D02*
X020435Y007010D01*
X020435Y006912D02*
X020689Y006912D01*
X020689Y006813D02*
X020410Y006813D01*
X020369Y006715D02*
X020689Y006715D01*
X020689Y006616D02*
X020325Y006616D01*
X020226Y006518D02*
X020689Y006518D01*
X020689Y006419D02*
X020112Y006419D01*
X020689Y006321D02*
X018376Y006321D01*
X018376Y006419D02*
X019391Y006419D01*
X019277Y006518D02*
X018376Y006518D01*
X018376Y006616D02*
X019179Y006616D01*
X019134Y006715D02*
X018376Y006715D01*
X018376Y006813D02*
X019094Y006813D01*
X019069Y006912D02*
X018376Y006912D01*
X018352Y007010D02*
X019069Y007010D01*
X019069Y007109D02*
X017767Y007109D01*
X017767Y007207D02*
X019094Y007207D01*
X019135Y007306D02*
X017767Y007306D01*
X017767Y007404D02*
X019181Y007404D01*
X019279Y007503D02*
X017767Y007503D01*
X017767Y007601D02*
X019396Y007601D01*
X018376Y006222D02*
X020689Y006222D01*
X020689Y006124D02*
X018376Y006124D01*
X017227Y007109D02*
X016116Y007109D01*
X016132Y007700D02*
X016731Y007700D01*
X016829Y007798D02*
X016136Y007798D01*
X016152Y007897D02*
X016892Y007897D01*
X016848Y007995D02*
X016152Y007995D01*
X016152Y008094D02*
X016813Y008094D01*
X016813Y008192D02*
X016152Y008192D01*
X016152Y008291D02*
X016850Y008291D01*
X016201Y008389D02*
X016112Y008389D01*
X016177Y009079D02*
X015982Y009079D01*
X016081Y009177D02*
X016177Y009177D01*
X017184Y007503D02*
X017227Y007503D01*
X017227Y007404D02*
X017086Y007404D01*
X016996Y007314D02*
X016996Y007314D01*
X016988Y007306D02*
X017227Y007306D01*
X017227Y007207D02*
X016889Y007207D01*
X016861Y007180D02*
X016861Y007180D01*
X013703Y007267D02*
X013391Y007580D01*
X013391Y008035D01*
X013517Y008161D01*
X013517Y008517D01*
X013714Y008517D02*
X013714Y008045D01*
X012626Y007404D02*
X012609Y007404D01*
X012626Y007306D02*
X012537Y007306D01*
X013281Y006518D02*
X013284Y006518D01*
X013251Y006419D02*
X013405Y006419D01*
X012655Y006419D02*
X012588Y006419D01*
X012194Y006419D02*
X011487Y006419D01*
X007801Y006222D02*
X005435Y006222D01*
D31*
X007266Y006910D03*
X005997Y008078D03*
X006453Y008535D03*
X006872Y008516D03*
X007391Y008535D03*
X007810Y008516D03*
X009078Y008972D03*
X009266Y009285D03*
X010078Y010035D03*
X011516Y009285D03*
X011891Y010035D03*
X012266Y010472D03*
X012203Y010847D03*
X011891Y011160D03*
X012578Y011597D03*
X012328Y011847D03*
X012016Y012097D03*
X011641Y011847D03*
X011766Y012347D03*
X010141Y013472D03*
X009953Y013097D03*
X009953Y012722D03*
X009810Y012016D03*
X009747Y011578D03*
X007891Y010472D03*
X007641Y010722D03*
X007078Y010597D03*
X006453Y010722D03*
X006391Y011097D03*
X005641Y010847D03*
X006016Y012722D03*
X006935Y013766D03*
X007560Y013516D03*
X007828Y013222D03*
X008747Y013203D03*
X012641Y010160D03*
X013391Y010910D03*
X013641Y010222D03*
X014453Y009722D03*
X015703Y010097D03*
X016328Y009722D03*
X017435Y009703D03*
X017435Y010078D03*
X016391Y010785D03*
X016828Y011222D03*
X015766Y010785D03*
X015622Y011141D03*
X017060Y012266D03*
X017266Y013035D03*
X015891Y012535D03*
X014828Y012660D03*
X014185Y013578D03*
X016328Y014222D03*
X017328Y014285D03*
X019078Y009785D03*
X019828Y008972D03*
X018141Y007847D03*
X017122Y008141D03*
X016266Y007847D03*
X016391Y006660D03*
X018641Y006660D03*
X014641Y008410D03*
X013974Y007899D03*
X014078Y006972D03*
X013328Y006972D03*
X012391Y006660D03*
X012328Y007535D03*
X011953Y007722D03*
X010828Y008347D03*
X009641Y008160D03*
X008266Y010035D03*
D32*
X007879Y009062D02*
X007872Y009055D01*
X010828Y008347D02*
X011203Y007972D01*
X011641Y007972D01*
X011746Y008077D01*
X011746Y008517D01*
X015283Y007599D02*
X015283Y006685D01*
X015766Y007413D02*
X016766Y007410D01*
X017122Y007766D01*
X017122Y008141D01*
X015766Y008082D02*
X015283Y007599D01*
X015033Y012198D02*
X015016Y012216D01*
X015016Y012472D01*
X014828Y012660D01*
X011352Y012927D02*
X011352Y013097D01*
X009953Y013097D01*
D33*
X012453Y015472D02*
X013185Y016203D01*
X018060Y016203D01*
X018435Y015828D01*
X018435Y014828D01*
X018997Y014266D01*
X019310Y014266D01*
X018091Y011317D02*
X017611Y011317D01*
X017435Y011141D01*
X017435Y010141D01*
X017362Y010068D01*
X016906Y010068D01*
X016872Y010034D01*
X016872Y009391D01*
X016587Y009106D01*
X016587Y008923D01*
X017497Y008923D02*
X017497Y008766D01*
X017497Y008923D02*
X017497Y008141D01*
X017122Y008141D01*
X017497Y008141D02*
X017497Y006483D01*
X017435Y009703D02*
X017435Y010078D01*
X017435Y010141D01*
D34*
X019310Y014266D03*
M02*
